<svg width="292" height="365" viewBox="0 0 292 365" fill="none" xmlns="http://www.w3.org/2000/svg">
<path d="M13.41 347.72C13.37 347.9 13.34 348.05 13.34 348.37C13.34 351.74 16.93 353.66 20.77 353.66C23.49 353.66 27.33 352.65 27.33 349.49C27.33 346.88 24.65 346.01 21.1 344.92L15.81 343.22C9.61 341.37 4.47 337.75 4.47 329.7C4.46 318.87 13.59 313 25.04 313C37.18 313 44.39 319.71 44.39 327.57C44.39 328.26 44.32 328.69 44.25 329.02H31.49C31.53 328.91 31.53 328.69 31.53 328.44C31.53 325.07 28.2 323.55 24.97 323.55C21.42 323.55 19.06 325.36 19.06 327.75C19.06 330.14 21.31 331.45 25.04 332.53L30.66 334.16C36.17 335.75 41.89 338.91 41.89 347.24C41.89 358.15 32.14 364.09 20.26 364.09C10.62 364.09 0 360.07 0 349.27C0 348.62 0.04 348.18 0.15 347.71H13.41V347.72Z" fill="white"/>
<path d="M78.0999 363.26L65.0199 337.28H64.4799L59.9499 363.26H46.6499L55.3499 313.83H66.3299L79.2999 339.41H79.8399L84.2999 313.83H97.5999L88.8999 363.26H78.0999Z" fill="white"/>
<path d="M118.23 313.83H136.24L142.84 363.26H127.37L126.72 353.33H113.09L108.96 363.26H94.5L118.23 313.83ZM124.5 325.9L117.29 343.22H126.21L125.27 325.9H124.51H124.5Z" fill="white"/>
<path d="M148.43 363.26L157.12 313.8H177.12C187.67 313.8 193.94 319.63 193.94 329.49C193.94 331.05 193.79 332.61 193.47 334.09C191.69 342.71 184.85 349.53 172.74 349.53H165.13L162.7 363.26H148.42H148.43ZM169.7 324.01L167.16 338.4H171.62C175.64 338.4 178.4 335.97 179.3 332.57C179.52 331.85 179.66 330.94 179.66 330.14C179.66 325.5 176.25 324.02 173.5 324.02H169.7V324.01Z" fill="white"/>
<path d="M194.93 363.26L203.63 313.8H223.63C234.18 313.8 240.45 319.63 240.45 329.49C240.45 331.05 240.3 332.61 239.98 334.09C238.2 342.71 231.36 349.53 219.25 349.53H211.64L209.21 363.26H194.93ZM216.2 324.01L213.66 338.4H218.12C222.14 338.4 224.9 335.97 225.8 332.57C226.02 331.85 226.16 330.94 226.16 330.14C226.16 325.5 222.75 324.02 220 324.02H216.2V324.01Z" fill="white"/>
<path d="M266 363.26H251.68L254.43 347.75L243.71 313.83H259.08L263.68 333.69H264.22L276.11 313.83H291.22L268.79 347.32L266 363.27V363.26Z" fill="white"/>
<path d="M147.428 264C190.636 264 225.663 259.658 225.663 254.301C225.663 248.945 190.636 244.603 147.428 244.603C104.221 244.603 69.1938 248.945 69.1938 254.301C69.1938 259.658 104.221 264 147.428 264Z" fill="#070809"/>
<path d="M75.0248 116.259C75.0248 116.259 55.1848 104.35 55.1656 83.0441C55.1656 83.0441 43.9829 77.0482 43.9829 83.3773C43.9829 89.7063 48.0302 126.919 76.2779 132.799L83.6564 129.045L75.0311 116.265L75.0248 116.259Z" fill="#070809" stroke="#231F20" stroke-width="1.81584" stroke-miterlimit="10"/>
<path d="M207.415 193.842L77.2185 176.245L75.4219 84.6136L207.415 97.701V193.842Z" stroke="#231F20" stroke-width="2.41685" stroke-miterlimit="10"/>
<path d="M234 184.367L209.218 193.919L207.415 97.701L233.399 87.6245L234 184.367Z" fill="#F7CE15" stroke="#231F20" stroke-width="1.91814" stroke-miterlimit="10"/>
<path d="M207.269 97.195L78.8687 83.0762L110.109 75.1328L230.875 87.2017L207.269 97.195Z" fill="#F7CE15" stroke="#231F20" stroke-width="1.91814" stroke-miterlimit="10"/>
<path d="M207.415 193.842L77.2185 176.245L75.4219 84.6136L207.415 97.701V193.842Z" fill="#F7CE15" stroke="#231F20" stroke-width="2.55752" stroke-miterlimit="10"/>
<path d="M108.791 113.722L86.8535 111L86.6489 95.5101L108.791 97.8611V113.722Z" fill="#231F20"/>
<path d="M85.3765 138.341C86.6169 147.232 87.2435 156.572 87.7295 165.553L86.8983 164.656C95.4468 165.829 103.989 167.116 112.416 168.987C103.791 168.609 95.2102 167.635 86.6489 166.552L85.8561 166.456L85.8177 165.656C85.3893 156.668 85.0441 147.322 85.3702 138.341H85.3765Z" fill="#231F20"/>
<path d="M193.413 140.064C194.73 148.347 194.743 156.828 193.413 165.111C192.083 156.828 192.096 148.347 193.413 140.064Z" fill="#231F20"/>
<path d="M209.064 161.075L233.374 152.696L233.808 184.386L209.608 193.63L209.064 161.075Z" fill="#231F20"/>
<path d="M125.984 81.6093L99.814 79.1558V69.5981L125.984 71.7953V81.6093Z" fill="white" stroke="#231F20" stroke-width="1.81584" stroke-miterlimit="10"/>
<path d="M129.999 78.3101L126.808 82.474L126.533 71.065L129.89 69.4379L129.999 78.3101Z" fill="#231F20"/>
<path d="M126.534 71.0651L98.9189 68.6692L104.584 67.5994L129.839 69.502L126.534 71.0651Z" fill="#070809"/>
<path d="M217.971 87.7526C217.971 87.7526 193.355 90.9812 191.028 105.542C188.637 120.513 191.859 130.051 191.859 130.051C191.859 130.051 191.348 119.411 178.573 107.163C167.934 96.9708 152.109 102.096 152.109 102.096C152.109 102.096 167.946 101.397 174.442 88.1626C181.284 74.2232 177.652 60.5849 177.652 60.5849C177.652 60.5849 176.795 69.8479 186.405 82.9289C195.133 94.8056 217.971 87.7462 217.971 87.7462V87.7526Z" fill="white"/>
<path d="M217.85 87.7782C217.843 87.8102 217.895 87.8807 217.946 87.8807C218.003 87.8807 217.952 87.8807 217.965 87.8807C217.946 87.8807 217.901 87.8935 217.882 87.8935L217.767 87.9127L217.543 87.9576C209.097 89.8537 197.933 93.5372 193.458 101.474C192.262 103.556 191.993 105.811 191.725 108.194C191.079 114.196 191.092 120.295 192.121 126.246C192.313 127.418 192.569 128.629 192.882 129.692L190.785 130.09C189.672 121.134 184.155 113.242 177.818 107.047C174.513 103.947 170.165 102.108 165.696 101.519C161.246 100.936 156.578 101.404 152.32 102.723L152.083 101.417C158.726 100.654 165.363 97.8228 169.903 92.8325C174.353 87.7526 176.303 80.9174 177.038 74.3129C177.447 69.8799 177.32 65.2612 176.341 60.9308L179.008 60.7066C179.008 68.3233 182.69 75.498 186.834 81.7117C193.004 91.1157 207.39 89.8281 217.051 87.8294L217.492 87.727L217.709 87.6757L217.818 87.6501C217.818 87.6501 217.882 87.6309 217.85 87.6501C217.818 87.6629 217.805 87.7526 217.843 87.7782H217.85ZM218.099 87.7205C218.099 87.7526 218.048 87.8551 217.984 87.8807C217.946 87.8935 217.837 87.9319 217.799 87.9448C217.664 87.9896 217.287 88.1113 217.147 88.1562C208.291 90.6993 197.447 92.1983 189.238 86.9967C187.102 85.6322 185.484 83.499 184.052 81.4491C181.213 77.3749 178.835 72.9292 177.435 68.1183C176.725 65.6071 176.213 63.1216 176.309 60.4631L176.827 51.8792C177.467 54.5633 179.417 61.2511 179.634 63.8519C180.689 72.1733 179.385 80.8149 175.676 88.3611C172.569 94.9977 166.143 99.6485 159.187 101.564C155.319 102.826 149.948 102.883 145.881 103.114L151.911 101.474C160.856 99.1936 171.284 100.071 178.394 106.439C184.8 112.294 190.561 119.539 192.646 128.149C193.023 129.526 193.573 137.943 193.745 139.481L190.842 130.41C189.321 125.484 188.969 120.506 189.039 115.433C189.091 112.928 189.295 110.436 189.628 107.957C189.96 105.439 190.427 102.755 191.782 100.552C196.891 92.1599 208.336 88.9056 217.498 87.6821L217.728 87.6565L217.843 87.6437H217.901L217.933 87.6373H217.978C218.035 87.6373 218.099 87.7013 218.106 87.7334L218.099 87.7205Z" fill="#231F20"/>
<path d="M134.219 161.959C134.219 161.959 140.862 167.859 146.987 166.572C148.125 166.335 150.625 165.803 151.674 165.47C155.069 164.381 162.876 161.191 165.523 158.782C172.128 152.773 176.955 145.624 175.619 133.959C174.334 122.742 166.987 113.293 157.678 109.148C156.968 108.835 155.887 108.104 155.069 108.091C155.069 108.091 143.547 107.714 137.614 107.867C132.077 108.015 132.103 108.694 132.103 108.694L134.225 161.953L134.219 161.959Z" fill="#231F20"/>
<path d="M135.523 167.981C151.738 167.981 164.883 154.811 164.883 138.565C164.883 122.319 151.738 109.148 135.523 109.148C119.308 109.148 106.163 122.319 106.163 138.565C106.163 154.811 119.308 167.981 135.523 167.981Z" fill="white" stroke="#231F20" stroke-width="2.64703" stroke-miterlimit="10"/>
<path d="M134.904 164.15C148.99 164.15 160.409 152.709 160.409 138.597C160.409 124.484 148.99 113.043 134.904 113.043C120.818 113.043 109.399 124.484 109.399 138.597C109.399 152.709 120.818 164.15 134.904 164.15Z" fill="white" stroke="#231F20" stroke-width="1.91814" stroke-miterlimit="10"/>
<path d="M135.76 218.537L123.766 216.91L127.659 183.009L142.001 185.482L135.76 218.537Z" fill="#231F20"/>
<path d="M157.249 218.537L169.244 216.91L165.35 187.865L151.009 185.482L157.249 218.537Z" fill="#231F20"/>
<path d="M123.369 225.68C123.369 225.68 116.374 227.236 116.374 220.683C116.374 220.683 115.287 216.314 120.735 216.5C126.182 216.686 139.174 218.96 139.174 218.96C139.174 218.96 141.175 219.504 141.175 224.418C141.175 229.331 137.179 228.966 135.997 228.786C134.814 228.607 137.633 229.696 137.998 232.335C138.362 234.975 139.181 247.172 136.092 249.625H88.2221C88.2221 249.625 83.6825 246.71 83.6825 237.069C83.6825 237.069 83.1391 224.059 95.9458 224.238C95.9458 224.238 106.118 223.329 107.48 231.246C107.48 231.246 107.934 225.878 112.659 225.878C117.384 225.878 123.375 225.692 123.375 225.692L123.369 225.68Z" fill="#F04E2D" stroke="#231F20" stroke-width="2.55752" stroke-miterlimit="10"/>
<path d="M137.607 252.527C137.607 254.071 136.361 255.32 134.82 255.32H89.1681C87.6272 255.32 86.3804 254.071 86.3804 252.527C86.3804 250.983 87.6272 249.734 89.1681 249.734H134.82C136.361 249.734 137.607 250.983 137.607 252.527Z" fill="white" stroke="#231F20" stroke-width="2.55752" stroke-miterlimit="10"/>
<path d="M169.136 225.68C169.136 225.68 176.131 227.236 176.131 220.683C176.131 220.683 177.218 216.314 171.77 216.5C166.323 216.679 153.33 218.96 153.33 218.96C153.33 218.96 151.329 219.504 151.329 224.418C151.329 229.331 155.325 228.966 156.508 228.786C157.691 228.607 154.871 229.696 154.507 232.335C154.142 234.975 153.324 247.172 156.412 249.625H204.276C204.276 249.625 208.816 246.71 208.816 237.069C208.816 237.069 209.359 224.059 196.552 224.238C196.552 224.238 186.38 223.329 185.018 231.246C185.018 231.246 184.564 225.878 179.839 225.878C175.114 225.878 169.123 225.692 169.123 225.692L169.136 225.68Z" fill="#F04E2D" stroke="#231F20" stroke-width="2.55752" stroke-miterlimit="10"/>
<path d="M154.896 252.527C154.896 254.071 156.143 255.32 157.684 255.32H203.336C204.877 255.32 206.124 254.071 206.124 252.527C206.124 250.983 204.877 249.734 203.336 249.734H157.684C156.143 249.734 154.896 250.983 154.896 252.527Z" fill="white" stroke="#231F20" stroke-width="2.55752" stroke-miterlimit="10"/>
<path d="M208.336 158.936L233.816 150.198L233.617 146.886L208.221 154.996L208.336 158.936Z" fill="#231F20"/>
<path d="M208.336 152.869L233.816 144.132L233.617 140.82L208.221 148.93L208.336 152.869Z" fill="#231F20"/>
<path d="M208.559 146.245L233.617 138.257L233.975 136.528L208.252 144.381L208.559 146.245Z" fill="#231F20"/>
<path d="M33.728 67.8492C33.274 69.8094 32.7945 71.7632 32.3405 73.717C31.5796 76.9841 33.306 78.6689 35.3392 81.0134C41.1128 87.6692 52.1357 87.8486 59.041 82.9352C60.9016 81.6092 63.7148 79.4568 64.8082 77.4197C66.0933 75.0303 65.0064 70.5077 64.8913 67.8492H33.728Z" fill="#F04E2D" stroke="#231F20" stroke-width="2.55752" stroke-miterlimit="10"/>
<path d="M31.1765 39.2147C31.1765 39.2147 31.3427 35.0059 30.1663 30.1246C28.9898 25.2432 27.4745 24.2311 26.9758 21.0345C26.4259 17.5625 25.1599 12.6939 26.7136 9.34363C28.3888 5.73066 32.3338 3.46295 36.234 3.45654C43.6252 3.45654 46.1316 11.4512 46.1316 17.4984C46.1316 21.8737 45.9653 25.4034 45.9653 25.4098C46.1188 22.2388 47.3336 19.0487 48.4333 16.1211C50.5113 10.5672 53.5548 1.11836 61.2209 2.06645C64.616 2.48924 68.1773 6.97342 68.2413 10.3366C68.318 14.8335 66.4446 20.1697 64.3794 24.0966C62.9536 26.8063 61.9754 30.5089 60.6327 33.2571L59.5266 38.5228L54.4051 45.7295C54.4051 45.7295 57.5573 39.3684 49.3285 37.184C41.0933 34.9931 31.0103 39.7079 31.0103 39.7079" fill="#F04E2D"/>
<path d="M31.1765 39.2147C31.1765 39.2147 31.3427 35.0059 30.1663 30.1246C28.9898 25.2432 27.4745 24.2311 26.9758 21.0345C26.4259 17.5625 25.1599 12.6939 26.7136 9.34363C28.3888 5.73066 32.3338 3.46295 36.234 3.45654C43.6252 3.45654 46.1316 11.4512 46.1316 17.4984C46.1316 21.8737 45.9653 25.4034 45.9653 25.4098C46.1188 22.2388 47.3336 19.0487 48.4333 16.1211C50.5113 10.5672 53.5548 1.11836 61.2209 2.06645C64.616 2.48924 68.1773 6.97342 68.2413 10.3366C68.318 14.8335 66.4446 20.1697 64.3794 24.0966C62.9536 26.8063 61.9754 30.5089 60.6327 33.2571L59.5266 38.5228L54.4051 45.7295C54.4051 45.7295 57.5573 39.3684 49.3285 37.184C41.0933 34.9931 31.0103 39.7079 31.0103 39.7079" stroke="#231F20" stroke-width="2.55752" stroke-miterlimit="10"/>
<path d="M70.6067 57.4523C70.6067 69.6172 60.0378 79.4824 47.0072 79.4824C33.9767 79.4824 23.4014 69.6236 23.4014 57.4523C23.4014 45.281 33.9703 35.4222 47.0008 35.4222C52.3716 35.4222 57.3204 43.7499 61.2846 46.5686C66.9495 50.5915 70.6003 50.2968 70.6003 57.4523H70.6067Z" fill="#F04E2D" stroke="#231F20" stroke-width="2.55752" stroke-miterlimit="10"/>
<path d="M42.5765 57.5036C42.5765 57.5036 53.919 53.1604 53.7336 46.6007C53.5482 40.0409 54.2899 40.5983 53.0879 39.1185C51.6493 37.3504 50.9907 36.2486 48.7593 35.6272C46.3168 34.9482 43.8169 34.4742 41.2721 34.8137C32.0267 36.0308 22.4169 46.6903 23.312 56.2993C24.0473 64.2427 25.5242 68.4898 27.3656 70.3412C29.2071 72.1861 34.8336 76.8048 37.4167 77.5479C39.9998 78.2846 43.4077 80.0398 46.1762 79.9501C48.7273 79.8668 51.8219 78.7714 54.0086 77.439C58.7272 74.5627 58.3052 65.4278 54.5456 62.1031" fill="#F04E2D"/>
<path d="M42.5767 57.5036C46.6432 55.4857 52.9858 51.9048 53.1009 46.8312C52.9922 44.903 52.9858 42.7122 53.005 40.7712C52.9858 40.4637 52.9603 40.3356 52.858 40.1754C51.9372 39.0672 50.959 37.6195 49.6674 36.966C48.6253 36.4728 47.2122 36.2358 46.0358 36.0116C35.9016 34.0257 25.192 44.6084 24.5463 54.4351C24.5079 56.6964 24.8532 58.9962 25.1984 61.219C25.7035 63.9736 26.279 66.9268 27.9222 69.1817C29.4503 70.8408 31.2597 72.2693 33.0372 73.6594C34.3479 74.6395 35.6459 75.594 37.0717 76.2923C37.9604 76.6895 38.9706 76.9457 39.853 77.3237C42.3785 78.291 44.7954 79.38 47.2378 79.0148C49.725 78.6945 52.3081 77.8489 54.3797 76.3884C58.1073 73.1534 57.8835 65.5943 54.5395 62.1095C57.6789 64.8704 58.4078 69.6941 57.3784 73.621C56.6686 76.5934 54.271 78.4127 51.5153 79.4825C49.546 80.2832 47.436 80.9238 45.2557 80.8085C42.0716 80.4882 39.2008 79.1365 36.2149 78.2205C32.7175 76.5421 29.7636 74.0694 26.88 71.5327C26.4772 71.1611 26.0296 70.6807 25.7099 70.2322C23.2227 66.4399 22.7432 61.8981 22.1678 57.542C21.5284 53.2372 22.7688 48.753 25.0002 45.1337C28.504 39.3939 34.284 34.7752 41.0422 33.7567C44.3095 33.4171 47.5319 34.0193 50.5306 35.3325C51.8733 36.0372 52.762 37.312 53.6188 38.4394C53.9321 38.8494 54.4372 39.4708 54.5267 40.0858C54.6162 42.4111 54.3029 44.5059 54.3541 46.8441C53.8937 52.5261 47.257 55.7355 42.5767 57.4972V57.5036Z" fill="#231F20"/>
<path d="M71.7576 52.3661C70.5811 56.3762 65.4789 58.4133 60.3638 56.9015C55.2488 55.3961 52.0583 50.9184 53.2348 46.9018L56.5148 35.7362C57.6912 31.7261 62.7935 29.689 67.9085 31.2008C73.0235 32.7062 76.214 37.184 75.0376 41.2005L71.7576 52.3661Z" fill="#F04E2D" stroke="#231F20" stroke-width="2.55752" stroke-miterlimit="10"/>
<path d="M103.835 110.801L89.7112 109.091L89.27 98.1816L103.79 99.9945L103.835 110.801Z" fill="white"/>
<path d="M213.074 184.374C213.924 184.111 214.589 184.547 214.838 185.367C214.864 185.45 214.896 185.565 214.915 185.674C214.934 185.77 214.953 185.924 214.96 186.02C215.024 186.943 214.525 187.731 213.534 188.038L212.115 188.48L211.654 184.816L213.074 184.374ZM213.01 187.333L213.182 187.282C213.611 187.148 213.937 186.827 213.905 186.244C213.905 186.161 213.886 186.027 213.867 185.93C213.854 185.86 213.828 185.77 213.815 185.719C213.662 185.226 213.291 185.175 212.978 185.271L212.767 185.335L213.016 187.327L213.01 187.333Z" fill="white"/>
<path d="M218.112 186.622L215.683 187.372L215.222 183.708L217.652 182.958L217.754 183.797L216.328 184.239L216.405 184.861L217.741 184.444L217.837 185.187L216.495 185.604L216.571 186.225L218.003 185.783L218.106 186.622H218.112Z" fill="white"/>
<path d="M219.467 186.206L217.939 182.868L219.039 182.529L219.953 185.053L219.998 185.04L220.228 182.157L221.328 181.818L220.739 185.809L219.461 186.206H219.467Z" fill="white"/>
<path d="M221.712 183.15C221.597 182.221 222.038 181.536 222.939 181.254C223.809 180.985 224.57 181.305 224.832 182.151C224.87 182.266 224.909 182.401 224.922 182.535L224.979 183.041C225.081 183.964 224.666 184.656 223.751 184.938C222.888 185.207 222.127 184.886 221.872 184.047C221.833 183.925 221.795 183.778 221.776 183.65L221.718 183.15H221.712ZM222.792 183.362C222.805 183.477 222.831 183.586 222.856 183.669C222.959 184.009 223.208 184.214 223.553 184.105C223.847 184.015 224.007 183.714 223.943 183.15L223.898 182.798C223.879 182.683 223.854 182.574 223.835 182.497C223.732 182.157 223.483 181.952 223.138 182.061C222.844 182.151 222.684 182.446 222.754 183.009L222.799 183.362H222.792Z" fill="white"/>
<path d="M227.914 183.592L226.431 182.048L226.393 182.061L226.636 183.989L225.702 184.278L225.242 180.613L226.015 180.376L227.48 181.895L227.518 181.882L227.275 179.986L228.208 179.697L228.669 183.362L227.908 183.599L227.914 183.592Z" fill="white"/>
<path d="M231.795 182.388L229.365 183.137L228.905 179.473L231.334 178.724L231.437 179.563L230.011 180.005L230.088 180.626L231.424 180.21L231.52 180.953L230.177 181.369L230.254 181.991L231.686 181.549L231.788 182.388H231.795Z" fill="white"/>
<path d="M117.269 136.195C119.078 150.672 122.569 153.99 135.805 159.25L135.792 159.57L133.58 159.448L131.38 159.186C123.458 157.962 117.333 153.273 116.361 144.951C115.978 141.992 116.195 138.988 116.962 136.111L117.269 136.201V136.195Z" fill="#231F20"/>
<path d="M152.562 142.825C150.753 128.347 147.262 125.029 134.027 119.77L134.04 119.449L136.252 119.571L138.451 119.834C146.373 121.057 152.499 125.746 153.47 134.068C153.854 137.027 153.637 140.032 152.869 142.908L152.562 142.818V142.825Z" fill="#231F20"/>
</svg>
