<svg width="257" height="277" viewBox="0 0 257 277" fill="none" xmlns="http://www.w3.org/2000/svg">
<path d="M95.2481 127.952C95.2481 127.952 75.1865 115.938 75.1671 94.4443C75.1671 94.4443 63.8594 88.3955 63.8594 94.7804C63.8594 101.165 67.9519 138.705 96.5153 144.638L103.976 140.851L95.2546 127.958L95.2481 127.952Z" fill="#979797" stroke="#979797" stroke-width="1.83284" stroke-miterlimit="10"/>
<path d="M167.82 277C211.511 277 246.929 272.619 246.929 267.216C246.929 261.812 211.511 257.432 167.82 257.432C124.13 257.432 88.7114 261.812 88.7114 267.216C88.7114 272.619 124.13 277 167.82 277Z" fill="#979797"/>
<path d="M156.668 231.136L144.533 229.489L148.471 195.296L162.972 197.784L156.668 231.136Z" fill="#979797"/>
<path d="M178.392 231.136L190.52 229.488L186.583 200.188L172.088 197.784L178.392 231.136Z" fill="#979797"/>
<path d="M144.138 238.342C144.138 238.342 137.065 239.912 137.065 233.301C137.065 233.301 135.966 228.894 141.475 229.081C146.983 229.262 160.12 231.563 160.12 231.563C160.12 231.563 162.144 232.112 162.144 237.069C162.144 242.026 158.103 241.657 156.907 241.476C155.711 241.295 158.562 242.394 158.931 245.056C159.299 247.719 160.127 260.023 157.004 262.498H108.605C108.605 262.498 104.015 259.558 104.015 249.832C104.015 249.832 103.466 236.707 116.415 236.888C116.415 236.888 126.702 235.97 128.079 243.958C128.079 243.958 128.538 238.542 133.316 238.542C138.093 238.542 144.151 238.355 144.151 238.355L144.138 238.342Z" fill="white" stroke="#979797" stroke-width="2.58147" stroke-miterlimit="10"/>
<path d="M158.53 265.419C158.53 266.977 157.269 268.237 155.711 268.237H109.549C107.991 268.237 106.73 266.977 106.73 265.419C106.73 263.862 107.991 262.602 109.549 262.602H155.711C157.269 262.602 158.53 263.862 158.53 265.419Z" fill="white" stroke="#979797" stroke-width="2.58147" stroke-miterlimit="10"/>
<path d="M190.41 238.342C190.41 238.342 197.482 239.912 197.482 233.301C197.482 233.301 198.582 228.894 193.073 229.081C187.565 229.269 174.427 231.563 174.427 231.563C174.427 231.563 172.404 232.112 172.404 237.069C172.404 242.026 176.445 241.657 177.641 241.476C178.837 241.295 175.986 242.394 175.617 245.056C175.249 247.719 174.421 260.023 177.544 262.498H225.942C225.942 262.498 230.533 259.558 230.533 249.832C230.533 249.832 231.082 236.707 218.132 236.888C218.132 236.888 207.846 235.97 206.469 243.958C206.469 243.958 206.01 238.542 201.232 238.542C196.455 238.542 190.397 238.355 190.397 238.355L190.41 238.342Z" fill="white" stroke="#979797" stroke-width="2.58147" stroke-miterlimit="10"/>
<path d="M176.012 265.419C176.012 266.977 177.272 268.237 178.831 268.237H224.992C226.551 268.237 227.811 266.977 227.811 265.419C227.811 263.862 226.551 262.602 224.992 262.602H178.831C177.272 262.602 176.012 263.862 176.012 265.419Z" fill="white" stroke="#979797" stroke-width="2.58147" stroke-miterlimit="10"/>
<path d="M55.513 12.5077C55.513 12.5077 53.0045 10.3816 47.6901 12.5077C42.3756 14.6339 38.3478 20.2044 36.5763 23.804C34.8048 27.4035 35.6647 34.5315 35.6647 34.5315L65.0686 33.4329L55.513 12.5142V12.5077Z" fill="white" stroke="#979797" stroke-width="2.58147" stroke-miterlimit="10"/>
<path d="M143.938 31.3457H2V105.463H143.938V31.3457Z" fill="white" stroke="#979797" stroke-width="2.58147" stroke-miterlimit="10"/>
<path d="M100.078 38.5124C106.062 38.5124 110.914 31.9272 110.914 23.804C110.914 15.6808 106.062 9.09564 100.078 9.09564C94.0935 9.09564 89.2422 15.6808 89.2422 23.804C89.2422 31.9272 94.0935 38.5124 100.078 38.5124Z" fill="white" stroke="#979797" stroke-width="2.58147" stroke-miterlimit="10"/>
<path d="M84.3929 39.5787C91.2986 39.5787 96.8967 31.6453 96.8967 21.8589C96.8967 12.0725 91.2986 4.13904 84.3929 4.13904C77.4873 4.13904 71.8892 12.0725 71.8892 21.8589C71.8892 31.6453 77.4873 39.5787 84.3929 39.5787Z" fill="white" stroke="#979797" stroke-width="2.58147" stroke-miterlimit="10"/>
<path d="M68.0165 39.5852C74.9221 39.5852 80.5203 31.1715 80.5203 20.7926C80.5203 10.4137 74.9221 2 68.0165 2C61.1108 2 55.5127 10.4137 55.5127 20.7926C55.5127 31.1715 61.1108 39.5852 68.0165 39.5852Z" fill="white" stroke="#979797" stroke-width="2.58147" stroke-miterlimit="10"/>
<path d="M229.124 206.224L97.4721 188.465L95.6489 96.0341L229.124 109.237V206.224Z" stroke="#231F20" stroke-width="2.43949" stroke-miterlimit="10"/>
<path d="M256 196.66L231.141 205.752L229.124 109.237L255.392 99.0649L256 196.66Z" fill="white" stroke="#979797" stroke-width="1.9361" stroke-miterlimit="10"/>
<path d="M228.975 108.726L99.1401 94.4766L130.729 86.4697L252.838 98.6448L228.975 108.726Z" fill="white" stroke="#979797" stroke-width="1.9361" stroke-miterlimit="10"/>
<path d="M229.124 206.224L97.4721 188.465L95.6489 96.0341L229.124 109.237V206.224Z" fill="white" stroke="#979797" stroke-width="2.58147" stroke-miterlimit="10"/>
<path d="M105.722 150.234C106.976 159.204 107.61 168.626 108.101 177.686L107.261 176.781C115.905 177.964 124.542 179.263 133.063 181.15C124.342 180.769 115.665 179.786 107.008 178.694L106.207 178.597L106.168 177.79C105.735 168.723 105.386 159.294 105.715 150.234H105.722Z" fill="#979797"/>
<path d="M214.959 151.972C216.291 160.328 216.304 168.884 214.959 177.24C213.614 168.884 213.627 160.328 214.959 151.972Z" fill="#979797"/>
<path d="M230.792 173.169L255.373 164.716L255.813 196.679L231.336 206.011L230.792 173.169Z" fill="#979797"/>
<path d="M146.783 93.0032L120.321 90.5281V80.8862L146.783 83.1028V93.0032Z" fill="white" stroke="#979797" stroke-width="1.83284" stroke-miterlimit="10"/>
<path d="M150.843 89.6751L147.617 93.8756L147.332 82.3596L150.733 80.7182L150.843 89.6751Z" fill="#979797"/>
<path d="M147.333 82.3596L119.409 79.9427L125.144 78.8635L150.682 80.7892L147.333 82.3596Z" fill="#979797"/>
<path d="M239.799 99.2006C239.799 99.2006 214.907 102.458 212.554 117.147C210.136 132.249 213.395 141.872 213.395 141.872C213.395 141.872 212.877 131.138 199.96 118.782C189.202 108.5 173.2 113.67 173.2 113.67C173.2 113.67 189.215 112.965 195.783 99.6142C202.701 85.552 199.029 71.7936 199.029 71.7936C199.029 71.7936 198.163 81.1382 207.88 94.3344C216.705 106.316 239.799 99.1941 239.799 99.1941V99.2006Z" fill="white"/>
<path d="M239.701 99.22C239.701 99.22 239.733 99.2975 239.772 99.2975C239.811 99.2975 239.772 99.2975 239.779 99.2975C239.552 99.3363 239.132 99.4203 238.893 99.4655C230.333 101.378 219.368 104.907 214.784 112.933C213.549 115.046 213.258 117.379 212.98 119.803C212.301 125.884 212.308 132.068 213.368 138.098C213.569 139.287 213.834 140.508 214.163 141.613L212.573 141.917C211.416 132.837 205.72 124.85 199.261 118.607C195.899 115.466 191.477 113.625 186.938 113.024C182.419 112.403 177.686 112.849 173.348 114.167L173.167 113.179C179.949 112.448 186.731 109.605 191.386 104.539C197.393 97.5914 199.235 87.7945 198.912 78.8247C198.802 76.5499 198.518 74.217 198.026 72.0715L200.05 71.9035C200.05 79.639 203.806 87.0061 208.086 93.2875C214.48 102.826 229.008 101.475 238.874 99.3363L239.32 99.2264L239.539 99.1683L239.649 99.1424C239.649 99.1424 239.708 99.123 239.688 99.136C239.669 99.1424 239.662 99.2135 239.695 99.2264L239.701 99.22ZM239.889 99.1812C239.889 99.1812 239.843 99.2846 239.785 99.304L239.714 99.3298L239.604 99.3686C239.468 99.4138 239.087 99.5302 238.945 99.5754C229.234 102.296 215.508 103.95 207.989 95.698C202.985 89.3519 198.841 81.8814 198.046 73.713C197.826 72.1749 198.369 66.7918 198.408 65.1891C199.015 67.7094 200.457 72.6596 200.677 75.1347C201.731 83.4647 200.451 92.1243 196.746 99.6853C192.569 108.616 182.775 113.592 173.219 114.187L168.48 114.465L173.044 113.198C180.951 111.156 189.873 111.511 196.895 115.983C197.871 116.636 198.828 117.328 199.701 118.122C205.72 123.635 211.041 130.349 213.472 138.259C214.357 140.696 214.584 146.699 214.887 149.303L212.618 142.137C211.112 137.219 210.756 132.197 210.821 127.118C210.866 124.604 211.079 122.097 211.396 119.602C211.72 117.088 212.172 114.419 213.523 112.216C218.644 103.828 230.133 100.467 239.32 99.1489L239.552 99.123L239.669 99.1101H239.727L239.753 99.1036H239.792C239.837 99.1036 239.889 99.1553 239.889 99.1747V99.1812Z" fill="#979797"/>
<path d="M155.103 174.054C155.103 174.054 161.821 180.006 168.014 178.707C169.165 178.468 171.693 177.932 172.753 177.596C176.187 176.497 184.081 173.279 186.757 170.849C193.436 164.787 198.317 157.575 196.966 145.807C195.666 134.492 188.238 124.96 178.824 120.778C178.107 120.462 177.014 119.725 176.187 119.712C176.187 119.712 164.536 119.331 158.536 119.486C152.938 119.635 152.963 120.32 152.963 120.32L155.11 174.048L155.103 174.054Z" fill="#979797"/>
<path d="M156.422 180.129C172.819 180.129 186.111 166.843 186.111 150.454C186.111 134.065 172.819 120.779 156.422 120.779C140.026 120.779 126.734 134.065 126.734 150.454C126.734 166.843 140.026 180.129 156.422 180.129Z" fill="white" stroke="white" stroke-width="2.67182" stroke-miterlimit="10"/>
<path d="M155.801 176.264C170.044 176.264 181.591 164.723 181.591 150.486C181.591 136.249 170.044 124.708 155.801 124.708C141.558 124.708 130.011 136.249 130.011 150.486C130.011 164.723 141.558 176.264 155.801 176.264Z" fill="white" stroke="#979797" stroke-width="1.9361" stroke-miterlimit="10"/>
<path d="M230.055 171.011L255.813 162.189L255.612 158.855L229.939 167.03L230.055 171.011Z" fill="#979797"/>
<path d="M230.055 164.891L255.813 156.07L255.612 152.735L229.939 160.91L230.055 164.891Z" fill="#979797"/>
<path d="M230.281 158.209L255.618 150.15L255.974 148.405L229.964 156.328L230.281 158.209Z" fill="#979797"/>
<path d="M129.398 125.393L107.209 122.653L107.002 107.027L129.398 109.398V125.393Z" fill="#979797"/>
<path d="M124.387 122.452L110.099 120.727L109.659 109.715L124.342 111.55L124.387 122.452Z" fill="white"/>
<path d="M234.193 196.673C235.052 196.408 235.725 196.847 235.977 197.674C236.003 197.758 236.035 197.875 236.055 197.985C236.074 198.081 236.093 198.237 236.1 198.333C236.164 199.264 235.66 200.059 234.658 200.369L233.223 200.815L232.757 197.119L234.193 196.673ZM234.128 199.658L234.303 199.607C234.736 199.471 235.065 199.148 235.033 198.56C235.033 198.476 235.014 198.34 234.994 198.243C234.981 198.172 234.955 198.081 234.943 198.03C234.787 197.532 234.412 197.48 234.096 197.577L233.882 197.642L234.134 199.652L234.128 199.658Z" fill="white"/>
<path d="M239.288 198.941L236.831 199.697L236.365 196.001L238.822 195.245L238.925 196.091L237.484 196.537L237.561 197.164L238.913 196.744L239.01 197.493L237.652 197.913L237.729 198.54L239.178 198.094L239.281 198.941H239.288Z" fill="white"/>
<path d="M240.664 198.514L239.119 195.147L240.231 194.805L241.155 197.351L241.2 197.338L241.433 194.43L242.545 194.088L241.95 198.114L240.657 198.514H240.664Z" fill="white"/>
<path d="M242.927 195.438C242.81 194.501 243.257 193.81 244.168 193.525C245.047 193.254 245.817 193.577 246.082 194.43C246.121 194.547 246.159 194.682 246.172 194.818L246.231 195.328C246.334 196.259 245.914 196.957 244.989 197.241C244.116 197.513 243.347 197.19 243.088 196.343C243.05 196.22 243.011 196.072 242.992 195.942L242.933 195.438H242.927ZM244.019 195.652C244.032 195.768 244.058 195.878 244.084 195.962C244.188 196.304 244.44 196.511 244.789 196.401C245.086 196.311 245.248 196.007 245.183 195.438L245.138 195.083C245.119 194.967 245.093 194.857 245.073 194.779C244.97 194.437 244.718 194.23 244.369 194.34C244.071 194.43 243.91 194.727 243.981 195.296L244.026 195.652H244.019Z" fill="white"/>
<path d="M249.198 195.884L247.698 194.327L247.659 194.34L247.905 196.285L246.961 196.576L246.496 192.879L247.278 192.64L248.758 194.172L248.797 194.159L248.552 192.246L249.495 191.955L249.961 195.652L249.192 195.891L249.198 195.884Z" fill="white"/>
<path d="M253.123 194.669L250.667 195.425L250.201 191.729L252.658 190.973L252.761 191.819L251.32 192.265L251.397 192.892L252.748 192.472L252.845 193.222L251.488 193.642L251.565 194.269L253.014 193.823L253.117 194.669H253.123Z" fill="white"/>
<path d="M137.964 148.069C139.794 162.674 143.324 166.022 156.707 171.327L156.694 171.65L154.457 171.527L152.233 171.263C144.222 170.028 138.029 165.298 137.046 156.903C136.658 153.918 136.878 150.887 137.654 147.985L137.964 148.076V148.069Z" fill="#979797"/>
<path d="M173.652 154.758C171.822 140.153 168.292 136.805 154.909 131.5L154.922 131.176L157.159 131.299L159.383 131.564C167.394 132.798 173.587 137.529 174.57 145.924C174.958 148.909 174.738 151.94 173.962 154.842L173.652 154.751V154.758Z" fill="#979797"/>
<path d="M53.3985 50.4161L49.8814 70.6498H54.5428L53.3274 77.4418H48.6659L47.8254 82.3597H39.44L40.3064 77.4418H24.9385L26.1798 70.4366C30.421 63.8579 35.6708 56.6459 40.2611 50.4161H53.4049H53.3985ZM41.4248 70.6498L43.9334 57.1112H43.4873C40.5585 61.0467 36.8798 66.0809 34.1838 70.4624V70.6498H41.4248Z" fill="#979797"/>
<path d="M59.8703 63.5542C61.3249 54.7718 66.2903 49.8992 73.9516 49.8992C81.6129 49.8992 85.9252 54.6296 85.9252 62.4039C85.9252 63.8321 85.8347 65.1891 85.6213 66.2684L85.0847 69.2217C83.4684 78.0493 78.6195 82.8961 70.9776 82.8961C63.3356 82.8961 59.0298 78.1398 59.0298 70.4818C59.0298 69.0989 59.1009 68.0714 59.3789 66.3847L59.8703 63.5542ZM68.4238 67.884C68.1199 69.7839 68.0747 70.107 68.0747 70.6951C67.9777 74.0232 69.0121 75.5871 71.2168 75.5871C73.583 75.5871 75.1088 73.3641 75.8588 68.8662L76.5377 64.7691C76.7252 63.8321 76.8868 62.5202 76.8868 61.9838C76.9773 58.8237 75.9235 57.1823 73.7253 57.1823C71.5271 57.1823 69.8332 59.5733 69.0832 63.9031L68.4302 67.884H68.4238Z" fill="#979797"/>
<path d="M116.738 50.4161L113.221 70.6498H117.883L116.667 77.4418H112.006L111.165 82.3597H102.78L103.646 77.4418H88.2783L89.5196 70.4366C93.7608 63.8579 99.0106 56.6459 103.601 50.4161H116.745H116.738ZM104.765 70.6498L107.273 57.1112H106.827C103.898 61.0467 100.22 66.0809 97.5236 70.4624V70.6498H104.765Z" fill="#979797"/>
</svg>
