<svg width="213" height="264" viewBox="0 0 213 264" fill="none" xmlns="http://www.w3.org/2000/svg">
<path d="M53.0252 116.259C53.0252 116.259 33.1853 104.35 33.1661 83.0441C33.1661 83.0441 21.9834 77.0482 21.9834 83.3773C21.9834 89.7064 26.0307 126.919 54.2784 132.799L61.6568 129.045L53.0316 116.266L53.0252 116.259Z" fill="#979797" stroke="#979797" stroke-width="1.8193" stroke-miterlimit="10"/>
<path d="M126.068 264C169.275 264 204.302 259.658 204.302 254.301C204.302 248.945 169.275 244.603 126.068 244.603C82.8602 244.603 47.8335 248.945 47.8335 254.301C47.8335 259.658 82.8602 264 126.068 264Z" fill="#979797"/>
<path d="M185.415 193.842L55.218 176.245L53.4214 84.6136L185.415 97.701V193.842Z" stroke="#231F20" stroke-width="2.42146" stroke-miterlimit="10"/>
<path d="M212 184.367L187.416 193.374L185.415 97.701L211.399 87.6244L212 184.367Z" fill="white" stroke="#979797" stroke-width="1.92179" stroke-miterlimit="10"/>
<path d="M185.268 97.1949L56.8677 83.0762L88.1077 75.1328L208.873 87.2016L185.268 97.1949Z" fill="white" stroke="#979797" stroke-width="1.92179" stroke-miterlimit="10"/>
<path d="M185.415 193.842L55.218 176.245L53.4214 84.6136L185.415 97.701V193.842Z" fill="white" stroke="#979797" stroke-width="2.56239" stroke-miterlimit="10"/>
<path d="M86.7906 113.722L64.8535 111L64.6489 95.5101L86.7906 97.8611V113.722Z" fill="#979797"/>
<path d="M63.3765 138.34C64.6169 147.232 65.2435 156.572 65.7295 165.553L64.8983 164.656C73.4467 165.828 81.9888 167.116 90.4158 168.987C81.7906 168.609 73.2102 167.635 64.6489 166.552L63.8561 166.456L63.8177 165.656C63.3893 156.668 63.0441 147.322 63.3702 138.34H63.3765Z" fill="#979797"/>
<path d="M171.412 140.064C172.729 148.347 172.742 156.828 171.412 165.111C170.082 156.828 170.095 148.347 171.412 140.064Z" fill="#979797"/>
<path d="M187.064 161.075L211.374 152.696L211.808 184.387L187.608 193.63L187.064 161.075Z" fill="#979797"/>
<path d="M103.984 81.6092L77.814 79.1557V69.598L103.984 71.7953V81.6092Z" fill="white" stroke="#979797" stroke-width="1.8193" stroke-miterlimit="10"/>
<path d="M107.999 78.3101L104.808 82.474L104.533 71.065L107.89 69.4379L107.999 78.3101Z" fill="#979797"/>
<path d="M104.534 71.065L76.9189 68.6692L82.5838 67.5994L107.839 69.5019L104.534 71.065Z" fill="#979797"/>
<path d="M195.971 87.7525C195.971 87.7525 171.355 90.9811 169.028 105.542C166.637 120.513 169.859 130.051 169.859 130.051C169.859 130.051 169.347 119.411 156.573 107.163C145.933 96.9707 130.109 102.095 130.109 102.095C130.109 102.095 145.946 101.397 152.442 88.1625C159.284 74.2231 155.652 60.5848 155.652 60.5848C155.652 60.5848 154.795 69.8478 164.405 82.9288C173.133 94.8055 195.971 87.7461 195.971 87.7461V87.7525Z" fill="white"/>
<path d="M195.882 87.7717C195.882 87.7717 195.914 87.8486 195.952 87.8486C195.99 87.8486 195.952 87.8486 195.958 87.8486C195.735 87.887 195.319 87.9703 195.082 88.0152C186.617 89.9113 175.773 93.409 171.24 101.365C170.019 103.46 169.731 105.773 169.456 108.175C168.785 114.203 168.791 120.333 169.84 126.31C170.038 127.489 170.3 128.699 170.626 129.795L169.053 130.096C167.909 121.096 162.276 113.178 155.889 106.99C152.564 103.876 148.19 102.051 143.702 101.455C139.233 100.84 134.552 101.282 130.262 102.589L130.083 101.609C136.79 100.885 143.497 98.0661 148.101 93.0439C154.047 86.1574 155.863 76.446 155.543 67.5545C155.435 65.2996 155.153 62.987 154.667 60.8603L156.669 60.6937C156.675 68.3745 160.377 75.6516 164.616 81.8911C170.939 91.3463 185.306 90.0074 195.063 87.8871L195.504 87.7781L195.722 87.7205L195.83 87.6949C195.83 87.6949 195.888 87.6757 195.869 87.6885C195.85 87.6949 195.843 87.7653 195.875 87.7781L195.882 87.7717ZM196.067 87.7333C196.067 87.7333 196.022 87.8358 195.965 87.855L195.894 87.8806L195.786 87.9191C195.651 87.9639 195.274 88.0792 195.134 88.1241C185.53 90.821 171.956 92.4609 164.52 84.2805C159.571 77.9898 155.473 70.5845 154.686 62.4874C154.469 60.9628 155.006 55.6266 155.045 54.0379C155.646 56.5362 157.071 61.4432 157.289 63.8967C158.331 72.154 157.065 80.738 153.401 88.233C149.271 97.086 139.584 102.019 130.134 102.608L125.448 102.883L129.962 101.628C137.781 99.6036 146.605 99.9559 153.548 104.389C154.514 105.036 155.46 105.721 156.323 106.509C162.276 111.974 167.538 118.629 169.942 126.47C170.818 128.885 171.042 134.836 171.342 137.418L169.098 130.314C167.608 125.439 167.257 120.461 167.321 115.426C167.365 112.934 167.576 110.449 167.89 107.976C168.209 105.484 168.657 102.839 169.993 100.654C175.057 92.3392 186.419 89.0081 195.504 87.7013L195.735 87.6757L195.85 87.6628H195.907H195.939H195.978C196.022 87.6628 196.073 87.7141 196.073 87.7333H196.067Z" fill="#979797"/>
<path d="M112.218 161.959C112.218 161.959 118.862 167.859 124.987 166.572C126.125 166.335 128.625 165.803 129.673 165.47C133.069 164.381 140.875 161.191 143.522 158.782C150.127 152.773 154.954 145.624 153.618 133.959C152.333 122.742 144.987 113.293 135.677 109.148C134.967 108.835 133.887 108.104 133.069 108.091C133.069 108.091 121.547 107.714 115.613 107.867C110.076 108.015 110.102 108.694 110.102 108.694L112.225 161.953L112.218 161.959Z" fill="#979797"/>
<path d="M113.523 167.981C129.738 167.981 142.883 154.811 142.883 138.565C142.883 122.319 129.738 109.148 113.523 109.148C97.3076 109.148 84.1626 122.319 84.1626 138.565C84.1626 154.811 97.3076 167.981 113.523 167.981Z" fill="white" stroke="white" stroke-width="2.65207" stroke-miterlimit="10"/>
<path d="M112.903 164.15C126.989 164.15 138.408 152.709 138.408 138.597C138.408 124.484 126.989 113.043 112.903 113.043C98.8168 113.043 87.3979 124.484 87.3979 138.597C87.3979 152.709 98.8168 164.15 112.903 164.15Z" fill="white" stroke="#979797" stroke-width="1.92179" stroke-miterlimit="10"/>
<path d="M113.76 218.537L101.765 216.91L105.659 183.009L120 185.482L113.76 218.537Z" fill="#979797"/>
<path d="M135.249 218.537L147.244 216.91L143.35 187.865L129.009 185.482L135.249 218.537Z" fill="#979797"/>
<path d="M101.369 225.679C101.369 225.679 94.3739 227.236 94.3739 220.683C94.3739 220.683 93.287 216.314 98.7345 216.5C104.182 216.679 117.174 218.96 117.174 218.96C117.174 218.96 119.175 219.504 119.175 224.418C119.175 229.331 115.179 228.966 113.996 228.786C112.814 228.607 115.633 229.696 115.998 232.335C116.362 234.975 117.181 247.172 114.092 249.625H66.2221C66.2221 249.625 61.6825 246.71 61.6825 237.069C61.6825 237.069 61.1391 224.059 73.9458 224.238C73.9458 224.238 84.1183 223.328 85.4802 231.246C85.4802 231.246 85.9341 225.878 90.6591 225.878C95.3841 225.878 101.375 225.692 101.375 225.692L101.369 225.679Z" fill="white" stroke="#979797" stroke-width="2.56239" stroke-miterlimit="10"/>
<path d="M115.607 252.527C115.607 254.071 114.361 255.32 112.82 255.32H67.1681C65.6272 255.32 64.3804 254.071 64.3804 252.527C64.3804 250.983 65.6272 249.734 67.1681 249.734H112.82C114.361 249.734 115.607 250.983 115.607 252.527Z" fill="white" stroke="#979797" stroke-width="2.56239" stroke-miterlimit="10"/>
<path d="M147.135 225.679C147.135 225.679 154.13 227.236 154.13 220.683C154.13 220.683 155.217 216.314 149.77 216.5C144.322 216.685 131.33 218.96 131.33 218.96C131.33 218.96 129.329 219.504 129.329 224.418C129.329 229.331 133.325 228.966 134.508 228.786C135.69 228.607 132.871 229.696 132.506 232.335C132.142 234.975 131.323 247.172 134.412 249.625H182.275C182.275 249.625 186.815 246.71 186.815 237.069C186.815 237.069 187.359 224.059 174.552 224.238C174.552 224.238 164.379 223.328 163.017 231.246C163.017 231.246 162.563 225.878 157.838 225.878C153.113 225.878 147.122 225.692 147.122 225.692L147.135 225.679Z" fill="white" stroke="#979797" stroke-width="2.56239" stroke-miterlimit="10"/>
<path d="M132.896 252.527C132.896 254.071 134.143 255.32 135.684 255.32H181.335C182.876 255.32 184.123 254.071 184.123 252.527C184.123 250.983 182.876 249.734 181.335 249.734H135.684C134.143 249.734 132.896 250.983 132.896 252.527Z" fill="white" stroke="#979797" stroke-width="2.56239" stroke-miterlimit="10"/>
<path d="M186.335 158.936L211.815 150.198L211.616 146.886L186.22 154.996L186.335 158.936Z" fill="#979797"/>
<path d="M186.335 152.869L211.815 144.131L211.616 140.82L186.22 148.93L186.335 152.869Z" fill="#979797"/>
<path d="M186.559 146.245L211.617 138.257L211.975 136.528L186.252 144.381L186.559 146.245Z" fill="#979797"/>
<path d="M11.7275 67.8492C11.2735 69.8094 10.794 71.7632 10.34 73.717C9.57916 76.9841 11.3055 78.6689 13.3387 81.0134C19.1123 87.6693 30.1352 87.8486 37.0404 82.9352C38.901 81.6092 41.7143 79.4568 42.8076 77.4197C44.0928 75.0303 43.0058 70.5077 42.8907 67.8492H11.7275Z" fill="white" stroke="#979797" stroke-width="2.56239" stroke-miterlimit="10"/>
<path d="M9.17648 39.2145C9.17648 39.2145 9.34272 35.0058 8.16626 30.1244C6.98981 25.2431 5.47448 24.2309 4.97577 21.0343C4.4259 17.5623 3.15993 12.6938 4.71362 9.34345C6.38879 5.73048 10.3338 3.46277 14.234 3.45636C21.6252 3.45636 24.1315 11.451 24.1315 17.4982C24.1315 21.8735 23.9653 25.4032 23.9653 25.4096C24.1187 22.2387 25.3336 19.0485 26.4333 16.121C28.5113 10.567 31.5547 1.11818 39.2208 2.06626C42.6159 2.48906 46.1773 6.97324 46.2412 10.3364C46.3179 14.8334 44.4446 20.1695 42.3794 24.0964C40.9536 26.8061 39.9753 30.5088 38.6326 33.2569L37.5265 38.5226L32.4051 45.7294C32.4051 45.7294 35.5572 39.3682 27.3284 37.1838C19.0932 34.993 9.01024 39.7077 9.01024 39.7077" fill="white"/>
<path d="M9.17648 39.2145C9.17648 39.2145 9.34272 35.0058 8.16626 30.1244C6.98981 25.2431 5.47448 24.2309 4.97577 21.0343C4.4259 17.5623 3.15993 12.6938 4.71362 9.34345C6.38879 5.73048 10.3338 3.46277 14.234 3.45636C21.6252 3.45636 24.1315 11.451 24.1315 17.4982C24.1315 21.8735 23.9653 25.4032 23.9653 25.4096C24.1187 22.2387 25.3336 19.0485 26.4333 16.121C28.5113 10.567 31.5547 1.11818 39.2208 2.06626C42.6159 2.48906 46.1773 6.97324 46.2412 10.3364C46.3179 14.8334 44.4446 20.1695 42.3794 24.0964C40.9536 26.8061 39.9753 30.5088 38.6326 33.2569L37.5265 38.5226L32.4051 45.7294C32.4051 45.7294 35.5572 39.3682 27.3284 37.1838C19.0932 34.993 9.01024 39.7078 9.01024 39.7078" stroke="#979797" stroke-width="2.56239" stroke-miterlimit="10"/>
<path d="M48.6071 57.4523C48.6071 69.6172 38.0382 79.4824 25.0077 79.4824C11.9772 79.4824 1.40186 69.6236 1.40186 57.4523C1.40186 45.2809 11.9708 35.4221 25.0013 35.4221C30.3721 35.4221 35.3208 43.7499 39.285 46.5685C44.9499 50.5915 48.6007 50.2968 48.6007 57.4523H48.6071Z" fill="white" stroke="#979797" stroke-width="2.56239" stroke-miterlimit="10"/>
<path d="M20.5769 57.5035C20.5769 57.5035 31.9195 53.1603 31.7341 46.6005C31.5486 40.0408 32.2903 40.5981 31.0883 39.1184C29.6497 37.3503 28.9911 36.2485 26.7597 35.6271C24.3173 34.9481 21.8173 34.474 19.2726 34.8136C10.0272 36.0307 0.417341 46.6902 1.31247 56.2992C2.04775 64.2426 3.52472 68.4897 5.36612 70.3411C7.20753 72.186 12.8341 76.8047 15.4171 77.5478C18.0002 78.2845 21.4081 80.0397 24.1766 79.95C26.7277 79.8667 29.8223 78.7713 32.009 77.4389C36.7276 74.5626 36.3056 65.4277 32.5461 62.103" fill="white"/>
<path d="M20.5767 57.5035C24.6431 55.4857 30.9858 51.9047 31.1009 46.8312C30.9922 44.903 30.9858 42.7121 31.005 40.7711C30.9858 40.4636 30.9602 40.3355 30.8579 40.1754C29.9308 39.0671 28.9589 37.6194 27.6674 36.966C26.6252 36.4727 25.2122 36.2357 24.0357 36.0115C13.9016 34.0256 3.19202 44.6083 2.54625 54.4351C2.50789 56.6964 2.85315 58.9961 3.19842 61.219C3.70352 63.9736 4.27896 66.9267 5.92217 69.1816C7.45028 70.8408 9.25972 72.2693 11.0372 73.6594C12.3479 74.6395 13.6458 75.594 15.0717 76.2922C15.9604 76.6894 16.9706 76.9457 17.853 77.3236C20.3849 78.2909 22.7953 79.3799 25.2378 79.0148C27.7249 78.6945 30.3016 77.8489 32.3796 76.3883C36.1072 73.1533 35.8834 65.5943 32.5395 62.1094C35.6788 64.8704 36.4077 69.6941 35.3783 73.621C34.6686 76.5933 32.2709 78.4126 29.5152 79.4824C27.5459 80.2832 25.436 80.9238 23.2557 80.8085C20.0716 80.4882 17.2008 79.1365 14.2149 78.2204C10.7175 76.5421 7.76357 74.0694 4.87998 71.5326C4.47717 71.1611 4.02961 70.6806 3.70992 70.2322C1.22274 66.4399 0.743205 61.898 0.167765 57.542C-0.471612 53.2372 0.76878 48.753 3.00021 45.1336C6.504 39.3939 12.284 34.7751 19.0422 33.7566C22.3094 33.4171 25.5319 34.0192 28.5306 35.3325C29.8733 36.0371 30.762 37.3119 31.6188 38.4394C31.9321 38.8493 32.4372 39.4707 32.5267 40.0857C32.6162 42.4111 32.3029 44.5058 32.354 46.844C31.8937 52.5261 25.2569 55.7355 20.5767 57.4971V57.5035Z" fill="#979797"/>
<path d="M49.758 52.3659C48.5816 56.3761 43.4793 58.4132 38.3643 56.9014C33.2493 55.396 30.0588 50.9182 31.2352 46.9016L34.5153 35.736C35.6917 31.7259 40.7939 29.6888 45.909 31.2006C51.024 32.706 54.2145 37.1838 53.038 41.2003L49.758 52.3659Z" fill="white" stroke="#979797" stroke-width="2.56239" stroke-miterlimit="10"/>
<path d="M81.8355 110.801L67.7117 109.091L67.2705 98.1815L81.7908 99.9943L81.8355 110.801Z" fill="white"/>
<path d="M190.434 184.374C191.284 184.111 191.949 184.547 192.198 185.367C192.224 185.45 192.256 185.565 192.275 185.674C192.294 185.77 192.313 185.924 192.32 186.02C192.384 186.943 191.885 187.73 190.894 188.038L189.475 188.48L189.014 184.816L190.434 184.374ZM190.37 187.333L190.542 187.282C190.971 187.148 191.297 186.827 191.265 186.244C191.265 186.161 191.246 186.026 191.226 185.93C191.214 185.86 191.188 185.77 191.175 185.719C191.022 185.226 190.651 185.174 190.338 185.271L190.127 185.335L190.376 187.327L190.37 187.333Z" fill="white"/>
<path d="M195.472 186.622L193.042 187.372L192.582 183.708L195.012 182.958L195.114 183.797L193.688 184.239L193.765 184.861L195.101 184.444L195.197 185.187L193.854 185.604L193.931 186.225L195.363 185.783L195.466 186.622H195.472Z" fill="white"/>
<path d="M196.827 186.206L195.299 182.868L196.399 182.529L197.313 185.053L197.358 185.04L197.588 182.157L198.688 181.818L198.1 185.809L196.821 186.206H196.827Z" fill="white"/>
<path d="M199.072 183.15C198.957 182.221 199.398 181.536 200.299 181.254C201.169 180.985 201.93 181.305 202.192 182.151C202.23 182.266 202.269 182.401 202.281 182.535L202.339 183.041C202.441 183.964 202.026 184.656 201.111 184.937C200.248 185.207 199.487 184.886 199.232 184.047C199.193 183.925 199.155 183.778 199.136 183.65L199.078 183.15H199.072ZM200.152 183.362C200.165 183.477 200.191 183.586 200.216 183.669C200.318 184.009 200.568 184.214 200.913 184.105C201.207 184.015 201.367 183.714 201.303 183.15L201.258 182.798C201.239 182.683 201.214 182.574 201.194 182.497C201.092 182.157 200.843 181.952 200.497 182.061C200.203 182.151 200.044 182.446 200.114 183.009L200.159 183.362H200.152Z" fill="white"/>
<path d="M205.274 183.592L203.79 182.048L203.752 182.061L203.995 183.989L203.061 184.278L202.601 180.613L203.375 180.376L204.839 181.895L204.877 181.882L204.634 179.986L205.568 179.697L206.028 183.362L205.267 183.599L205.274 183.592Z" fill="white"/>
<path d="M209.155 182.394L206.725 183.144L206.265 179.48L208.694 178.73L208.797 179.569L207.371 180.011L207.448 180.633L208.784 180.216L208.88 180.959L207.537 181.376L207.614 181.997L209.046 181.555L209.148 182.394H209.155Z" fill="white"/>
<path d="M95.269 136.194C97.0785 150.672 100.569 153.99 113.805 159.25L113.792 159.57L111.58 159.448L109.38 159.186C101.458 157.962 95.333 153.273 94.3611 144.951C93.9775 141.992 94.1949 138.987 94.9621 136.111L95.269 136.201V136.194Z" fill="#979797"/>
<path d="M130.563 142.825C128.753 128.347 125.262 125.029 112.027 119.77L112.04 119.449L114.252 119.571L116.452 119.834C124.374 121.057 130.499 125.746 131.471 134.068C131.854 137.027 131.637 140.032 130.87 142.908L130.563 142.818V142.825Z" fill="#979797"/>
</svg>
