<svg width="213" height="264" viewBox="0 0 213 264" fill="none" xmlns="http://www.w3.org/2000/svg">
<path d="M53.0252 116.259C53.0252 116.259 33.1853 104.35 33.1661 83.0441C33.1661 83.0441 21.9834 77.0481 21.9834 83.3772C21.9834 89.7063 26.0307 126.919 54.2784 132.799L61.6568 129.045L53.0316 116.265L53.0252 116.259Z" fill="#070809" stroke="#231F20" stroke-width="1.8193" stroke-miterlimit="10"/>
<path d="M11.7275 67.8491C11.2735 69.8093 10.794 71.7632 10.34 73.717C9.57916 76.984 11.3055 78.6688 13.3387 81.0134C19.1123 87.6692 30.1351 87.8486 37.0404 82.9352C38.901 81.6091 41.7143 79.4567 42.8076 77.4196C44.0928 75.0302 43.0058 70.5076 42.8907 67.8491H11.7275Z" fill="white" stroke="#231F20" stroke-width="2.56239" stroke-miterlimit="10"/>
<path d="M9.17697 39.2145C9.17697 39.2145 9.3432 35.0058 8.16675 30.1244C6.9903 25.2431 5.47497 24.2309 4.97626 21.0343C4.42639 17.5623 3.16042 12.6938 4.71411 9.34345C6.38928 5.73048 10.3342 3.46277 14.2344 3.45636C21.6257 3.45636 24.132 11.451 24.132 17.4982C24.132 21.8735 23.9658 25.4032 23.9658 25.4096C24.1192 22.2387 25.334 19.0485 26.4338 16.121C28.5117 10.567 31.5552 1.11818 39.2213 2.06626C42.6164 2.48906 46.1778 6.97324 46.2417 10.3364C46.3184 14.8334 44.445 20.1695 42.3799 24.0964C40.954 26.8061 39.9758 30.5088 38.6331 33.2569L37.527 38.5226L32.4056 45.7294C32.4056 45.7294 35.5577 39.3682 27.3289 37.1838C19.1001 34.9994 9.01073 39.7077 9.01073 39.7077" fill="white"/>
<path d="M9.17697 39.2145C9.17697 39.2145 9.34321 35.0058 8.16675 30.1244C6.9903 25.2431 5.47497 24.2309 4.97626 21.0343C4.42639 17.5623 3.16042 12.6938 4.71411 9.34345C6.38928 5.73048 10.3342 3.46277 14.2344 3.45636C21.6257 3.45636 24.132 11.451 24.132 17.4982C24.132 21.8735 23.9658 25.4032 23.9658 25.4096C24.1192 22.2387 25.334 19.0485 26.4338 16.121C28.5117 10.567 31.5552 1.11818 39.2213 2.06626C42.6164 2.48906 46.1778 6.97324 46.2417 10.3364C46.3184 14.8334 44.445 20.1695 42.3799 24.0964C40.954 26.8061 39.9758 30.5088 38.6331 33.2569L37.527 38.5226L32.4056 45.7294C32.4056 45.7294 35.5577 39.3682 27.3289 37.1838C19.1001 34.9994 9.01073 39.7078 9.01073 39.7078" stroke="#231F20" stroke-width="2.56239" stroke-miterlimit="10"/>
<path d="M48.6071 57.4523C48.6071 69.6172 38.0382 79.4824 25.0077 79.4824C11.9772 79.4824 1.40186 69.6236 1.40186 57.4523C1.40186 45.2809 11.9708 35.4221 25.0013 35.4221C30.3721 35.4221 35.3208 43.7499 39.285 46.5685C44.9499 50.5915 48.6007 50.2968 48.6007 57.4523H48.6071Z" fill="white" stroke="#231F20" stroke-width="2.56239" stroke-miterlimit="10"/>
<path d="M20.5764 57.5035C20.5764 57.5035 31.919 53.1603 31.7336 46.6005C31.5482 40.0408 32.2898 40.5981 31.0878 39.1184C29.6492 37.3503 28.9906 36.2485 26.7592 35.6271C24.3168 34.9481 21.8168 34.474 19.2721 34.8136C10.0267 36.0307 0.416853 46.6902 1.31198 56.2992C2.04727 64.2426 3.52423 68.4897 5.36564 70.3411C7.20704 72.186 12.8336 76.8047 15.4167 77.5478C17.9997 78.2845 21.4076 80.0397 24.1761 79.95C26.7272 79.8667 29.8218 78.7713 32.0085 77.4389C36.7271 74.5626 36.3051 65.4277 32.5456 62.103" fill="white"/>
<path d="M20.5767 57.5035C24.6431 55.4856 30.9858 51.9047 31.1009 46.8312C30.9922 44.903 30.9858 42.7121 31.0049 40.7711C30.9858 40.4636 30.9602 40.3355 30.8579 40.1754C29.9308 39.0671 28.9589 37.6194 27.6674 36.966C26.6252 36.4727 25.2122 36.2357 24.0357 36.0115C13.9016 34.0256 3.19202 44.6083 2.54625 54.4351C2.50789 56.6964 2.85315 58.9961 3.19842 61.219C3.70352 63.9736 4.27896 66.9267 5.92216 69.1816C7.45028 70.8408 9.25972 72.2693 11.0372 73.6594C12.3479 74.6395 13.6458 75.594 15.0717 76.2922C15.9604 76.6894 16.9706 76.9457 17.853 77.3236C20.3849 78.2909 22.7953 79.3799 25.2378 79.0148C27.7249 78.6945 30.3016 77.8489 32.3796 76.3883C36.1072 73.1533 35.8834 65.5943 32.5395 62.1094C35.6788 64.8704 36.4077 69.6941 35.3783 73.621C34.6686 76.5933 32.2709 78.4126 29.5152 79.4824C27.5459 80.2832 25.436 80.9238 23.2557 80.8084C20.0716 80.4882 17.2008 79.1365 14.2149 78.2204C10.7175 76.5421 7.76357 74.0694 4.87998 71.5326C4.47717 71.1611 4.02961 70.6806 3.70992 70.2322C1.22274 66.4399 0.743205 61.898 0.167765 57.542C-0.471612 53.2372 0.76878 48.753 3.00021 45.1336C6.504 39.3939 12.284 34.7751 19.0422 33.7566C22.3094 33.4171 25.5319 34.0192 28.5306 35.3325C29.8733 36.0371 30.762 37.3119 31.6188 38.4394C31.932 38.8493 32.4372 39.4707 32.5267 40.0857C32.6162 42.4111 32.3029 44.5058 32.354 46.844C31.8937 52.5261 25.2569 55.7355 20.5767 57.4971V57.5035Z" fill="#231F20"/>
<path d="M49.758 52.3659C48.5816 56.3761 43.4793 58.4132 38.3643 56.9014C33.2493 55.396 30.0588 50.9182 31.2352 46.9016L34.5153 35.736C35.6917 31.7259 40.7939 29.6888 45.909 31.2006C51.024 32.706 54.2145 37.1838 53.038 41.2003L49.758 52.3659Z" fill="white" stroke="#231F20" stroke-width="2.56239" stroke-miterlimit="10"/>
<path d="M125.429 264C168.636 264 203.663 259.658 203.663 254.301C203.663 248.945 168.636 244.603 125.429 244.603C82.221 244.603 47.1943 248.945 47.1943 254.301C47.1943 259.658 82.221 264 125.429 264Z" fill="#070809"/>
<path d="M185.415 193.842L55.218 176.245L53.4214 84.6136L185.415 97.701V193.842Z" stroke="#231F20" stroke-width="2.42146" stroke-miterlimit="10"/>
<path d="M212 184.367L187.211 193.848L185.415 97.701L211.399 87.6244L212 184.367Z" fill="white" stroke="#231F20" stroke-width="1.92179" stroke-miterlimit="10"/>
<path d="M185.268 97.195L56.8677 83.0762L88.1077 75.1328L208.873 87.2017L185.268 97.195Z" fill="white" stroke="#231F20" stroke-width="1.92179" stroke-miterlimit="10"/>
<path d="M185.415 193.842L55.218 176.245L53.4214 84.6136L185.415 97.701V193.842Z" fill="white" stroke="#231F20" stroke-width="2.56239" stroke-miterlimit="10"/>
<path d="M86.7911 113.722L64.854 111L64.6494 95.5101L86.7911 97.8611V113.722Z" fill="#231F20"/>
<path d="M63.3767 138.34C64.6171 147.232 65.2437 156.572 65.7296 165.553L64.8984 164.656C73.4469 165.828 81.989 167.116 90.416 168.987C81.7908 168.609 73.2103 167.635 64.6491 166.552L63.8562 166.456L63.8179 165.656C63.3895 156.668 63.0506 147.322 63.3703 138.34H63.3767Z" fill="#231F20"/>
<path d="M171.412 140.064C172.729 148.347 172.742 156.828 171.412 165.111C170.082 156.828 170.095 148.347 171.412 140.064Z" fill="#231F20"/>
<path d="M187.064 161.075L211.373 152.696L211.808 184.387L187.607 193.63L187.064 161.075Z" fill="#231F20"/>
<path d="M103.983 81.6092L77.8135 79.1557V69.598L103.983 71.7953V81.6092Z" fill="white" stroke="#231F20" stroke-width="1.8193" stroke-miterlimit="10"/>
<path d="M107.999 78.3101L104.809 82.474L104.534 71.065L107.89 69.4379L107.999 78.3101Z" fill="#231F20"/>
<path d="M104.534 71.065L76.9189 68.6692L82.5838 67.5994L107.839 69.5019L104.534 71.065Z" fill="#070809"/>
<path d="M195.971 87.7526C195.971 87.7526 171.355 90.9812 169.027 105.542C166.636 120.513 169.859 130.051 169.859 130.051C169.859 130.051 169.347 119.411 156.572 107.163C145.933 96.9708 130.108 102.096 130.108 102.096C130.108 102.096 145.946 101.397 152.442 88.1625C159.283 74.2232 155.652 60.5848 155.652 60.5848C155.652 60.5848 154.795 69.8479 164.405 82.9289C173.132 94.8055 195.971 87.7462 195.971 87.7462V87.7526Z" fill="#F7CE15"/>
<path d="M195.849 87.7782C195.849 87.8102 195.894 87.8807 195.945 87.8807C196.003 87.8807 195.952 87.8807 195.964 87.8807C195.945 87.8807 195.9 87.8935 195.881 87.8935L195.766 87.9127L195.542 87.9576C187.096 89.8537 175.933 93.5372 171.457 101.474C170.261 103.556 169.993 105.811 169.724 108.194C169.078 114.196 169.091 120.295 170.121 126.246C170.312 127.418 170.568 128.629 170.882 129.692L168.784 130.09C167.672 121.134 162.16 113.242 155.818 107.047C152.512 103.947 148.164 102.108 143.695 101.519C139.252 100.936 134.578 101.404 130.319 102.723L130.083 101.417C136.726 100.654 143.363 97.8228 147.902 92.8325C152.352 87.7526 154.302 80.9174 155.038 74.3129C155.447 69.8799 155.319 65.2612 154.341 60.9308L157.007 60.7066C157.007 68.3233 160.69 75.498 164.833 81.7118C171.009 91.1157 185.389 89.8281 195.05 87.8295L195.491 87.727L195.709 87.6757L195.817 87.6501C195.824 87.6501 195.875 87.6309 195.849 87.6501C195.817 87.6629 195.804 87.7526 195.843 87.7782H195.849ZM196.099 87.7206C196.099 87.7526 196.054 87.8551 195.983 87.8807C195.945 87.8935 195.836 87.932 195.798 87.9448C195.664 87.9896 195.287 88.1113 195.146 88.1562C186.291 90.6993 175.447 92.1983 167.237 86.9967C165.102 85.6322 163.484 83.499 162.052 81.4491C159.213 77.3749 156.834 72.9292 155.434 68.1183C154.724 65.6071 154.213 63.1216 154.309 60.4632L154.827 51.8792C155.466 54.5633 157.416 61.2511 157.634 63.8519C158.689 72.1733 157.384 80.8149 153.676 88.3611C150.568 94.9977 144.143 99.6485 137.186 101.564C133.318 102.826 127.947 102.883 123.881 103.114L129.91 101.474C138.855 99.1936 149.283 100.071 156.393 106.439C162.8 112.294 168.561 119.539 170.645 128.149C171.022 129.526 171.572 137.943 171.745 139.481L168.842 130.41C167.32 125.484 166.969 120.506 167.039 115.433C167.09 112.928 167.295 110.436 167.627 107.957C167.96 105.439 168.426 102.755 169.782 100.552C174.89 92.1599 186.335 88.9057 195.498 87.6821L195.728 87.6565L195.843 87.6437H195.9L195.932 87.6373H195.977C196.035 87.6373 196.099 87.7013 196.105 87.7334L196.099 87.7206Z" fill="#231F20"/>
<path d="M112.218 161.959C112.218 161.959 118.862 167.859 124.987 166.572C126.125 166.335 128.625 165.803 129.673 165.47C133.069 164.381 140.875 161.191 143.522 158.782C150.127 152.773 154.954 145.624 153.618 133.959C152.333 122.742 144.987 113.293 135.677 109.149C134.967 108.835 133.887 108.104 133.069 108.092C133.069 108.092 121.547 107.714 115.613 107.867C110.076 108.015 110.102 108.694 110.102 108.694L112.225 161.953L112.218 161.959Z" fill="#231F20"/>
<path d="M113.523 167.981C129.738 167.981 142.883 154.811 142.883 138.565C142.883 122.319 129.738 109.148 113.523 109.148C97.3076 109.148 84.1626 122.319 84.1626 138.565C84.1626 154.811 97.3076 167.981 113.523 167.981Z" fill="white" stroke="#231F20" stroke-width="2.65207" stroke-miterlimit="10"/>
<path d="M112.903 164.15C126.989 164.15 138.408 152.71 138.408 138.597C138.408 124.484 126.989 113.043 112.903 113.043C98.8173 113.043 87.3984 124.484 87.3984 138.597C87.3984 152.71 98.8173 164.15 112.903 164.15Z" fill="white" stroke="#231F20" stroke-width="1.92179" stroke-miterlimit="10"/>
<path d="M113.76 218.537L101.765 216.91L105.659 183.009L120 185.482L113.76 218.537Z" fill="#231F20"/>
<path d="M135.249 218.537L147.244 216.91L143.35 187.865L129.009 185.482L135.249 218.537Z" fill="#231F20"/>
<path d="M101.368 225.679C101.368 225.679 94.3734 227.236 94.3734 220.683C94.3734 220.683 93.2865 216.314 98.734 216.5C104.181 216.685 117.174 218.96 117.174 218.96C117.174 218.96 119.175 219.504 119.175 224.417C119.175 229.331 115.179 228.966 113.996 228.786C112.813 228.607 115.633 229.696 115.997 232.335C116.362 234.974 117.18 247.171 114.092 249.625H66.2216C66.2216 249.625 61.682 246.71 61.682 237.069C61.682 237.069 61.1386 224.059 73.9453 224.238C73.9453 224.238 84.1178 223.328 85.4797 231.246C85.4797 231.246 85.9336 225.878 90.6586 225.878C95.3836 225.878 101.375 225.692 101.375 225.692L101.368 225.679Z" fill="white" stroke="#231F20" stroke-width="2.56239" stroke-miterlimit="10"/>
<path d="M115.608 252.527C115.608 254.071 114.361 255.32 112.82 255.32H67.1685C65.6276 255.32 64.3809 254.071 64.3809 252.527C64.3809 250.983 65.6276 249.734 67.1685 249.734H112.82C114.361 249.734 115.608 250.983 115.608 252.527Z" fill="white" stroke="#231F20" stroke-width="2.56239" stroke-miterlimit="10"/>
<path d="M147.135 225.679C147.135 225.679 154.13 227.236 154.13 220.683C154.13 220.683 155.217 216.314 149.77 216.5C144.322 216.679 131.33 218.96 131.33 218.96C131.33 218.96 129.329 219.504 129.329 224.417C129.329 229.331 133.325 228.966 134.508 228.786C135.69 228.607 132.871 229.696 132.506 232.335C132.142 234.974 131.323 247.171 134.412 249.625H182.275C182.275 249.625 186.815 246.71 186.815 237.069C186.815 237.069 187.359 224.059 174.552 224.238C174.552 224.238 164.379 223.328 163.017 231.246C163.017 231.246 162.563 225.878 157.838 225.878C153.113 225.878 147.122 225.692 147.122 225.692L147.135 225.679Z" fill="white" stroke="#231F20" stroke-width="2.56239" stroke-miterlimit="10"/>
<path d="M132.896 252.527C132.896 254.071 134.143 255.32 135.684 255.32H181.335C182.876 255.32 184.123 254.071 184.123 252.527C184.123 250.983 182.876 249.734 181.335 249.734H135.684C134.143 249.734 132.896 250.983 132.896 252.527Z" fill="white" stroke="#231F20" stroke-width="2.56239" stroke-miterlimit="10"/>
<path d="M186.335 158.936L211.815 150.198L211.616 146.886L186.22 154.996L186.335 158.936Z" fill="#231F20"/>
<path d="M186.335 152.869L211.815 144.131L211.616 140.82L186.22 148.93L186.335 152.869Z" fill="#231F20"/>
<path d="M186.559 146.245L211.617 138.257L211.975 136.528L186.252 144.381L186.559 146.245Z" fill="#231F20"/>
<path d="M81.8355 110.801L67.7117 109.091L67.2705 98.1814L81.7908 99.9943L81.8355 110.801Z" fill="white"/>
<path d="M191.073 184.374C191.924 184.111 192.589 184.547 192.838 185.367C192.863 185.45 192.895 185.565 192.915 185.674C192.934 185.77 192.953 185.924 192.959 186.02C193.023 186.943 192.525 187.731 191.534 188.038L190.114 188.48L189.654 184.816L191.073 184.374ZM191.009 187.333L191.182 187.282C191.61 187.148 191.936 186.827 191.904 186.244C191.904 186.161 191.885 186.027 191.866 185.93C191.853 185.86 191.828 185.77 191.815 185.719C191.661 185.226 191.291 185.175 190.977 185.271L190.766 185.335L191.016 187.327L191.009 187.333Z" fill="#F7CE15"/>
<path d="M196.111 186.622L193.682 187.372L193.221 183.708L195.651 182.958L195.753 183.797L194.327 184.239L194.404 184.861L195.74 184.444L195.836 185.187L194.494 185.604L194.57 186.225L196.002 185.783L196.105 186.622H196.111Z" fill="#F7CE15"/>
<path d="M197.467 186.206L195.939 182.868L197.039 182.529L197.953 185.053L197.998 185.04L198.228 182.157L199.328 181.818L198.739 185.809L197.461 186.206H197.467Z" fill="#F7CE15"/>
<path d="M199.711 183.15C199.596 182.221 200.037 181.536 200.939 181.254C201.808 180.985 202.569 181.305 202.831 182.151C202.87 182.266 202.908 182.401 202.921 182.535L202.979 183.041C203.081 183.964 202.665 184.656 201.751 184.938C200.888 185.207 200.127 184.886 199.871 184.047C199.833 183.925 199.794 183.778 199.775 183.65L199.718 183.15H199.711ZM200.792 183.362C200.805 183.477 200.83 183.586 200.856 183.669C200.958 184.009 201.207 184.214 201.553 184.105C201.847 184.015 202.007 183.714 201.943 183.15L201.898 182.798C201.879 182.683 201.853 182.574 201.834 182.497C201.732 182.157 201.482 181.952 201.137 182.061C200.843 182.151 200.683 182.446 200.754 183.009L200.798 183.362H200.792Z" fill="#F7CE15"/>
<path d="M205.913 183.592L204.43 182.048L204.392 182.061L204.635 183.989L203.701 184.278L203.241 180.614L204.014 180.377L205.479 181.895L205.517 181.882L205.274 179.986L206.207 179.698L206.668 183.362L205.907 183.599L205.913 183.592Z" fill="#F7CE15"/>
<path d="M209.794 182.388L207.364 183.137L206.904 179.473L209.333 178.724L209.436 179.563L208.01 180.005L208.087 180.626L209.423 180.21L209.519 180.953L208.176 181.369L208.253 181.991L209.685 181.549L209.787 182.388H209.794Z" fill="#F7CE15"/>
<path d="M95.2686 136.194C97.078 150.672 100.569 153.99 113.804 159.25L113.791 159.57L111.579 159.448L109.38 159.185C101.458 157.962 95.3325 153.273 94.3606 144.951C93.977 141.992 94.1944 138.987 94.9617 136.111L95.2686 136.201V136.194Z" fill="#231F20"/>
<path d="M130.562 142.825C128.753 128.347 125.262 125.029 112.027 119.77L112.04 119.449L114.252 119.571L116.451 119.834C124.373 121.057 130.498 125.746 131.47 134.068C131.854 137.027 131.637 140.032 130.869 142.908L130.562 142.818V142.825Z" fill="#231F20"/>
</svg>
