<svg width="50" height="50" viewBox="0 0 50 50" fill="none" xmlns="http://www.w3.org/2000/svg">
<circle cx="25" cy="25" r="25" fill="#DBDBDB"/>
<path d="M15.6297 23.4996C15.6297 23.4996 13.0131 21.9319 13.0105 19.1272C13.0105 19.1272 11.5356 18.3379 11.5356 19.1711C11.5356 20.0042 12.0694 24.9028 15.795 25.6769L16.7681 25.1828L15.6306 23.5004L15.6297 23.4996Z" fill="#979797" stroke="#979797" stroke-width="0.239489" stroke-miterlimit="10"/>
<path d="M25.2635 42.948C30.9621 42.948 35.5818 42.3764 35.5818 41.6712C35.5818 40.9661 30.9621 40.3945 25.2635 40.3945C19.5649 40.3945 14.9453 40.9661 14.9453 41.6712C14.9453 42.3764 19.5649 42.948 25.2635 42.948Z" fill="#979797"/>
<path d="M33.0901 33.7125L15.9186 31.396L15.6816 19.3339L33.0901 21.0567V33.7125Z" stroke="#231F20" stroke-width="0.318756" stroke-miterlimit="10"/>
<path d="M36.5971 32.4653L33.3548 33.6509L33.0908 21.0567L36.5179 19.7302L36.5971 32.4653Z" fill="white" stroke="#979797" stroke-width="0.252981" stroke-miterlimit="10"/>
<path d="M33.0712 20.99L16.1367 19.1315L20.2569 18.0858L36.1846 19.6745L33.0712 20.99Z" fill="white" stroke="#979797" stroke-width="0.252981" stroke-miterlimit="10"/>
<path d="M33.0901 33.7125L15.9186 31.396L15.6816 19.3339L33.0901 21.0567V33.7125Z" fill="white" stroke="#979797" stroke-width="0.337308" stroke-miterlimit="10"/>
<path d="M20.0833 23.1657L17.1901 22.8073L17.1631 20.7683L20.0833 21.0778V23.1657Z" fill="#979797"/>
<path d="M16.9949 26.4064C17.1585 27.5768 17.2411 28.8063 17.3052 29.9886L17.1956 29.8705C18.323 30.0248 19.4497 30.1943 20.5611 30.4406C19.4235 30.3908 18.2918 30.2626 17.1627 30.1201L17.0581 30.1075L17.0531 30.0021C16.9966 28.819 16.9511 27.5886 16.9941 26.4064H16.9949Z" fill="#979797"/>
<path d="M31.2437 26.6333C31.4174 27.7236 31.4191 28.8401 31.2437 29.9305C31.0683 28.8401 31.07 27.7236 31.2437 26.6333Z" fill="#979797"/>
<path d="M33.3081 29.3991L36.5142 28.2961L36.5716 32.4678L33.3798 33.6846L33.3081 29.3991Z" fill="#979797"/>
<path d="M22.3504 18.9384L18.8989 18.6155V17.3573L22.3504 17.6465V18.9384Z" fill="white" stroke="#979797" stroke-width="0.239489" stroke-miterlimit="10"/>
<path d="M22.8804 18.5041L22.4596 19.0522L22.4233 17.5504L22.8661 17.3362L22.8804 18.5041Z" fill="#979797"/>
<path d="M22.4233 17.5503L18.7812 17.2349L19.5284 17.0941L22.8593 17.3446L22.4233 17.5503Z" fill="#979797"/>
<path d="M34.4824 19.747C34.4824 19.747 31.2358 20.172 30.9289 22.0887C30.6135 24.0595 31.0385 25.3151 31.0385 25.3151C31.0385 25.3151 30.971 23.9144 29.2862 22.3021C27.883 20.9604 25.7959 21.635 25.7959 21.635C25.7959 21.635 27.8847 21.5431 28.7414 19.8009C29.6437 17.966 29.1648 16.1707 29.1648 16.1707C29.1648 16.1707 29.0518 17.39 30.3192 19.112C31.4703 20.6754 34.4824 19.7461 34.4824 19.7461V19.747Z" fill="white"/>
<path d="M34.4706 19.7496C34.4706 19.7496 34.4748 19.7597 34.4799 19.7597C34.4849 19.7597 34.4799 19.7597 34.4807 19.7597C34.4512 19.7648 34.3964 19.7758 34.3652 19.7817C33.2487 20.0313 31.8185 20.4917 31.2206 21.539C31.0596 21.8148 31.0216 22.1192 30.9854 22.4354C30.8968 23.229 30.8977 24.036 31.036 24.8227C31.0621 24.9779 31.0967 25.1373 31.1397 25.2815L30.9322 25.3211C30.7813 24.1363 30.0384 23.094 29.196 22.2794C28.7575 21.8696 28.1807 21.6293 27.5887 21.5508C26.9992 21.4699 26.382 21.5281 25.8161 21.7001L25.7925 21.5711C26.6771 21.4758 27.5617 21.1048 28.1689 20.4436C28.9531 19.5371 29.1926 18.2587 29.1504 17.0883C29.1361 16.7914 29.099 16.487 29.0349 16.207L29.2988 16.1851C29.2997 17.1962 29.7879 18.1542 30.347 18.9755C31.181 20.2202 33.0758 20.0439 34.3627 19.7648L34.4208 19.7505L34.4495 19.7429L34.4639 19.7395C34.4639 19.7395 34.4714 19.737 34.4689 19.7387C34.4664 19.7395 34.4655 19.7488 34.4698 19.7505L34.4706 19.7496ZM34.4951 19.7446C34.4951 19.7446 34.4891 19.7581 34.4816 19.7606L34.4723 19.764L34.4579 19.769C34.4402 19.7749 34.3905 19.7901 34.3719 19.796C33.1053 20.151 31.3151 20.3669 30.3344 19.29C29.6817 18.4619 29.1411 17.4871 29.0374 16.4212C29.0087 16.2205 29.0796 15.5181 29.0846 15.309C29.1639 15.6378 29.352 16.2838 29.3806 16.6068C29.5181 17.6937 29.3511 18.8237 28.8679 19.8103C28.3232 20.9757 27.0456 21.6251 25.7993 21.7026L25.1812 21.7389L25.7765 21.5736C26.8078 21.3071 27.9715 21.3535 28.8873 21.9371C29.0147 22.0222 29.1395 22.1125 29.2533 22.2162C30.0384 22.9355 30.7324 23.8117 31.0495 24.8438C31.165 25.1617 31.1945 25.9451 31.2341 26.285L30.9381 25.3498C30.7417 24.7081 30.6953 24.0528 30.7037 23.39C30.7096 23.062 30.7374 22.7348 30.7788 22.4093C30.8209 22.0813 30.88 21.733 31.0562 21.4454C31.7241 20.3509 33.2226 19.9124 34.4208 19.7403L34.4512 19.737L34.4664 19.7353H34.474H34.4782H34.4832C34.4891 19.7353 34.4959 19.742 34.4959 19.7446H34.4951Z" fill="#979797"/>
<path d="M23.4368 29.5156C23.4368 29.5156 24.313 30.2922 25.1208 30.1227C25.2709 30.0915 25.6007 30.0215 25.739 29.9777C26.1867 29.8343 27.2164 29.4144 27.5655 29.0973C28.4366 28.3063 29.0732 27.3652 28.897 25.8296C28.7275 24.3531 27.7586 23.1092 26.5308 22.5636C26.4372 22.5223 26.2947 22.4262 26.1867 22.4245C26.1867 22.4245 24.6672 22.3747 23.8846 22.395C23.1543 22.4144 23.1577 22.5038 23.1577 22.5038L23.4377 29.5147L23.4368 29.5156Z" fill="#979797"/>
<path d="M23.6086 30.3082C25.7472 30.3082 27.4809 28.5745 27.4809 26.4359C27.4809 24.2973 25.7472 22.5636 23.6086 22.5636C21.47 22.5636 19.7363 24.2973 19.7363 26.4359C19.7363 28.5745 21.47 30.3082 23.6086 30.3082Z" fill="white" stroke="white" stroke-width="0.349114" stroke-miterlimit="10"/>
<path d="M23.5274 29.8039C25.3851 29.8039 26.8912 28.2979 26.8912 26.4401C26.8912 24.5823 25.3851 23.0763 23.5274 23.0763C21.6696 23.0763 20.1636 24.5823 20.1636 26.4401C20.1636 28.2979 21.6696 29.8039 23.5274 29.8039Z" fill="white" stroke="#979797" stroke-width="0.252981" stroke-miterlimit="10"/>
<path d="M23.6401 36.9633L22.0581 36.7491L22.5717 32.2865L24.4631 32.612L23.6401 36.9633Z" fill="#979797"/>
<path d="M26.4744 36.9633L28.0564 36.7491L27.5428 32.9258L25.6514 32.6121L26.4744 36.9633Z" fill="#979797"/>
<path d="M22.0056 37.9035C22.0056 37.9035 21.0831 38.1084 21.0831 37.2457C21.0831 37.2457 20.9397 36.6706 21.6582 36.6951C22.3766 36.7187 24.0902 37.0189 24.0902 37.0189C24.0902 37.0189 24.3541 37.0906 24.3541 37.7374C24.3541 38.3842 23.8271 38.3361 23.6711 38.3125C23.5151 38.2889 23.8869 38.4322 23.935 38.7797C23.9831 39.1271 24.091 40.7327 23.6837 41.0556H17.3702C17.3702 41.0556 16.7714 40.672 16.7714 39.4028C16.7714 39.4028 16.6998 37.6902 18.3888 37.7138C18.3888 37.7138 19.7305 37.594 19.9101 38.6363C19.9101 38.6363 19.97 37.9296 20.5931 37.9296C21.2163 37.9296 22.0064 37.9052 22.0064 37.9052L22.0056 37.9035Z" fill="white" stroke="#979797" stroke-width="0.337308" stroke-miterlimit="10"/>
<path d="M23.8837 41.4377C23.8837 41.641 23.7193 41.8054 23.516 41.8054H17.4951C17.2919 41.8054 17.1274 41.641 17.1274 41.4377C17.1274 41.2345 17.2919 41.0701 17.4951 41.0701H23.516C23.7193 41.0701 23.8837 41.2345 23.8837 41.4377V41.4377Z" fill="white" stroke="#979797" stroke-width="0.337308" stroke-miterlimit="10"/>
<path d="M28.0419 37.9035C28.0419 37.9035 28.9644 38.1084 28.9644 37.2457C28.9644 37.2457 29.1078 36.6706 28.3893 36.6951C27.6708 36.7195 25.9573 37.0189 25.9573 37.0189C25.9573 37.0189 25.6934 37.0906 25.6934 37.7374C25.6934 38.3842 26.2204 38.3361 26.3764 38.3125C26.5324 38.2889 26.1605 38.4322 26.1125 38.7797C26.0644 39.1271 25.9565 40.7327 26.3638 41.0556H32.6765C32.6765 41.0556 33.2752 40.672 33.2752 39.4028C33.2752 39.4028 33.3469 37.6902 31.6578 37.7138C31.6578 37.7138 30.3162 37.594 30.1365 38.6363C30.1365 38.6363 30.0767 37.9296 29.4535 37.9296C28.8303 37.9296 28.0402 37.9052 28.0402 37.9052L28.0419 37.9035Z" fill="white" stroke="#979797" stroke-width="0.337308" stroke-miterlimit="10"/>
<path d="M26.1641 41.4377C26.1641 41.641 26.3285 41.8054 26.5317 41.8054H32.5527C32.7559 41.8054 32.9203 41.641 32.9203 41.4377C32.9203 41.2345 32.7559 41.0701 32.5527 41.0701H26.5317C26.3285 41.0701 26.1641 41.2345 26.1641 41.4377V41.4377Z" fill="white" stroke="#979797" stroke-width="0.337308" stroke-miterlimit="10"/>
<path d="M33.212 29.1176L36.5724 27.9673L36.5462 27.5314L33.1968 28.599L33.212 29.1176Z" fill="#979797"/>
<path d="M33.212 28.319L36.5724 27.1688L36.5462 26.7328L33.1968 27.8004L33.212 28.319Z" fill="#979797"/>
<path d="M33.2412 27.447L36.5459 26.3954L36.5932 26.1677L33.2007 27.2016L33.2412 27.447Z" fill="#979797"/>
<path d="M10.1832 17.1271C10.1234 17.3851 10.0601 17.6423 10.0002 17.8995C9.8999 18.3296 10.1276 18.5514 10.3957 18.86C11.1572 19.7362 12.611 19.7598 13.5217 19.113C13.7671 18.9384 14.1382 18.6551 14.2824 18.3869C14.4519 18.0724 14.3085 17.477 14.2933 17.1271H10.1832Z" fill="white" stroke="#979797" stroke-width="0.337308" stroke-miterlimit="10"/>
<path d="M9.84677 13.3576C9.84677 13.3576 9.86869 12.8036 9.71353 12.161C9.55837 11.5184 9.35851 11.3852 9.29274 10.9644C9.22022 10.5073 9.05325 9.86645 9.25817 9.42542C9.4791 8.94981 9.9994 8.6513 10.5138 8.65045C11.4886 8.65045 11.8192 9.70285 11.8192 10.4989C11.8192 11.0749 11.7972 11.5395 11.7972 11.5403C11.8175 11.1229 11.9777 10.703 12.1227 10.3176C12.3968 9.58648 12.7982 8.34266 13.8093 8.46746C14.2571 8.52312 14.7268 9.11341 14.7352 9.55613C14.7453 10.1481 14.4982 10.8505 14.2259 11.3675C14.0378 11.7242 13.9088 12.2116 13.7317 12.5733L13.5858 13.2665L12.9104 14.2152C12.9104 14.2152 13.3261 13.3778 12.2408 13.0903C11.1547 12.8019 9.82484 13.4225 9.82484 13.4225" fill="white"/>
<path d="M9.84677 13.3576C9.84677 13.3576 9.86869 12.8036 9.71353 12.161C9.55837 11.5184 9.35851 11.3852 9.29274 10.9644C9.22022 10.5073 9.05325 9.86645 9.25817 9.42542C9.4791 8.94981 9.9994 8.6513 10.5138 8.65045C11.4886 8.65045 11.8192 9.70285 11.8192 10.4989C11.8192 11.0749 11.7972 11.5395 11.7972 11.5403C11.8175 11.1229 11.9777 10.703 12.1227 10.3176C12.3968 9.58648 12.7982 8.34266 13.8093 8.46746C14.2571 8.52312 14.7268 9.11341 14.7352 9.55613C14.7453 10.1481 14.4982 10.8505 14.2259 11.3675C14.0378 11.7242 13.9088 12.2116 13.7317 12.5733L13.5858 13.2665L12.9104 14.2152C12.9104 14.2152 13.3261 13.3778 12.2408 13.0903C11.1547 12.8019 9.82484 13.4225 9.82484 13.4225" stroke="#979797" stroke-width="0.337308" stroke-miterlimit="10"/>
<path d="M15.0471 15.7584C15.0471 17.3598 13.6532 18.6584 11.9346 18.6584C10.2161 18.6584 8.82129 17.3606 8.82129 15.7584C8.82129 14.1562 10.2152 12.8584 11.9338 12.8584C12.6421 12.8584 13.2948 13.9547 13.8177 14.3257C14.5648 14.8553 15.0463 14.8165 15.0463 15.7584H15.0471Z" fill="white" stroke="#979797" stroke-width="0.337308" stroke-miterlimit="10"/>
<path d="M11.3502 15.7652C11.3502 15.7652 12.8461 15.1935 12.8217 14.33C12.7972 13.4665 12.8951 13.5398 12.7365 13.345C12.5468 13.1123 12.4599 12.9673 12.1656 12.8855C11.8435 12.7961 11.5138 12.7337 11.1782 12.7784C9.95879 12.9386 8.69136 14.3418 8.80942 15.6067C8.90639 16.6524 9.10119 17.2114 9.34405 17.4551C9.58691 17.698 10.329 18.306 10.6697 18.4038C11.0103 18.5008 11.4598 18.7319 11.8249 18.7201C12.1614 18.7091 12.5696 18.5649 12.8579 18.3895C13.4803 18.0109 13.4246 16.8084 12.9288 16.3707" fill="white"/>
<path d="M11.3501 15.7652C11.8864 15.4996 12.7229 15.0282 12.7381 14.3603C12.7238 14.1065 12.7229 13.8181 12.7254 13.5626C12.7229 13.5221 12.7195 13.5053 12.706 13.4842C12.5838 13.3383 12.4556 13.1477 12.2853 13.0617C12.1478 12.9968 11.9614 12.9656 11.8063 12.9361C10.4697 12.6746 9.05722 14.0677 8.97205 15.3613C8.96699 15.659 9.01253 15.9617 9.05807 16.2543C9.12468 16.6169 9.20058 17.0057 9.4173 17.3025C9.61884 17.5209 9.85748 17.709 10.0919 17.892C10.2648 18.021 10.436 18.1466 10.624 18.2385C10.7412 18.2908 10.8745 18.3246 10.9908 18.3743C11.3248 18.5016 11.6427 18.645 11.9648 18.5969C12.2928 18.5548 12.6327 18.4435 12.9067 18.2512C13.3984 17.8253 13.3689 16.8303 12.9278 16.3715C13.3419 16.735 13.438 17.37 13.3022 17.8869C13.2086 18.2782 12.8924 18.5177 12.529 18.6585C12.2692 18.7639 11.991 18.8482 11.7034 18.833C11.2835 18.7909 10.9048 18.613 10.511 18.4924C10.0497 18.2714 9.66016 17.9459 9.27985 17.612C9.22672 17.5631 9.16769 17.4998 9.12553 17.4408C8.7975 16.9416 8.73425 16.3437 8.65836 15.7703C8.57403 15.2036 8.73762 14.6133 9.03192 14.1369C9.49404 13.3813 10.2564 12.7733 11.1477 12.6392C11.5786 12.5945 12.0036 12.6738 12.3991 12.8467C12.5762 12.9394 12.6934 13.1072 12.8064 13.2557C12.8477 13.3096 12.9143 13.3914 12.9261 13.4724C12.9379 13.7785 12.8966 14.0542 12.9034 14.362C12.8427 15.11 11.9673 15.5325 11.3501 15.7644V15.7652Z" fill="#979797"/>
<path d="M15.1988 15.0889C15.0436 15.6167 14.3707 15.8849 13.6961 15.6859C13.0214 15.4877 12.6007 14.8983 12.7558 14.3695L13.1884 12.8997C13.3436 12.3718 14.0165 12.1037 14.6911 12.3027C15.3657 12.5009 15.7865 13.0903 15.6314 13.619L15.1988 15.0889V15.0889Z" fill="white" stroke="#979797" stroke-width="0.337308" stroke-miterlimit="10"/>
<path d="M19.4293 22.7811L17.5665 22.556L17.5083 21.1199L19.4234 21.3585L19.4293 22.7811Z" fill="white"/>
<path d="M33.7521 32.4661C33.8643 32.4315 33.952 32.4889 33.9849 32.5968C33.9883 32.6078 33.9925 32.623 33.995 32.6373C33.9975 32.6499 34.0001 32.6702 34.0009 32.6828C34.0093 32.8043 33.9436 32.908 33.8129 32.9485L33.6257 33.0066L33.5649 32.5243L33.7521 32.4661V32.4661ZM33.7437 32.8557L33.7665 32.8489C33.823 32.8312 33.866 32.7891 33.8618 32.7123C33.8618 32.7014 33.8592 32.6837 33.8567 32.671C33.855 32.6617 33.8517 32.6499 33.85 32.6432C33.8297 32.5783 33.7808 32.5715 33.7395 32.5842L33.7117 32.5926L33.7446 32.8548L33.7437 32.8557Z" fill="white"/>
<path d="M34.4168 32.7621L34.0964 32.8608L34.0356 32.3784L34.3561 32.2798L34.3696 32.3903L34.1815 32.4484L34.1916 32.5302L34.3679 32.4754L34.3805 32.5732L34.2035 32.6281L34.2136 32.7099L34.4025 32.6517L34.416 32.7621H34.4168Z" fill="white"/>
<path d="M34.5956 32.7073L34.394 32.2679L34.5391 32.2232L34.6597 32.5555L34.6656 32.5538L34.6959 32.1743L34.841 32.1296L34.7634 32.655L34.5947 32.7073H34.5956Z" fill="white"/>
<path d="M34.8915 32.305C34.8764 32.1828 34.9345 32.0925 35.0534 32.0554C35.1681 32.02 35.2685 32.0622 35.303 32.1735C35.3081 32.1887 35.3132 32.2064 35.3149 32.2241L35.3224 32.2907C35.3359 32.4121 35.2811 32.5032 35.1605 32.5403C35.0467 32.5757 34.9463 32.5336 34.9126 32.4231C34.9076 32.4071 34.9025 32.3877 34.9 32.3708L34.8924 32.305H34.8915ZM35.034 32.3329C35.0357 32.3481 35.0391 32.3624 35.0425 32.3734C35.056 32.418 35.0889 32.445 35.1344 32.4307C35.1732 32.4189 35.1943 32.3793 35.1858 32.305L35.1799 32.2587C35.1774 32.2435 35.174 32.2292 35.1715 32.219C35.158 32.1743 35.1251 32.1474 35.0796 32.1617C35.0408 32.1735 35.0197 32.2123 35.029 32.2865L35.0349 32.3329H35.034Z" fill="white"/>
<path d="M35.7094 32.3633L35.5138 32.1601L35.5087 32.1618L35.5408 32.4156L35.4176 32.4535L35.3569 31.9712L35.459 31.94L35.6521 32.1398L35.6571 32.1381L35.6251 31.8885L35.7482 31.8506L35.8089 32.3329L35.7086 32.3641L35.7094 32.3633Z" fill="white"/>
<path d="M36.2215 32.2055L35.901 32.3042L35.8403 31.8218L36.1608 31.7231L36.1743 31.8336L35.9862 31.8918L35.9963 31.9736L36.1726 31.9188L36.1852 32.0166L36.0081 32.0714L36.0183 32.1532L36.2072 32.095L36.2206 32.2055H36.2215Z" fill="white"/>
<path d="M21.2013 26.1239C21.44 28.0297 21.9004 28.4665 23.646 29.1588L23.6443 29.201L23.3525 29.1849L23.0624 29.1504C22.0176 28.9893 21.2098 28.372 21.0816 27.2766C21.031 26.887 21.0596 26.4915 21.1608 26.1129L21.2013 26.1247V26.1239Z" fill="#979797"/>
<path d="M25.8563 26.9967C25.6176 25.0909 25.1572 24.654 23.4116 23.9617L23.4133 23.9196L23.7051 23.9356L23.9952 23.9702C25.04 24.1312 25.8478 24.7485 25.976 25.8439C26.0266 26.2335 25.9979 26.629 25.8967 27.0076L25.8563 26.9958V26.9967Z" fill="#979797"/>
</svg>
