<svg width="36" height="36" viewBox="0 0 36 36" fill="none" xmlns="http://www.w3.org/2000/svg">
<circle cx="18" cy="18" r="18" fill="#DBDBDB"/>
<path d="M11.2534 16.9198C11.2534 16.9198 9.3694 15.7911 9.36758 13.7717C9.36758 13.7717 8.30566 13.2034 8.30566 13.8032C8.30566 14.4031 8.68999 17.9301 11.3724 18.4874L12.073 18.1317L11.254 16.9204L11.2534 16.9198Z" fill="#979797" stroke="#979797" stroke-width="0.172432" stroke-miterlimit="10"/>
<path d="M18.1899 30.9226C22.2929 30.9226 25.619 30.511 25.619 30.0033C25.619 29.4957 22.2929 29.0841 18.1899 29.0841C14.0869 29.0841 10.7607 29.4957 10.7607 30.0033C10.7607 30.511 14.0869 30.9226 18.1899 30.9226Z" fill="#979797"/>
<path d="M23.8251 24.273L11.4616 22.6052L11.291 13.9204L23.8251 15.1608V24.273Z" stroke="#231F20" stroke-width="0.229504" stroke-miterlimit="10"/>
<path d="M26.3497 23.3751L24.0152 24.2287L23.8252 15.1609L26.2927 14.2058L26.3497 23.3751Z" fill="white" stroke="#979797" stroke-width="0.182146" stroke-miterlimit="10"/>
<path d="M23.811 15.1129L11.6182 13.7747L14.5847 13.0219L26.0526 14.1657L23.811 15.1129Z" fill="white" stroke="#979797" stroke-width="0.182146" stroke-miterlimit="10"/>
<path d="M23.8251 24.273L11.4616 22.6052L11.291 13.9204L23.8251 15.1608V24.273Z" fill="white" stroke="#979797" stroke-width="0.242862" stroke-miterlimit="10"/>
<path d="M14.46 16.6794L12.3769 16.4213L12.3574 14.9532L14.46 15.1761V16.6794Z" fill="#979797"/>
<path d="M12.2365 19.0126C12.3543 19.8553 12.4138 20.7405 12.4599 21.5918L12.381 21.5068C13.1928 21.6179 14.0039 21.7399 14.8041 21.9172C13.9851 21.8814 13.1703 21.7891 12.3573 21.6865L12.282 21.6774L12.2784 21.6015C12.2377 20.7496 12.2049 19.8638 12.2359 19.0126H12.2365Z" fill="#979797"/>
<path d="M22.4956 19.1759C22.6207 19.961 22.6219 20.7648 22.4956 21.5499C22.3693 20.7648 22.3706 19.961 22.4956 19.1759Z" fill="#979797"/>
<path d="M23.9819 21.1674L26.2903 20.3733L26.3316 23.3769L24.0335 24.253L23.9819 21.1674Z" fill="#979797"/>
<path d="M16.0925 13.6356L13.6074 13.4031V12.4972L16.0925 12.7054V13.6356Z" fill="white" stroke="#979797" stroke-width="0.172432" stroke-miterlimit="10"/>
<path d="M16.4736 13.323L16.1706 13.7176L16.1445 12.6363L16.4633 12.4821L16.4736 13.323Z" fill="#979797"/>
<path d="M16.1448 12.6363L13.5225 12.4093L14.0604 12.3079L16.4587 12.4882L16.1448 12.6363Z" fill="#979797"/>
<path d="M24.8275 14.2179C24.8275 14.2179 22.49 14.5239 22.269 15.904C22.0419 17.3229 22.3479 18.2269 22.3479 18.2269C22.3479 18.2269 22.2993 17.2184 21.0862 16.0576C20.0759 15.0916 18.5732 15.5773 18.5732 15.5773C18.5732 15.5773 20.0772 15.5111 20.694 14.2567C21.3437 12.9356 20.9988 11.6429 20.9988 11.6429C20.9988 11.6429 20.9175 12.5209 21.83 13.7607C22.6588 14.8864 24.8275 14.2173 24.8275 14.2173V14.2179Z" fill="white"/>
<path d="M24.8188 14.2197C24.8188 14.2197 24.8218 14.227 24.8255 14.227C24.8291 14.227 24.8254 14.227 24.8261 14.227C24.8048 14.2307 24.7653 14.2386 24.7429 14.2428C23.939 14.4225 22.9093 14.754 22.4788 15.5081C22.3628 15.7067 22.3355 15.9258 22.3094 16.1535C22.2457 16.7249 22.2463 17.3059 22.3458 17.8724C22.3647 17.9841 22.3896 18.0989 22.4205 18.2027L22.2712 18.2312C22.1625 17.3782 21.6276 16.6277 21.021 16.0412C20.7053 15.7461 20.29 15.5731 19.8638 15.5166C19.4394 15.4583 18.995 15.5002 18.5876 15.6241L18.5706 15.5312C19.2075 15.4626 19.8444 15.1954 20.2815 14.7194C20.8462 14.0667 21.0186 13.1463 20.9882 12.3036C20.9779 12.0898 20.9512 11.8707 20.9051 11.6691L21.0951 11.6533C21.0957 12.3813 21.4472 13.071 21.8498 13.6624C22.4503 14.5585 23.8145 14.4316 24.7411 14.2307L24.7829 14.2203L24.8036 14.2149L24.8139 14.2125C24.8139 14.2125 24.8194 14.2106 24.8176 14.2118C24.8157 14.2125 24.8151 14.2191 24.8182 14.2203L24.8188 14.2197ZM24.8364 14.2161C24.8364 14.2161 24.8321 14.2258 24.8267 14.2276L24.82 14.2301L24.8097 14.2337C24.7969 14.238 24.7611 14.2489 24.7477 14.2531C23.8358 14.5087 22.5468 14.6642 21.8407 13.8888C21.3707 13.2926 20.9816 12.5907 20.9069 11.8233C20.8862 11.6788 20.9372 11.173 20.9409 11.0225C20.998 11.2593 21.1334 11.7243 21.154 11.9569C21.253 12.7395 21.1327 13.5531 20.7848 14.2635C20.3926 15.1025 19.4728 15.5701 18.5754 15.6259L18.1304 15.652L18.559 15.533C19.3016 15.3412 20.1394 15.3745 20.7988 15.7947C20.8905 15.856 20.9803 15.921 21.0623 15.9957C21.6276 16.5136 22.1273 17.1444 22.3555 17.8876C22.4387 18.1165 22.46 18.6805 22.4885 18.9252L22.2754 18.2519C22.1339 17.7898 22.1005 17.318 22.1066 16.8408C22.1109 16.6046 22.1309 16.3691 22.1607 16.1347C22.191 15.8985 22.2335 15.6478 22.3604 15.4407C22.8413 14.6526 23.9202 14.3369 24.7829 14.2131L24.8048 14.2106L24.8157 14.2094H24.8212H24.8242H24.8279C24.8321 14.2094 24.837 14.2143 24.837 14.2161H24.8364Z" fill="#979797"/>
<path d="M16.8743 21.2512C16.8743 21.2512 17.5051 21.8103 18.0868 21.6883C18.1949 21.6658 18.4323 21.6154 18.5318 21.5839C18.8542 21.4807 19.5956 21.1783 19.8469 20.95C20.4741 20.3805 20.9325 19.7029 20.8056 18.5973C20.6836 17.5342 19.986 16.6386 19.102 16.2458C19.0346 16.216 18.9319 16.1468 18.8542 16.1456C18.8542 16.1456 17.7601 16.1098 17.1967 16.1243C16.6709 16.1383 16.6733 16.2027 16.6733 16.2027L16.8749 21.2505L16.8743 21.2512Z" fill="#979797"/>
<path d="M16.9985 21.8218C18.5383 21.8218 19.7865 20.5736 19.7865 19.0338C19.7865 17.494 18.5383 16.2457 16.9985 16.2457C15.4587 16.2457 14.2104 17.494 14.2104 19.0338C14.2104 20.5736 15.4587 21.8218 16.9985 21.8218Z" fill="white" stroke="white" stroke-width="0.251362" stroke-miterlimit="10"/>
<path d="M16.9395 21.4587C18.2771 21.4587 19.3614 20.3744 19.3614 19.0368C19.3614 17.6992 18.2771 16.6149 16.9395 16.6149C15.6019 16.6149 14.5176 17.6992 14.5176 19.0368C14.5176 20.3744 15.6019 21.4587 16.9395 21.4587Z" fill="white" stroke="#979797" stroke-width="0.182146" stroke-miterlimit="10"/>
<path d="M17.0209 26.6136L15.8818 26.4594L16.2516 23.2463L17.6134 23.4807L17.0209 26.6136Z" fill="#979797"/>
<path d="M19.0613 26.6136L20.2004 26.4594L19.8306 23.7066L18.4688 23.4807L19.0613 26.6136Z" fill="#979797"/>
<path d="M15.8441 27.2905C15.8441 27.2905 15.1799 27.4381 15.1799 26.8169C15.1799 26.8169 15.0767 26.4029 15.594 26.4205C16.1113 26.4375 17.345 26.6536 17.345 26.6536C17.345 26.6536 17.535 26.7052 17.535 27.1709C17.535 27.6366 17.1556 27.602 17.0432 27.585C16.9309 27.568 17.1987 27.6712 17.2333 27.9214C17.2679 28.1715 17.3456 29.3275 17.0523 29.5601H12.5066C12.5066 29.5601 12.0755 29.2838 12.0755 28.37C12.0755 28.37 12.0239 27.1369 13.24 27.1539C13.24 27.1539 14.206 27.0677 14.3353 27.8181C14.3353 27.8181 14.3784 27.3093 14.8271 27.3093C15.2758 27.3093 15.8447 27.2917 15.8447 27.2917L15.8441 27.2905Z" fill="white" stroke="#979797" stroke-width="0.242862" stroke-miterlimit="10"/>
<path d="M17.1965 29.8352C17.1965 29.9815 17.0781 30.0999 16.9318 30.0999H12.5968C12.4504 30.0999 12.332 29.9815 12.332 29.8352C12.332 29.6888 12.4504 29.5704 12.5968 29.5704H16.9318C17.0781 29.5704 17.1965 29.6888 17.1965 29.8352V29.8352Z" fill="white" stroke="#979797" stroke-width="0.242862" stroke-miterlimit="10"/>
<path d="M20.1899 27.2905C20.1899 27.2905 20.8542 27.4381 20.8542 26.8169C20.8542 26.8169 20.9574 26.4029 20.4401 26.4205C19.9228 26.4381 18.6891 26.6536 18.6891 26.6536C18.6891 26.6536 18.499 26.7052 18.499 27.1709C18.499 27.6366 18.8785 27.602 18.9908 27.585C19.1031 27.568 18.8354 27.6712 18.8008 27.9214C18.7662 28.1715 18.6885 29.3275 18.9817 29.5601H23.5269C23.5269 29.5601 23.9579 29.2838 23.9579 28.37C23.9579 28.37 24.0095 27.1369 22.7934 27.1539C22.7934 27.1539 21.8274 27.0677 21.6981 27.8181C21.6981 27.8181 21.655 27.3093 21.2063 27.3093C20.7576 27.3093 20.1887 27.2917 20.1887 27.2917L20.1899 27.2905Z" fill="white" stroke="#979797" stroke-width="0.242862" stroke-miterlimit="10"/>
<path d="M18.8379 29.8352C18.8379 29.9815 18.9563 30.0999 19.1026 30.0999H23.4377C23.584 30.0999 23.7024 29.9815 23.7024 29.8352C23.7024 29.6888 23.584 29.5704 23.4377 29.5704H19.1026C18.9563 29.5704 18.8379 29.6888 18.8379 29.8352V29.8352Z" fill="white" stroke="#979797" stroke-width="0.242862" stroke-miterlimit="10"/>
<path d="M23.9128 20.9646L26.3323 20.1364L26.3135 19.8225L23.9019 20.5912L23.9128 20.9646Z" fill="#979797"/>
<path d="M23.9128 20.3896L26.3323 19.5615L26.3135 19.2476L23.9019 20.0162L23.9128 20.3896Z" fill="#979797"/>
<path d="M23.9339 19.7619L26.3134 19.0048L26.3474 18.8408L23.9048 19.5852L23.9339 19.7619Z" fill="#979797"/>
<path d="M7.33177 12.3315C7.28867 12.5173 7.24313 12.7025 7.20002 12.8877C7.12777 13.1973 7.2917 13.357 7.48478 13.5792C8.03304 14.2101 9.07977 14.2271 9.73549 13.7614C9.91217 13.6357 10.1793 13.4317 10.2831 13.2386C10.4052 13.0122 10.302 12.5835 10.291 12.3315H7.33177Z" fill="white" stroke="#979797" stroke-width="0.242862" stroke-miterlimit="10"/>
<path d="M7.08944 9.6175C7.08944 9.6175 7.10522 9.2186 6.99351 8.75595C6.88179 8.2933 6.7379 8.19737 6.69054 7.8944C6.63832 7.56532 6.51811 7.10388 6.66565 6.78634C6.82472 6.44391 7.19933 6.22897 7.5697 6.22837C8.27157 6.22837 8.50957 6.98609 8.50957 7.55925C8.50957 7.97394 8.49378 8.30848 8.49378 8.30909C8.50836 8.00854 8.62371 7.70618 8.72814 7.42871C8.92547 6.90231 9.21447 6.00675 9.94245 6.09661C10.2648 6.13668 10.603 6.56169 10.6091 6.88045C10.6164 7.30667 10.4385 7.81243 10.2424 8.18462C10.107 8.44144 10.0141 8.79238 9.88659 9.05285L9.78156 9.55193L9.29523 10.235C9.29523 10.235 9.59455 9.63208 8.81315 9.42504C8.03113 9.21739 7.07365 9.66425 7.07365 9.66425" fill="white"/>
<path d="M7.08944 9.6175C7.08944 9.6175 7.10522 9.2186 6.99351 8.75595C6.88179 8.2933 6.7379 8.19737 6.69054 7.8944C6.63832 7.56532 6.51811 7.10388 6.66565 6.78634C6.82472 6.44391 7.19933 6.22897 7.5697 6.22837C8.27157 6.22837 8.50957 6.98609 8.50957 7.55925C8.50957 7.97394 8.49378 8.30848 8.49378 8.30909C8.50836 8.00854 8.62371 7.70618 8.72814 7.42871C8.92547 6.90231 9.21447 6.00675 9.94245 6.09661C10.2648 6.13668 10.603 6.56169 10.6091 6.88045C10.6164 7.30667 10.4385 7.81243 10.2424 8.18462C10.107 8.44144 10.0141 8.79238 9.88659 9.05285L9.78156 9.55193L9.29523 10.235C9.29523 10.235 9.59455 9.63208 8.81315 9.42504C8.03113 9.21739 7.07365 9.66425 7.07365 9.66425" stroke="#979797" stroke-width="0.242862" stroke-miterlimit="10"/>
<path d="M10.8337 11.3461C10.8337 12.499 9.83006 13.4341 8.59268 13.4341C7.35531 13.4341 6.35107 12.4997 6.35107 11.3461C6.35107 10.1925 7.3547 9.25806 8.59208 9.25806C9.10209 9.25806 9.57202 10.0474 9.94846 10.3145C10.4864 10.6958 10.8331 10.6679 10.8331 11.3461H10.8337Z" fill="white" stroke="#979797" stroke-width="0.242862" stroke-miterlimit="10"/>
<path d="M8.17227 11.3509C8.17227 11.3509 9.24936 10.9393 9.23175 10.3175C9.21414 9.6958 9.28457 9.74863 9.17043 9.60837C9.03382 9.4408 8.97128 9.33637 8.75939 9.27747C8.52745 9.21312 8.29006 9.16819 8.04841 9.20037C7.17047 9.31573 6.25792 10.326 6.34292 11.2368C6.41274 11.9896 6.55299 12.3922 6.72785 12.5676C6.90271 12.7425 7.43701 13.1803 7.6823 13.2507C7.92759 13.3205 8.2512 13.4869 8.5141 13.4784C8.75635 13.4705 9.05021 13.3667 9.25786 13.2404C9.70594 12.9678 9.66587 12.102 9.30886 11.7868" fill="white"/>
<path d="M8.17223 11.3509C8.55838 11.1596 9.16067 10.8202 9.1716 10.3393C9.16128 10.1566 9.16067 9.94895 9.16249 9.76498C9.16067 9.73583 9.15824 9.72369 9.14853 9.70851C9.06049 9.60347 8.9682 9.46626 8.84556 9.40433C8.74659 9.35758 8.61241 9.33511 8.5007 9.31386C7.53836 9.12564 6.52138 10.1287 6.46005 11.06C6.45641 11.2744 6.4892 11.4923 6.52198 11.703C6.56995 11.9641 6.62459 12.244 6.78063 12.4577C6.92574 12.615 7.09756 12.7504 7.26635 12.8821C7.39082 12.975 7.51407 13.0655 7.64947 13.1317C7.73386 13.1693 7.82979 13.1936 7.91358 13.2294C8.15401 13.3211 8.38291 13.4243 8.61484 13.3897C8.85102 13.3593 9.09571 13.2792 9.29303 13.1408C9.647 12.8341 9.62575 12.1177 9.30821 11.7874C9.60632 12.0491 9.67554 12.5063 9.57779 12.8785C9.51039 13.1602 9.28271 13.3326 9.02103 13.434C8.83402 13.5099 8.63366 13.5706 8.42662 13.5597C8.12426 13.5293 7.85165 13.4012 7.56811 13.3144C7.236 13.1553 6.95549 12.921 6.68166 12.6805C6.64341 12.6453 6.60091 12.5998 6.57056 12.5573C6.33437 12.1978 6.28884 11.7674 6.23419 11.3545C6.17348 10.9465 6.29127 10.5215 6.50316 10.1784C6.83588 9.63444 7.38475 9.19668 8.02651 9.10014C8.33676 9.06796 8.64277 9.12504 8.92752 9.2495C9.05503 9.31629 9.13942 9.43711 9.22078 9.54397C9.25053 9.58283 9.2985 9.64172 9.307 9.70001C9.3155 9.92041 9.28575 10.1189 9.2906 10.3406C9.24689 10.8791 8.61666 11.1833 8.17223 11.3503V11.3509Z" fill="#979797"/>
<path d="M10.9432 10.864C10.8315 11.2441 10.347 11.4372 9.86128 11.2939C9.37556 11.1512 9.07259 10.7268 9.18431 10.3461L9.49578 9.28787C9.60749 8.90779 10.092 8.71472 10.5777 8.85801C11.0634 9.00069 11.3664 9.42509 11.2547 9.80577L10.9432 10.864V10.864Z" fill="white" stroke="#979797" stroke-width="0.242862" stroke-miterlimit="10"/>
<path d="M13.9891 16.4024L12.6479 16.2403L12.606 15.2063L13.9848 15.3781L13.9891 16.4024Z" fill="white"/>
<path d="M24.3018 23.3756C24.3825 23.3507 24.4457 23.392 24.4694 23.4698C24.4718 23.4776 24.4748 23.4886 24.4766 23.4989C24.4785 23.508 24.4803 23.5226 24.4809 23.5317C24.487 23.6191 24.4396 23.6938 24.3455 23.7229L24.2107 23.7648L24.167 23.4175L24.3018 23.3756V23.3756ZM24.2957 23.6561L24.3121 23.6513C24.3528 23.6385 24.3837 23.6082 24.3807 23.5529C24.3807 23.545 24.3789 23.5323 24.3771 23.5232C24.3759 23.5165 24.3734 23.508 24.3722 23.5031C24.3576 23.4564 24.3224 23.4515 24.2927 23.4606L24.2726 23.4667L24.2963 23.6555L24.2957 23.6561Z" fill="white"/>
<path d="M24.7803 23.5887L24.5496 23.6598L24.5059 23.3125L24.7366 23.2415L24.7463 23.321L24.6109 23.3629L24.6182 23.4218L24.7451 23.3823L24.7542 23.4527L24.6267 23.4922L24.634 23.5511L24.77 23.5092L24.7797 23.5887H24.7803Z" fill="white"/>
<path d="M24.9088 23.5493L24.7637 23.233L24.8681 23.2008L24.9549 23.44L24.9592 23.4388L24.981 23.1656L25.0855 23.1334L25.0296 23.5117L24.9082 23.5493H24.9088Z" fill="white"/>
<path d="M25.1218 23.2597C25.1109 23.1717 25.1528 23.1067 25.2384 23.08C25.321 23.0545 25.3932 23.0848 25.4181 23.165C25.4218 23.1759 25.4254 23.1887 25.4266 23.2014L25.4321 23.2494C25.4418 23.3368 25.4023 23.4024 25.3155 23.4291C25.2335 23.4546 25.1613 23.4242 25.137 23.3447C25.1334 23.3332 25.1297 23.3192 25.1279 23.307L25.1224 23.2597H25.1218ZM25.2244 23.2797C25.2256 23.2907 25.2281 23.301 25.2305 23.3089C25.2402 23.341 25.2639 23.3605 25.2967 23.3502C25.3246 23.3417 25.3398 23.3131 25.3337 23.2597L25.3295 23.2263C25.3276 23.2154 25.3252 23.205 25.3234 23.1978C25.3137 23.1656 25.29 23.1462 25.2572 23.1565C25.2293 23.165 25.2141 23.1929 25.2208 23.2463L25.225 23.2797H25.2244Z" fill="white"/>
<path d="M25.7108 23.3015L25.57 23.1552L25.5663 23.1564L25.5894 23.3392L25.5007 23.3665L25.457 23.0192L25.5305 22.9967L25.6695 23.1406L25.6732 23.1394L25.6501 22.9597L25.7387 22.9324L25.7825 23.2797L25.7102 23.3021L25.7108 23.3015Z" fill="white"/>
<path d="M26.0796 23.188L25.8489 23.259L25.8052 22.9117L26.0359 22.8407L26.0456 22.9202L25.9102 22.9621L25.9175 23.021L26.0444 22.9816L26.0535 23.052L25.926 23.0915L25.9333 23.1503L26.0693 23.1085L26.079 23.188H26.0796Z" fill="white"/>
<path d="M15.2649 18.8092C15.4368 20.1813 15.7683 20.4958 17.0251 20.9943L17.0239 21.0247L16.8138 21.0131L16.6049 20.9882C15.8527 20.8723 15.271 20.4278 15.1787 19.6391C15.1423 19.3586 15.1629 19.0739 15.2358 18.8013L15.2649 18.8098V18.8092Z" fill="#979797"/>
<path d="M18.6166 19.4376C18.4448 18.0654 18.1133 17.7509 16.8564 17.2524L16.8577 17.222L17.0677 17.2336L17.2766 17.2585C18.0289 17.3744 18.6105 17.8189 18.7028 18.6076C18.7392 18.8881 18.7186 19.1728 18.6457 19.4454L18.6166 19.4369V19.4376Z" fill="#979797"/>
</svg>
