<svg width="42" height="42" viewBox="0 0 42 42" fill="none" xmlns="http://www.w3.org/2000/svg">
<circle cx="21" cy="21" r="21" fill="#DBDBDB"/>
<path d="M13.129 19.7397C13.129 19.7397 10.931 18.4229 10.9288 16.0669C10.9288 16.0669 9.68994 15.4039 9.68994 16.1037C9.68994 16.8036 10.1383 20.9184 13.2678 21.5686L14.0852 21.1535L13.1297 19.7404L13.129 19.7397Z" fill="#979797" stroke="#979797" stroke-width="0.20117" stroke-miterlimit="10"/>
<path d="M21.221 36.0763C26.0079 36.0763 29.8883 35.5961 29.8883 35.0038C29.8883 34.4115 26.0079 33.9314 21.221 33.9314C16.4342 33.9314 12.5537 34.4115 12.5537 35.0038C12.5537 35.5961 16.4342 36.0763 21.221 36.0763Z" fill="#979797"/>
<path d="M27.7959 28.3185L13.3719 26.3727L13.1729 16.2405L27.7959 17.6876V28.3185Z" stroke="#231F20" stroke-width="0.267755" stroke-miterlimit="10"/>
<path d="M30.7412 27.2709L28.0176 28.2669L27.7959 17.6877L30.6746 16.5735L30.7412 27.2709Z" fill="white" stroke="#979797" stroke-width="0.212504" stroke-miterlimit="10"/>
<path d="M27.7797 17.6317L13.5547 16.0705L17.0157 15.1921L30.3949 16.5267L27.7797 17.6317Z" fill="white" stroke="#979797" stroke-width="0.212504" stroke-miterlimit="10"/>
<path d="M27.7959 28.3185L13.3719 26.3727L13.1729 16.2405L27.7959 17.6876V28.3185Z" fill="white" stroke="#979797" stroke-width="0.283339" stroke-miterlimit="10"/>
<path d="M16.87 19.4593L14.4397 19.1582L14.417 17.4454L16.87 17.7054V19.4593Z" fill="#979797"/>
<path d="M14.2757 22.1814C14.4132 23.1646 14.4826 24.1974 14.5364 25.1905L14.4443 25.0913C15.3914 25.2209 16.3377 25.3633 17.2713 25.5701C16.3158 25.5283 15.3652 25.4207 14.4167 25.301L14.3289 25.2903L14.3246 25.2018C14.2772 24.208 14.2389 23.1745 14.275 22.1814H14.2757Z" fill="#979797"/>
<path d="M26.2447 22.3719C26.3907 23.2878 26.3921 24.2257 26.2447 25.1416C26.0974 24.2257 26.0988 23.2878 26.2447 22.3719Z" fill="#979797"/>
<path d="M27.979 24.6953L30.6721 23.7688L30.7203 27.273L28.0392 28.2951L27.979 24.6953Z" fill="#979797"/>
<path d="M18.7747 15.9082L15.8755 15.6369V14.5801L18.7747 14.823V15.9082Z" fill="white" stroke="#979797" stroke-width="0.20117" stroke-miterlimit="10"/>
<path d="M19.2194 15.5434L18.8659 16.0039L18.8354 14.7423L19.2073 14.5624L19.2194 15.5434Z" fill="#979797"/>
<path d="M18.8352 14.7423L15.7759 14.4774L16.4035 14.3591L19.2014 14.5695L18.8352 14.7423Z" fill="#979797"/>
<path d="M28.9656 16.5875C28.9656 16.5875 26.2385 16.9445 25.9806 18.5546C25.7157 20.21 26.0727 21.2647 26.0727 21.2647C26.0727 21.2647 26.0161 20.0881 24.6008 18.7338C23.4221 17.6068 21.6689 18.1735 21.6689 18.1735C21.6689 18.1735 23.4235 18.0963 24.1432 16.6328C24.9011 15.0914 24.4988 13.5834 24.4988 13.5834C24.4988 13.5834 24.4039 14.6076 25.4685 16.0541C26.4354 17.3674 28.9656 16.5868 28.9656 16.5868V16.5875Z" fill="white"/>
<path d="M28.9555 16.5897C28.9555 16.5897 28.959 16.5982 28.9633 16.5982C28.9675 16.5982 28.9633 16.5982 28.964 16.5982C28.9392 16.6024 28.8931 16.6116 28.8669 16.6166C27.9291 16.8262 26.7277 17.213 26.2255 18.0928C26.0902 18.3244 26.0583 18.5801 26.0279 18.8457C25.9535 19.5123 25.9542 20.1902 26.0704 20.8511C26.0923 20.9814 26.1214 21.1153 26.1575 21.2364L25.9833 21.2697C25.8565 20.2745 25.2324 19.399 24.5248 18.7147C24.1564 18.3704 23.6719 18.1686 23.1747 18.1027C22.6795 18.0347 22.161 18.0836 21.6857 18.2281L21.6659 18.1197C22.4089 18.0396 23.152 17.728 23.662 17.1726C24.3208 16.4112 24.5219 15.3373 24.4865 14.3541C24.4745 14.1048 24.4433 13.8491 24.3895 13.6139L24.6112 13.5955C24.6119 14.4448 25.022 15.2495 25.4917 15.9394C26.1922 16.9849 27.7839 16.8369 28.8648 16.6024L28.9137 16.5904L28.9378 16.584L28.9498 16.5812C28.9498 16.5812 28.9562 16.579 28.9541 16.5804C28.9519 16.5812 28.9512 16.5889 28.9548 16.5904L28.9555 16.5897ZM28.976 16.5854C28.976 16.5854 28.9711 16.5967 28.9647 16.5989L28.9569 16.6017L28.9449 16.6059C28.93 16.6109 28.8882 16.6237 28.8726 16.6286C27.8087 16.9268 26.3048 17.1082 25.481 16.2036C24.9328 15.508 24.4787 14.6892 24.3916 13.7938C24.3675 13.6252 24.427 13.0352 24.4313 12.8595C24.4979 13.1358 24.6558 13.6783 24.6799 13.9496C24.7954 14.8627 24.6551 15.8119 24.2492 16.6407C23.7916 17.6196 22.7185 18.165 21.6716 18.2302L21.1523 18.2606L21.6524 18.1218C22.5187 17.898 23.4963 17.9369 24.2655 18.4271C24.3725 18.4987 24.4773 18.5744 24.5729 18.6616C25.2324 19.2658 25.8154 20.0018 26.0817 20.8688C26.1788 21.1358 26.2036 21.7939 26.2368 22.0793L25.9882 21.2938C25.8232 20.7547 25.7842 20.2044 25.7913 19.6476C25.7963 19.372 25.8196 19.0972 25.8543 18.8238C25.8898 18.5482 25.9393 18.2557 26.0874 18.0141C26.6484 17.0947 27.9071 16.7264 28.9137 16.5819L28.9392 16.579L28.9519 16.5776H28.9583H28.9619H28.9661C28.9711 16.5776 28.9767 16.5833 28.9767 16.5854H28.976Z" fill="#979797"/>
<path d="M19.6871 24.7931C19.6871 24.7931 20.4231 25.4455 21.1017 25.3031C21.2278 25.2769 21.5047 25.2181 21.6209 25.1813C21.997 25.0608 22.8619 24.7081 23.1552 24.4418C23.8869 23.7773 24.4217 22.9868 24.2736 21.6969C24.1313 20.4566 23.3174 19.4118 22.286 18.9535C22.2074 18.9188 22.0877 18.838 21.997 18.8366C21.997 18.8366 20.7206 18.7948 20.0632 18.8118C19.4498 18.8281 19.4526 18.9032 19.4526 18.9032L19.6878 24.7924L19.6871 24.7931Z" fill="#979797"/>
<path d="M19.8313 25.4588C21.6278 25.4588 23.0841 24.0025 23.0841 22.2061C23.0841 20.4097 21.6278 18.9534 19.8313 18.9534C18.0349 18.9534 16.5786 20.4097 16.5786 22.2061C16.5786 24.0025 18.0349 25.4588 19.8313 25.4588Z" fill="white" stroke="white" stroke-width="0.293255" stroke-miterlimit="10"/>
<path d="M19.7626 25.0352C21.3231 25.0352 22.5882 23.7702 22.5882 22.2096C22.5882 20.6491 21.3231 19.384 19.7626 19.384C18.2021 19.384 16.937 20.6491 16.937 22.2096C16.937 23.7702 18.2021 25.0352 19.7626 25.0352Z" fill="white" stroke="#979797" stroke-width="0.212504" stroke-miterlimit="10"/>
<path d="M19.8577 31.0492L18.5288 30.8693L18.9602 27.1207L20.549 27.3942L19.8577 31.0492Z" fill="#979797"/>
<path d="M22.2382 31.0491L23.5671 30.8692L23.1357 27.6575L21.5469 27.394L22.2382 31.0491Z" fill="#979797"/>
<path d="M18.485 31.8389C18.485 31.8389 17.71 32.0111 17.71 31.2864C17.71 31.2864 17.5896 30.8033 18.1931 30.8239C18.7966 30.8437 20.236 31.0959 20.236 31.0959C20.236 31.0959 20.4577 31.1561 20.4577 31.6994C20.4577 32.2427 20.015 32.2023 19.8839 32.1825C19.7529 32.1627 20.0653 32.2831 20.1057 32.5749C20.146 32.8668 20.2367 34.2154 19.8946 34.4867H14.5912C14.5912 34.4867 14.0883 34.1644 14.0883 33.0984C14.0883 33.0984 14.028 31.6597 15.4469 31.6796C15.4469 31.6796 16.5738 31.579 16.7247 32.4545C16.7247 32.4545 16.775 31.8609 17.2985 31.8609C17.8219 31.8609 18.4857 31.8404 18.4857 31.8404L18.485 31.8389Z" fill="white" stroke="#979797" stroke-width="0.283339" stroke-miterlimit="10"/>
<path d="M20.0625 34.8077C20.0625 34.9785 19.9243 35.1166 19.7536 35.1166H14.696C14.5253 35.1166 14.3872 34.9785 14.3872 34.8077C14.3872 34.637 14.5253 34.4989 14.696 34.4989H19.7536C19.9243 34.4989 20.0625 34.637 20.0625 34.8077V34.8077Z" fill="white" stroke="#979797" stroke-width="0.283339" stroke-miterlimit="10"/>
<path d="M23.5553 31.8389C23.5553 31.8389 24.3302 32.0111 24.3302 31.2864C24.3302 31.2864 24.4506 30.8033 23.8471 30.8239C23.2436 30.8444 21.8042 31.0959 21.8042 31.0959C21.8042 31.0959 21.5825 31.1561 21.5825 31.6994C21.5825 32.2427 22.0252 32.2023 22.1563 32.1825C22.2873 32.1627 21.9749 32.2831 21.9346 32.5749C21.8942 32.8668 21.8035 34.2154 22.1457 34.4867H27.4483C27.4483 34.4867 27.9513 34.1644 27.9513 33.0984C27.9513 33.0984 28.0115 31.6597 26.5926 31.6796C26.5926 31.6796 25.4657 31.579 25.3148 32.4545C25.3148 32.4545 25.2645 31.8609 24.741 31.8609C24.2176 31.8609 23.5538 31.8404 23.5538 31.8404L23.5553 31.8389Z" fill="white" stroke="#979797" stroke-width="0.283339" stroke-miterlimit="10"/>
<path d="M21.9775 34.8077C21.9775 34.9785 22.1157 35.1166 22.2864 35.1166H27.344C27.5147 35.1166 27.6528 34.9785 27.6528 34.8077C27.6528 34.637 27.5147 34.4989 27.344 34.4989H22.2864C22.1157 34.4989 21.9775 34.637 21.9775 34.8077V34.8077Z" fill="white" stroke="#979797" stroke-width="0.283339" stroke-miterlimit="10"/>
<path d="M27.898 24.4587L30.7208 23.4926L30.6988 23.1263L27.8853 24.0231L27.898 24.4587Z" fill="#979797"/>
<path d="M27.898 23.7878L30.7208 22.8217L30.6988 22.4554L27.8853 23.3522L27.898 23.7878Z" fill="#979797"/>
<path d="M27.9227 23.0555L30.6987 22.1722L30.7383 21.981L27.8887 22.8494L27.9227 23.0555Z" fill="#979797"/>
<path d="M8.5539 14.3867C8.50361 14.6035 8.45048 14.8195 8.40019 15.0356C8.31589 15.3968 8.50715 15.5831 8.7324 15.8424C9.37204 16.5783 10.5932 16.5982 11.3582 16.0549C11.5644 15.9082 11.876 15.6702 11.9972 15.445C12.1395 15.1808 12.0191 14.6807 12.0064 14.3867H8.5539Z" fill="white" stroke="#979797" stroke-width="0.283339" stroke-miterlimit="10"/>
<path d="M8.27101 11.2204C8.27101 11.2204 8.28943 10.755 8.15909 10.2152C8.02876 9.67547 7.86088 9.56356 7.80563 9.21009C7.74471 8.82617 7.60446 8.28782 7.77659 7.91736C7.96217 7.51785 8.39922 7.26709 8.83131 7.26639C9.65016 7.26639 9.92783 8.1504 9.92783 8.81908C9.92783 9.30288 9.90941 9.69318 9.90941 9.69389C9.92641 9.34326 10.061 8.9905 10.1828 8.66679C10.413 8.05265 10.7502 7.00784 11.5995 7.11267C11.9757 7.15942 12.3702 7.65527 12.3773 8.02715C12.3858 8.52441 12.1782 9.11446 11.9494 9.54868C11.7915 9.84831 11.6831 10.2577 11.5344 10.5616L11.4118 11.1439L10.8444 11.9408C10.8444 11.9408 11.1936 11.2374 10.282 10.9958C9.36966 10.7536 8.25259 11.2749 8.25259 11.2749" fill="white"/>
<path d="M8.27101 11.2204C8.27101 11.2204 8.28943 10.755 8.15909 10.2152C8.02876 9.67547 7.86088 9.56356 7.80563 9.21009C7.74471 8.82617 7.60446 8.28782 7.77659 7.91736C7.96217 7.51785 8.39922 7.26709 8.83131 7.26639C9.65016 7.26639 9.92783 8.1504 9.92783 8.81908C9.92783 9.30288 9.90941 9.69318 9.90941 9.69389C9.92641 9.34326 10.061 8.9905 10.1828 8.66679C10.413 8.05265 10.7502 7.00784 11.5995 7.11267C11.9757 7.15942 12.3702 7.65527 12.3773 8.02715C12.3858 8.52441 12.1782 9.11446 11.9494 9.54868C11.7915 9.84831 11.6831 10.2577 11.5344 10.5616L11.4118 11.1439L10.8444 11.9408C10.8444 11.9408 11.1936 11.2374 10.282 10.9958C9.36966 10.7536 8.25259 11.2749 8.25259 11.2749" stroke="#979797" stroke-width="0.283339" stroke-miterlimit="10"/>
<path d="M12.6394 13.237C12.6394 14.5822 11.4685 15.673 10.0249 15.673C8.58127 15.673 7.40967 14.5829 7.40967 13.237C7.40967 11.8912 8.58056 10.801 10.0242 10.801C10.6192 10.801 11.1674 11.7219 11.6066 12.0335C12.2342 12.4784 12.6387 12.4458 12.6387 13.237H12.6394Z" fill="white" stroke="#979797" stroke-width="0.283339" stroke-miterlimit="10"/>
<path d="M9.53423 13.2427C9.53423 13.2427 10.7908 12.7625 10.7703 12.0371C10.7498 11.3118 10.8319 11.3734 10.6988 11.2098C10.5394 11.0143 10.4664 10.8924 10.2192 10.8237C9.94862 10.7486 9.67165 10.6962 9.38973 10.7338C8.36546 10.8683 7.30082 12.047 7.39999 13.1096C7.48145 13.9879 7.64508 14.4575 7.84908 14.6623C8.05308 14.8663 8.67643 15.377 8.9626 15.4591C9.24877 15.5406 9.62632 15.7347 9.93303 15.7248C10.2157 15.7156 10.5585 15.5944 10.8008 15.4471C11.3235 15.1291 11.2768 14.119 10.8603 13.7513" fill="white"/>
<path d="M9.53402 13.2427C9.98453 13.0196 10.6872 12.6236 10.7 12.0626C10.6879 11.8494 10.6872 11.6071 10.6893 11.3925C10.6872 11.3585 10.6844 11.3443 10.673 11.3266C10.5703 11.2041 10.4627 11.044 10.3196 10.9718C10.2041 10.9172 10.0476 10.891 9.91723 10.8662C8.79451 10.6466 7.60803 11.8168 7.53649 12.9034C7.53224 13.1535 7.57049 13.4078 7.60874 13.6536C7.6647 13.9581 7.72845 14.2847 7.91049 14.534C8.07979 14.7175 8.28025 14.8755 8.47717 15.0292C8.62238 15.1375 8.76617 15.2431 8.92413 15.3203C9.02259 15.3642 9.13451 15.3926 9.23226 15.4343C9.51277 15.5413 9.77982 15.6617 10.0504 15.6213C10.326 15.5859 10.6114 15.4924 10.8416 15.3309C11.2546 14.9732 11.2298 14.1374 10.8593 13.752C11.2071 14.0573 11.2879 14.5907 11.1738 15.0249C11.0952 15.3536 10.8296 15.5548 10.5243 15.6731C10.3061 15.7616 10.0724 15.8324 9.83082 15.8197C9.47806 15.7843 9.16001 15.6348 8.82922 15.5335C8.44175 15.3479 8.1145 15.0745 7.79503 14.794C7.75041 14.7529 7.70082 14.6998 7.6654 14.6502C7.38986 14.2309 7.33673 13.7286 7.27298 13.247C7.20215 12.771 7.33957 12.2751 7.58678 11.8749C7.97495 11.2402 8.6153 10.7295 9.36402 10.6169C9.72598 10.5793 10.083 10.6459 10.4152 10.7911C10.564 10.869 10.6624 11.01 10.7573 11.1347C10.792 11.18 10.848 11.2487 10.8579 11.3167C10.8678 11.5739 10.8331 11.8055 10.8388 12.064C10.7878 12.6923 10.0525 13.0472 9.53402 13.242V13.2427Z" fill="#979797"/>
<path d="M12.7671 12.6747C12.6368 13.1181 12.0715 13.3433 11.5048 13.1762C10.9382 13.0097 10.5847 12.5146 10.715 12.0704L11.0784 10.8358C11.2087 10.3924 11.774 10.1671 12.3407 10.3343C12.9074 10.5007 13.2608 10.9959 13.1305 11.44L12.7671 12.6747V12.6747Z" fill="white" stroke="#979797" stroke-width="0.283339" stroke-miterlimit="10"/>
<path d="M16.3206 19.1362L14.7559 18.947L14.707 17.7407L16.3157 17.9412L16.3206 19.1362Z" fill="white"/>
<path d="M28.3521 27.2715C28.4463 27.2425 28.52 27.2906 28.5476 27.3813C28.5504 27.3905 28.554 27.4033 28.5561 27.4153C28.5582 27.4259 28.5603 27.4429 28.561 27.4535C28.5681 27.5555 28.5129 27.6427 28.4031 27.6767L28.2458 27.7256L28.1948 27.3204L28.3521 27.2715V27.2715ZM28.345 27.5988L28.3641 27.5931C28.4116 27.5782 28.4477 27.5428 28.4442 27.4783C28.4442 27.4691 28.442 27.4543 28.4399 27.4436C28.4385 27.4358 28.4357 27.4259 28.4342 27.4203C28.4172 27.3657 28.3762 27.36 28.3415 27.3707L28.3181 27.3778L28.3457 27.598L28.345 27.5988Z" fill="white"/>
<path d="M28.91 27.5202L28.6408 27.603L28.5898 27.1979L28.859 27.115L28.8704 27.2078L28.7124 27.2567L28.7209 27.3254L28.8689 27.2793L28.8796 27.3615L28.7308 27.4075L28.7393 27.4762L28.898 27.4274L28.9093 27.5202H28.91Z" fill="white"/>
<path d="M29.0604 27.4741L28.8911 27.1051L29.0129 27.0675L29.1142 27.3466L29.1192 27.3452L29.1447 27.0264L29.2665 26.9889L29.2014 27.4302L29.0597 27.4741H29.0604Z" fill="white"/>
<path d="M29.3091 27.1362C29.2964 27.0335 29.3452 26.9577 29.4451 26.9265C29.5415 26.8968 29.6258 26.9322 29.6548 27.0257C29.659 27.0385 29.6633 27.0533 29.6647 27.0682L29.6711 27.1242C29.6824 27.2262 29.6364 27.3027 29.5351 27.3338C29.4395 27.3636 29.3552 27.3282 29.3268 27.2354C29.3226 27.2219 29.3183 27.2056 29.3162 27.1915L29.3098 27.1362H29.3091ZM29.4288 27.1596C29.4302 27.1723 29.4331 27.1844 29.4359 27.1936C29.4472 27.2311 29.4749 27.2538 29.5131 27.2417C29.5457 27.2318 29.5634 27.1985 29.5563 27.1362L29.5514 27.0972C29.5492 27.0845 29.5464 27.0725 29.5443 27.064C29.533 27.0264 29.5053 27.0037 29.4671 27.0158C29.4345 27.0257 29.4168 27.0583 29.4246 27.1206L29.4295 27.1596H29.4288Z" fill="white"/>
<path d="M29.9963 27.1851L29.8319 27.0144L29.8277 27.0158L29.8546 27.229L29.7512 27.2609L29.7002 26.8557L29.7859 26.8295L29.9481 26.9974L29.9524 26.9959L29.9254 26.7863L30.0289 26.7544L30.0799 27.1596L29.9956 27.1858L29.9963 27.1851Z" fill="white"/>
<path d="M30.4261 27.0526L30.157 27.1355L30.106 26.7303L30.3751 26.6475L30.3865 26.7403L30.2285 26.7891L30.237 26.8578L30.385 26.8118L30.3957 26.894L30.2469 26.94L30.2554 27.0087L30.4141 26.9598L30.4254 27.0526H30.4261Z" fill="white"/>
<path d="M17.8091 21.9441C18.0096 23.545 18.3963 23.9119 19.8626 24.4935L19.8612 24.5289L19.6161 24.5154L19.3724 24.4864C18.4948 24.3511 17.8162 23.8326 17.7085 22.9125C17.666 22.5852 17.6901 22.253 17.7751 21.9349L17.8091 21.9449V21.9441Z" fill="#979797"/>
<path d="M21.719 22.6772C21.5186 21.0763 21.1318 20.7094 19.6655 20.1278L19.6669 20.0924L19.912 20.1059L20.1557 20.1349C21.0333 20.2702 21.7119 20.7887 21.8196 21.7089C21.8621 22.0361 21.838 22.3683 21.753 22.6864L21.719 22.6765V22.6772Z" fill="#979797"/>
</svg>
