<svg width="110" height="110" viewBox="0 0 110 110" fill="none" xmlns="http://www.w3.org/2000/svg">
<circle cx="55" cy="55" r="55" fill="#DBDBDB"/>
<path d="M34.3854 51.6992C34.3854 51.6992 28.6287 48.2504 28.6231 42.08C28.6231 42.08 25.3784 40.3435 25.3784 42.1765C25.3784 44.0094 26.5528 54.7862 34.749 56.4893L36.8899 55.4022L34.3872 51.7011L34.3854 51.6992Z" fill="#979797" stroke="#979797" stroke-width="0.526875" stroke-miterlimit="10"/>
<path d="M55.5795 94.4856C68.1164 94.4856 78.2796 93.228 78.2796 91.6768C78.2796 90.1256 68.1164 88.868 55.5795 88.868C43.0426 88.868 32.8794 90.1256 32.8794 91.6768C32.8794 93.228 43.0426 94.4856 55.5795 94.4856Z" fill="#979797"/>
<path d="M72.7986 74.1675L35.0213 69.0713L34.5 42.5345L72.7986 46.3247V74.1675Z" stroke="#231F20" stroke-width="0.701263" stroke-miterlimit="10"/>
<path d="M80.5132 71.4238L73.38 74.0322L72.7993 46.3248L80.3388 43.4066L80.5132 71.4238Z" fill="white" stroke="#979797" stroke-width="0.556558" stroke-miterlimit="10"/>
<path d="M72.7564 46.1781L35.5005 42.0893L44.5649 39.7888L79.6058 43.284L72.7564 46.1781Z" fill="white" stroke="#979797" stroke-width="0.556558" stroke-miterlimit="10"/>
<path d="M72.7986 74.1675L35.0213 69.0713L34.5 42.5345L72.7986 46.3247V74.1675Z" fill="white" stroke="#979797" stroke-width="0.742077" stroke-miterlimit="10"/>
<path d="M44.1828 50.9646L37.8177 50.1762L37.7583 45.6903L44.1828 46.3712V50.9646Z" fill="#979797"/>
<path d="M37.3889 58.094C37.7488 60.669 37.9306 63.3739 38.0716 65.9749L37.8304 65.7151C40.3108 66.0546 42.7893 66.4275 45.2345 66.9693C42.7318 66.8598 40.2422 66.5778 37.7581 66.2643L37.528 66.2364L37.5169 66.0045C37.3926 63.4017 37.2924 60.695 37.387 58.094H37.3889Z" fill="#979797"/>
<path d="M68.7363 58.5931C69.1184 60.9919 69.1221 63.4482 68.7363 65.847C68.3504 63.4482 68.3541 60.9919 68.7363 58.5931Z" fill="#979797"/>
<path d="M73.2778 64.6782L80.3313 62.2516L80.4574 71.4292L73.4355 74.1063L73.2778 64.6782Z" fill="#979797"/>
<path d="M49.1714 41.6645L41.5781 40.954V38.186L49.1714 38.8224V41.6645Z" fill="white" stroke="#979797" stroke-width="0.526875" stroke-miterlimit="10"/>
<path d="M50.3366 40.7091L49.4108 41.915L49.3311 38.6109L50.305 38.1396L50.3366 40.7091Z" fill="#979797"/>
<path d="M49.3309 38.6108L41.3184 37.917L42.9621 37.6072L50.2901 38.1582L49.3309 38.6108Z" fill="#979797"/>
<path d="M75.8618 43.4434C75.8618 43.4434 68.7193 44.3785 68.044 48.5953C67.3502 52.9309 68.2852 55.6933 68.2852 55.6933C68.2852 55.6933 68.1368 52.6118 64.4301 49.0647C61.3431 46.1131 56.7515 47.5972 56.7515 47.5972C56.7515 47.5972 61.3468 47.395 63.2316 43.5622C65.2167 39.5253 64.163 35.5756 64.163 35.5756C64.163 35.5756 63.9144 38.2582 66.7027 42.0465C69.235 45.486 75.8618 43.4416 75.8618 43.4416V43.4434Z" fill="white"/>
<path d="M75.8357 43.4491C75.8357 43.4491 75.845 43.4714 75.8561 43.4714C75.8672 43.4714 75.8561 43.4714 75.858 43.4714C75.793 43.4825 75.6724 43.5067 75.6038 43.5196C73.1475 44.0688 70.0011 45.0817 68.6858 47.3859C68.3315 47.9925 68.248 48.6622 68.1682 49.3579C67.9734 51.1037 67.9753 52.8791 68.2795 54.61C68.337 54.9514 68.4131 55.302 68.5077 55.6192L68.0513 55.7064C67.7192 53.0999 66.0848 50.8069 64.2315 49.0147C63.2668 48.1131 61.9978 47.5844 60.6955 47.4118C59.3987 47.2337 58.0407 47.3618 56.7959 47.7402L56.7439 47.4564C58.69 47.2467 60.6361 46.4304 61.9719 44.976C63.6972 42.9816 64.2241 40.1692 64.1313 37.5941C64.0998 36.9411 64.0181 36.2714 63.8771 35.6555L64.4578 35.6072C64.4597 37.8316 65.5338 39.9391 66.7638 41.7461C68.5986 44.4843 72.7672 44.0966 75.5982 43.4825L75.7262 43.451L75.7893 43.4343L75.8209 43.4269C75.8209 43.4269 75.8376 43.4213 75.832 43.425C75.8264 43.4269 75.8246 43.4473 75.8338 43.451L75.8357 43.4491ZM75.8895 43.438C75.8895 43.438 75.8765 43.4677 75.8598 43.4733L75.8394 43.4807L75.8079 43.4918C75.7689 43.5048 75.6595 43.5382 75.6187 43.5512C72.8322 44.3322 68.8936 44.8072 66.736 42.4381C65.3001 40.6163 64.1109 38.4717 63.8827 36.1267C63.8196 35.6852 63.9755 34.1398 63.9866 33.6797C64.161 34.4032 64.5747 35.8243 64.6378 36.5348C64.9402 38.9262 64.5728 41.4121 63.5098 43.5827C62.3114 46.1466 59.5007 47.5751 56.7588 47.7458L55.3989 47.8256L56.7087 47.4619C58.9776 46.8757 61.5378 46.9777 63.5525 48.2615C63.8326 48.4489 64.1072 48.6474 64.3576 48.8756C66.0848 50.4581 67.6116 52.3856 68.3092 54.6564C68.5634 55.3558 68.6283 57.0793 68.7155 57.8269L68.0643 55.7695C67.6321 54.3577 67.53 52.9162 67.5486 51.458C67.5616 50.7364 67.6228 50.0165 67.7137 49.3004C67.8064 48.5788 67.9363 47.8126 68.324 47.1799C69.7934 44.7719 73.09 43.8072 75.7262 43.4287L75.793 43.4213L75.8264 43.4176H75.8431H75.8524H75.8635C75.8765 43.4176 75.8914 43.4325 75.8914 43.438H75.8895Z" fill="#979797"/>
<path d="M51.5608 64.9342C51.5608 64.9342 53.4884 66.6429 55.2657 66.27C55.5959 66.2013 56.3213 66.0473 56.6255 65.9509C57.6106 65.6355 59.8758 64.7116 60.6439 64.0141C62.5603 62.2739 63.9609 60.2035 63.5732 56.8252C63.2003 53.5767 61.0687 50.8403 58.3675 49.64C58.1616 49.5491 57.8481 49.3376 57.6106 49.3339C57.6106 49.3339 54.2676 49.2244 52.546 49.269C50.9394 49.3116 50.9468 49.5083 50.9468 49.5083L51.5627 64.9324L51.5608 64.9342Z" fill="#979797"/>
<path d="M51.9394 66.678C56.6444 66.678 60.4585 62.8639 60.4585 58.159C60.4585 53.454 56.6444 49.6399 51.9394 49.6399C47.2345 49.6399 43.4204 53.454 43.4204 58.159C43.4204 62.8639 47.2345 66.678 51.9394 66.678Z" fill="white" stroke="white" stroke-width="0.76805" stroke-miterlimit="10"/>
<path d="M51.7597 65.5686C55.8468 65.5686 59.1601 62.2553 59.1601 58.1682C59.1601 54.0811 55.8468 50.7678 51.7597 50.7678C47.6726 50.7678 44.3594 54.0811 44.3594 58.1682C44.3594 62.2553 47.6726 65.5686 51.7597 65.5686Z" fill="white" stroke="#979797" stroke-width="0.556558" stroke-miterlimit="10"/>
<path d="M52.0077 81.3193L48.5273 80.8481L49.6572 71.0304L53.8183 71.7465L52.0077 81.3193Z" fill="#979797"/>
<path d="M58.2433 81.3193L61.7236 80.848L60.5938 72.4366L56.4326 71.7465L58.2433 81.3193Z" fill="#979797"/>
<path d="M48.4126 83.3878C48.4126 83.3878 46.383 83.8386 46.383 81.9408C46.383 81.9408 46.0677 80.6755 47.6483 80.7293C49.2289 80.7813 52.9986 81.4417 52.9986 81.4417C52.9986 81.4417 53.5793 81.5994 53.5793 83.0224C53.5793 84.4453 52.4198 84.3395 52.0766 84.2876C51.7334 84.2356 52.5515 84.551 52.6573 85.3154C52.763 86.0797 53.0005 89.612 52.1044 90.3225H38.2146C38.2146 90.3225 36.8974 89.4784 36.8974 86.6864C36.8974 86.6864 36.7398 82.9185 40.4557 82.9704C40.4557 82.9704 43.4073 82.707 43.8025 85C43.8025 85 43.9342 83.4453 45.3052 83.4453C46.6762 83.4453 48.4145 83.3915 48.4145 83.3915L48.4126 83.3878Z" fill="white" stroke="#979797" stroke-width="0.742077" stroke-miterlimit="10"/>
<path d="M52.5445 91.163C52.5445 91.6101 52.1827 91.9719 51.7356 91.9719H38.4895C38.0424 91.9719 37.6807 91.6101 37.6807 91.163C37.6807 90.7159 38.0424 90.3541 38.4895 90.3541H51.7356C52.1827 90.3541 52.5445 90.7159 52.5445 91.163V91.163Z" fill="white" stroke="#979797" stroke-width="0.742077" stroke-miterlimit="10"/>
<path d="M61.6921 83.3878C61.6921 83.3878 63.7217 83.8386 63.7217 81.9408C63.7217 81.9408 64.0371 80.6755 62.4564 80.7293C60.8758 80.7831 57.1061 81.4417 57.1061 81.4417C57.1061 81.4417 56.5254 81.5994 56.5254 83.0224C56.5254 84.4453 57.6849 84.3395 58.0281 84.2876C58.3713 84.2356 57.5532 84.551 57.4474 85.3154C57.3417 86.0797 57.1042 89.612 58.0003 90.3225H71.8882C71.8882 90.3225 73.2054 89.4784 73.2054 86.6864C73.2054 86.6864 73.3631 82.9185 69.6472 82.9704C69.6472 82.9704 66.6955 82.707 66.3004 85C66.3004 85 66.1687 83.4453 64.7977 83.4453C63.4267 83.4453 61.6884 83.3915 61.6884 83.3915L61.6921 83.3878Z" fill="white" stroke="#979797" stroke-width="0.742077" stroke-miterlimit="10"/>
<path d="M57.5605 91.163C57.5605 91.6101 57.9223 91.9719 58.3694 91.9719H71.6155C72.0626 91.9719 72.4243 91.6101 72.4243 91.163C72.4243 90.7159 72.0626 90.3541 71.6155 90.3541H58.3694C57.9223 90.3541 57.5605 90.7159 57.5605 91.163V91.163Z" fill="white" stroke="#979797" stroke-width="0.742077" stroke-miterlimit="10"/>
<path d="M73.0661 64.0586L80.459 61.5281L80.4015 60.569L73.0327 62.9176L73.0661 64.0586Z" fill="#979797"/>
<path d="M73.0661 62.3016L80.459 59.7711L80.4015 58.812L73.0327 61.1607L73.0661 62.3016Z" fill="#979797"/>
<path d="M73.131 60.3834L80.4015 58.07L80.5054 57.5691L73.042 59.8436L73.131 60.3834Z" fill="#979797"/>
<path d="M22.403 37.6796C22.2713 38.2473 22.1322 38.8131 22.0004 39.3789C21.7797 40.3251 22.2806 40.813 22.8705 41.492C24.5458 43.4195 27.7441 43.4715 29.7477 42.0485C30.2876 41.6645 31.1039 41.0412 31.4211 40.4512C31.794 39.7592 31.4786 38.4495 31.4452 37.6796H22.403Z" fill="white" stroke="#979797" stroke-width="0.742077" stroke-miterlimit="10"/>
<path d="M21.6625 29.3867C21.6625 29.3867 21.7107 28.1679 21.3694 26.7542C21.028 25.3405 20.5883 25.0474 20.4436 24.1217C20.2841 23.1162 19.9168 21.7062 20.3676 20.7359C20.8536 19.6896 21.9983 19.0329 23.13 19.031C25.2746 19.031 26.0018 21.3463 26.0018 23.0976C26.0018 24.3647 25.9536 25.3869 25.9536 25.3888C25.9981 24.4705 26.3506 23.5466 26.6697 22.6987C27.2726 21.0903 28.1557 18.3539 30.38 18.6284C31.3651 18.7509 32.3985 20.0495 32.417 21.0235C32.4393 22.3258 31.8957 23.8712 31.2965 25.0085C30.8828 25.7932 30.599 26.8655 30.2094 27.6614L29.8884 29.1864L28.4024 31.2735C28.4024 31.2735 29.317 29.4312 26.9294 28.7986C24.5399 28.1641 21.6143 29.5296 21.6143 29.5296" fill="white"/>
<path d="M21.6625 29.3867C21.6625 29.3867 21.7107 28.1679 21.3694 26.7542C21.028 25.3405 20.5883 25.0474 20.4436 24.1217C20.2841 23.1162 19.9168 21.7062 20.3676 20.7359C20.8536 19.6896 21.9983 19.0329 23.13 19.031C25.2746 19.031 26.0018 21.3463 26.0018 23.0976C26.0018 24.3647 25.9536 25.3869 25.9536 25.3888C25.9981 24.4705 26.3506 23.5466 26.6697 22.6987C27.2726 21.0903 28.1557 18.3539 30.38 18.6284C31.3651 18.7509 32.3985 20.0495 32.417 21.0235C32.4393 22.3258 31.8957 23.8712 31.2965 25.0085C30.8828 25.7932 30.599 26.8655 30.2094 27.6614L29.8884 29.1864L28.4024 31.2735C28.4024 31.2735 29.317 29.4312 26.9294 28.7986C24.5399 28.1641 21.6143 29.5296 21.6143 29.5296" stroke="#979797" stroke-width="0.742077" stroke-miterlimit="10"/>
<path d="M33.1036 34.6685C33.1036 38.1915 30.037 41.0485 26.2561 41.0485C22.4752 41.0485 19.4067 38.1933 19.4067 34.6685C19.4067 31.1436 22.4734 28.2885 26.2542 28.2885C27.8126 28.2885 29.2485 30.7002 30.3987 31.5165C32.0424 32.6816 33.1018 32.5962 33.1018 34.6685H33.1036Z" fill="white" stroke="#979797" stroke-width="0.742077" stroke-miterlimit="10"/>
<path d="M24.9708 34.6834C24.9708 34.6834 28.2619 33.4256 28.2081 31.5259C28.1543 29.6262 28.3695 29.7876 28.0207 29.359C27.6033 28.847 27.4122 28.5279 26.7648 28.3479C26.0561 28.1513 25.3307 28.014 24.5923 28.1123C21.9097 28.4648 19.1214 31.5518 19.3811 34.3346C19.5945 36.6351 20.023 37.8651 20.5573 38.4012C21.0916 38.9355 22.7242 40.2731 23.4737 40.4883C24.2232 40.7017 25.212 41.21 26.0153 41.184C26.7555 41.1599 27.6534 40.8427 28.2879 40.4568C29.657 39.6238 29.5346 36.9783 28.4437 36.0154" fill="white"/>
<path d="M24.9704 34.6834C26.1503 34.099 27.9907 33.0619 28.0241 31.5926C27.9926 31.0342 27.9907 30.3997 27.9963 29.8376C27.9907 29.7486 27.9833 29.7115 27.9536 29.6651C27.6846 29.3441 27.4026 28.9249 27.0279 28.7356C26.7255 28.5928 26.3155 28.5241 25.9741 28.4592C23.0336 27.8841 19.9262 30.9489 19.7388 33.7947C19.7277 34.4496 19.8279 35.1156 19.928 35.7594C20.0746 36.5571 20.2416 37.4124 20.7183 38.0654C21.1617 38.5459 21.6868 38.9596 22.2025 39.3622C22.5828 39.646 22.9594 39.9225 23.3731 40.1247C23.631 40.2397 23.9241 40.3139 24.1801 40.4234C24.9148 40.7035 25.6142 41.0189 26.3229 40.9131C27.0446 40.8204 27.7922 40.5755 28.3951 40.1525C29.4767 39.2156 29.4118 37.0265 28.4415 36.0173C29.3524 36.8169 29.5639 38.2138 29.2652 39.3511C29.0593 40.2119 28.3636 40.7387 27.564 41.0486C26.9926 41.2805 26.3804 41.466 25.7478 41.4326C24.8239 41.3398 23.9909 40.9484 23.1245 40.6831C22.1097 40.197 21.2526 39.4809 20.416 38.7463C20.2991 38.6387 20.1692 38.4995 20.0765 38.3697C19.3548 37.2714 19.2156 35.956 19.0487 34.6945C18.8632 33.4478 19.2231 32.1492 19.8705 31.101C20.8872 29.4387 22.5643 28.1011 24.5252 27.8062C25.4732 27.7078 26.4082 27.8822 27.2783 28.2625C27.6679 28.4666 27.9258 28.8358 28.1744 29.1623C28.2653 29.281 28.4118 29.461 28.4378 29.6391C28.4638 30.3125 28.3729 30.9192 28.3877 31.5963C28.2541 33.2419 26.3284 34.1713 24.9704 34.6815V34.6834Z" fill="#979797"/>
<path d="M33.4375 33.1956C33.0961 34.3569 31.6157 34.9469 30.1315 34.5091C28.6474 34.0731 27.7216 32.7763 28.063 31.6131L29.0147 28.3795C29.3561 27.2182 30.8365 26.6282 32.3207 27.066C33.8048 27.502 34.7306 28.7988 34.3892 29.962L33.4375 33.1956V33.1956Z" fill="white" stroke="#979797" stroke-width="0.742077" stroke-miterlimit="10"/>
<path d="M42.7447 50.1185L38.6466 49.6231L38.5186 46.4637L42.7317 46.9888L42.7447 50.1185Z" fill="white"/>
<path d="M74.2551 71.4254C74.5019 71.3494 74.6948 71.4755 74.7671 71.713C74.7746 71.7371 74.7838 71.7705 74.7894 71.802C74.795 71.8299 74.8005 71.8744 74.8024 71.9022C74.8209 72.1694 74.6762 72.3975 74.3887 72.4866L73.9768 72.6146L73.8433 71.5534L74.2551 71.4254V71.4254ZM74.2366 72.2825L74.2866 72.2677C74.4109 72.2287 74.5056 72.136 74.4963 71.9671C74.4963 71.943 74.4907 71.9041 74.4852 71.8762C74.4814 71.8558 74.474 71.8299 74.4703 71.815C74.4258 71.6722 74.3182 71.6573 74.2273 71.6852L74.1661 71.7037L74.2384 72.2807L74.2366 72.2825Z" fill="white"/>
<path d="M75.717 72.0767L75.012 72.2937L74.8784 71.2326L75.5834 71.0155L75.6131 71.2585L75.1994 71.3865L75.2216 71.5665L75.6094 71.4459L75.6372 71.6611L75.2476 71.7817L75.2699 71.9616L75.6854 71.8336L75.7151 72.0767H75.717Z" fill="white"/>
<path d="M76.1104 71.9561L75.667 70.9896L75.9861 70.8912L76.2514 71.6222L76.2644 71.6185L76.3312 70.7836L76.6502 70.6853L76.4796 71.8411L76.1085 71.9561H76.1104Z" fill="white"/>
<path d="M76.7616 71.0712C76.7282 70.8022 76.8562 70.6036 77.1178 70.522C77.3701 70.4441 77.5908 70.5369 77.6669 70.7817C77.678 70.8151 77.6892 70.8541 77.6929 70.8931L77.7096 71.0396C77.7392 71.3068 77.6187 71.5071 77.3534 71.5888C77.1029 71.6667 76.8821 71.5739 76.8079 71.3309C76.7968 71.2956 76.7857 71.253 76.7801 71.2159L76.7634 71.0712H76.7616ZM77.0751 71.1324C77.0788 71.1658 77.0862 71.1973 77.0936 71.2214C77.1233 71.3198 77.1957 71.3791 77.2959 71.3476C77.3812 71.3216 77.4276 71.2344 77.409 71.0712L77.396 70.9691C77.3905 70.9357 77.3831 70.9042 77.3775 70.8819C77.3478 70.7836 77.2755 70.7242 77.1753 70.7558C77.0899 70.7817 77.0436 70.8671 77.064 71.0303L77.0769 71.1324H77.0751Z" fill="white"/>
<path d="M78.5611 71.1991L78.1307 70.752L78.1196 70.7557L78.1901 71.3141L77.9192 71.3976L77.7856 70.3365L78.0101 70.2678L78.435 70.7075L78.4461 70.7038L78.3756 70.1546L78.6464 70.0712L78.78 71.1323L78.5593 71.201L78.5611 71.1991Z" fill="white"/>
<path d="M79.6872 70.8522L78.9822 71.0692L78.8486 70.0081L79.5536 69.791L79.5833 70.034L79.1696 70.1621L79.1918 70.342L79.5796 70.2214L79.6074 70.4366L79.2178 70.5572L79.2401 70.7372L79.6556 70.6092L79.6853 70.8522H79.6872Z" fill="white"/>
<path d="M46.6429 57.4726C47.1679 61.6653 48.1809 62.6263 52.0211 64.1495L52.0174 64.2422L51.3755 64.207L50.7373 64.1309C48.4387 63.7766 46.6615 62.4186 46.3795 60.0087C46.2682 59.1516 46.3312 58.2815 46.5539 57.4485L46.6429 57.4745V57.4726Z" fill="#979797"/>
<path d="M56.8836 59.3927C56.3586 55.1999 55.3456 54.2389 51.5054 52.7158L51.5091 52.623L52.151 52.6583L52.7892 52.7344C55.0877 53.0887 56.865 54.4467 57.147 56.8566C57.2583 57.7137 57.1952 58.5838 56.9726 59.4168L56.8836 59.3908V59.3927Z" fill="#979797"/>
</svg>
