<svg width="292" height="52" viewBox="0 0 292 52" fill="none" xmlns="http://www.w3.org/2000/svg">
<path d="M13.41 34.72C13.37 34.9 13.34 35.05 13.34 35.37C13.34 38.74 16.93 40.66 20.77 40.66C23.49 40.66 27.33 39.65 27.33 36.49C27.33 33.88 24.65 33.01 21.1 31.92L15.81 30.22C9.61 28.37 4.47 24.75 4.47 16.7C4.46 5.87 13.59 0 25.04 0C37.18 0 44.39 6.71 44.39 14.57C44.39 15.26 44.32 15.69 44.25 16.02H31.49C31.53 15.91 31.53 15.69 31.53 15.44C31.53 12.07 28.2 10.55 24.97 10.55C21.42 10.55 19.06 12.36 19.06 14.75C19.06 17.14 21.31 18.45 25.04 19.53L30.66 21.16C36.17 22.75 41.89 25.91 41.89 34.24C41.89 45.15 32.14 51.09 20.26 51.09C10.62 51.09 0 47.07 0 36.27C0 35.62 0.04 35.18 0.15 34.71H13.41V34.72Z" fill="#767676"/>
<path d="M78.0999 50.26L65.0199 24.28H64.4799L59.9499 50.26H46.6499L55.3499 0.830017H66.3299L79.2999 26.41H79.8399L84.2999 0.830017H97.5999L88.8999 50.26H78.0999Z" fill="#767676"/>
<path d="M118.23 0.830017H136.24L142.84 50.26H127.37L126.72 40.33H113.09L108.96 50.26H94.5L118.23 0.830017ZM124.5 12.9L117.29 30.22H126.21L125.27 12.9H124.51H124.5Z" fill="#767676"/>
<path d="M148.43 50.26L157.12 0.799988H177.12C187.67 0.799988 193.94 6.62999 193.94 16.49C193.94 18.05 193.79 19.61 193.47 21.09C191.69 29.71 184.85 36.53 172.74 36.53H165.13L162.7 50.26H148.42H148.43ZM169.7 11.01L167.16 25.4H171.62C175.64 25.4 178.4 22.97 179.3 19.57C179.52 18.85 179.66 17.94 179.66 17.14C179.66 12.5 176.25 11.02 173.5 11.02H169.7V11.01Z" fill="#767676"/>
<path d="M194.93 50.26L203.63 0.799988H223.63C234.18 0.799988 240.45 6.62999 240.45 16.49C240.45 18.05 240.3 19.61 239.98 21.09C238.2 29.71 231.36 36.53 219.25 36.53H211.64L209.21 50.26H194.93V50.26ZM216.2 11.01L213.66 25.4H218.12C222.14 25.4 224.9 22.97 225.8 19.57C226.02 18.85 226.16 17.94 226.16 17.14C226.16 12.5 222.75 11.02 220 11.02H216.2V11.01Z" fill="#767676"/>
<path d="M266 50.26H251.68L254.43 34.75L243.71 0.830017H259.08L263.68 20.69H264.22L276.11 0.830017H291.22L268.79 34.32L266 50.27V50.26Z" fill="#767676"/>
</svg>
