<svg width="206" height="222" viewBox="0 0 206 222" fill="none" xmlns="http://www.w3.org/2000/svg">
<path d="M76.5248 102.761C76.5248 102.761 60.4912 93.1506 60.4757 75.9555C60.4757 75.9555 51.4385 71.1164 51.4385 76.2243C51.4385 81.3322 54.7093 111.364 77.5375 116.11L83.5004 113.081L76.5299 102.767L76.5248 102.761Z" fill="#979797" stroke="#979797" stroke-width="1.46627" stroke-miterlimit="10"/>
<path d="M134.525 222C169.444 222 197.75 218.496 197.75 214.173C197.75 209.85 169.444 206.346 134.525 206.346C99.6074 206.346 71.3008 209.85 71.3008 214.173C71.3008 218.496 99.6074 222 134.525 222Z" fill="#979797"/>
<path d="M125.613 185.309L115.915 183.991L119.061 156.637L130.651 158.627L125.613 185.309Z" fill="#979797"/>
<path d="M142.974 185.309L152.668 183.991L149.521 160.55L137.937 158.627L142.974 185.309Z" fill="#979797"/>
<path d="M115.599 191.074C115.599 191.074 109.946 192.33 109.946 187.041C109.946 187.041 109.067 183.515 113.47 183.665C117.872 183.81 128.372 185.65 128.372 185.65C128.372 185.65 129.989 186.09 129.989 190.055C129.989 194.021 126.759 193.726 125.804 193.581C124.848 193.436 127.126 194.315 127.421 196.445C127.715 198.575 128.377 208.419 125.881 210.399H87.2001C87.2001 210.399 83.5315 208.046 83.5315 200.266C83.5315 200.266 83.0923 189.766 93.442 189.91C93.442 189.91 101.663 189.176 102.763 195.566C102.763 195.566 103.13 191.234 106.949 191.234C110.767 191.234 115.609 191.084 115.609 191.084L115.599 191.074Z" fill="white" stroke="#979797" stroke-width="2.06517" stroke-miterlimit="10"/>
<path d="M127.101 212.736C127.101 213.982 126.093 214.99 124.848 214.99H87.955C86.7097 214.99 85.7021 213.982 85.7021 212.736C85.7021 211.49 86.7097 210.482 87.955 210.482H124.848C126.093 210.482 127.101 211.49 127.101 212.736Z" fill="white" stroke="#979797" stroke-width="2.06517" stroke-miterlimit="10"/>
<path d="M152.579 191.074C152.579 191.074 158.232 192.33 158.232 187.041C158.232 187.041 159.11 183.515 154.708 183.665C150.305 183.815 139.806 185.65 139.806 185.65C139.806 185.65 138.188 186.09 138.188 190.055C138.188 194.021 141.418 193.726 142.374 193.581C143.33 193.436 141.051 194.315 140.757 196.445C140.462 198.575 139.801 208.419 142.296 210.399H180.977C180.977 210.399 184.646 208.046 184.646 200.266C184.646 200.266 185.085 189.766 174.735 189.91C174.735 189.91 166.515 189.176 165.414 195.566C165.414 195.566 165.047 191.234 161.229 191.234C157.41 191.234 152.569 191.084 152.569 191.084L152.579 191.074Z" fill="white" stroke="#979797" stroke-width="2.06517" stroke-miterlimit="10"/>
<path d="M141.072 212.736C141.072 213.982 142.08 214.99 143.325 214.99H180.218C181.464 214.99 182.471 213.982 182.471 212.736C182.471 211.49 181.464 210.482 180.218 210.482H143.325C142.08 210.482 141.072 211.49 141.072 212.736Z" fill="white" stroke="#979797" stroke-width="2.06517" stroke-miterlimit="10"/>
<path d="M44.7685 10.4062C44.7685 10.4062 42.7637 8.70529 38.5163 10.4062C34.269 12.1071 31.0499 16.5635 29.6341 19.4432C28.2183 22.3228 28.9055 28.0252 28.9055 28.0252L52.4055 27.1463L44.7685 10.4114V10.4062Z" fill="white" stroke="#979797" stroke-width="2.06517" stroke-miterlimit="10"/>
<path d="M115.439 25.4766H2V84.7702H115.439V25.4766Z" fill="white" stroke="#979797" stroke-width="2.06517" stroke-miterlimit="10"/>
<path d="M80.3852 31.2099C85.168 31.2099 89.0452 25.9418 89.0452 19.4432C89.0452 12.9446 85.168 7.67651 80.3852 7.67651C75.6023 7.67651 71.7251 12.9446 71.7251 19.4432C71.7251 25.9418 75.6023 31.2099 80.3852 31.2099Z" fill="white" stroke="#979797" stroke-width="2.06517" stroke-miterlimit="10"/>
<path d="M67.8496 32.063C73.3687 32.063 77.8428 25.7162 77.8428 17.8871C77.8428 10.058 73.3687 3.71124 67.8496 3.71124C62.3305 3.71124 57.8564 10.058 57.8564 17.8871C57.8564 25.7162 62.3305 32.063 67.8496 32.063Z" fill="white" stroke="#979797" stroke-width="2.06517" stroke-miterlimit="10"/>
<path d="M54.7612 32.0682C60.2803 32.0682 64.7544 25.3372 64.7544 17.0341C64.7544 8.73099 60.2803 2 54.7612 2C49.2422 2 44.7681 8.73099 44.7681 17.0341C44.7681 25.3372 49.2422 32.0682 54.7612 32.0682Z" fill="white" stroke="#979797" stroke-width="2.06517" stroke-miterlimit="10"/>
<path d="M183.52 165.379L78.3023 151.172L76.8452 77.2273L183.52 87.7894V165.379Z" stroke="#231F20" stroke-width="1.95159" stroke-miterlimit="10"/>
<path d="M205 157.728L185.133 165.002L183.521 87.7893L204.514 79.6519L205 157.728Z" fill="white" stroke="#979797" stroke-width="1.54888" stroke-miterlimit="10"/>
<path d="M183.402 87.3809L79.6357 75.9813L104.882 69.5757L202.473 79.3158L183.402 87.3809Z" fill="white" stroke="#979797" stroke-width="1.54888" stroke-miterlimit="10"/>
<path d="M183.52 165.379L78.3023 151.172L76.8452 77.2273L183.52 87.7894V165.379Z" fill="white" stroke="#979797" stroke-width="2.06517" stroke-miterlimit="10"/>
<path d="M84.8955 120.587C85.8979 127.763 86.4043 135.301 86.797 142.549L86.1253 141.825C93.0337 142.771 99.9369 143.81 106.747 145.32C99.7768 145.015 92.8425 144.229 85.9238 143.355L85.283 143.278L85.252 142.632C84.9058 135.378 84.6268 127.835 84.8903 120.587H84.8955Z" fill="#979797"/>
<path d="M172.2 121.978C173.264 128.663 173.274 135.508 172.2 142.192C171.125 135.508 171.135 128.663 172.2 121.978V121.978Z" fill="#979797"/>
<path d="M184.854 138.935L204.499 132.173L204.851 157.743L185.288 165.209L184.854 138.935Z" fill="#979797"/>
<path d="M117.712 74.8026L96.5635 72.8225V65.109L117.712 66.8823V74.8026Z" fill="white" stroke="#979797" stroke-width="1.46627" stroke-miterlimit="10"/>
<path d="M120.957 72.1401L118.379 75.5005L118.151 66.2877L120.869 64.9746L120.957 72.1401Z" fill="#979797"/>
<path d="M118.152 66.2877L95.835 64.3542L100.418 63.4908L120.828 65.0314L118.152 66.2877Z" fill="#979797"/>
<path d="M192.052 79.7605C192.052 79.7605 172.158 82.3661 170.277 94.1173C168.345 106.199 170.949 113.897 170.949 113.897C170.949 113.897 170.536 105.31 160.212 95.4253C151.614 87.2 138.825 91.3359 138.825 91.3359C138.825 91.3359 151.624 90.7724 156.874 80.0914C162.403 68.8417 159.468 57.8349 159.468 57.8349C159.468 57.8349 158.775 65.3106 166.542 75.8676C173.595 85.4526 192.052 79.7553 192.052 79.7553V79.7605Z" fill="white"/>
<path d="M191.974 79.776C191.974 79.776 191.999 79.838 192.03 79.838C192.061 79.838 192.03 79.838 192.036 79.838C191.855 79.869 191.519 79.9363 191.328 79.9724C184.486 81.5027 175.723 84.3255 172.06 90.7465C171.073 92.4371 170.84 94.3034 170.618 96.2421C170.075 101.107 170.081 106.055 170.928 110.878C171.088 111.829 171.3 112.806 171.563 113.691L170.292 113.934C169.367 106.67 164.815 100.28 159.653 95.2857C156.966 92.7731 153.432 91.2997 149.805 90.8189C146.193 90.3226 142.411 90.6793 138.944 91.734L138.799 90.943C144.219 90.3588 149.639 88.084 153.36 84.0308C158.16 78.4732 159.633 70.6356 159.374 63.4598C159.286 61.64 159.059 59.7736 158.666 58.0572L160.284 57.9228C160.284 64.1112 163.286 70.0049 166.706 75.03C171.817 82.6608 183.427 81.5803 191.312 79.869L191.669 79.7812L191.844 79.7346L191.932 79.7139C191.932 79.7139 191.979 79.6984 191.963 79.7088C191.948 79.7139 191.943 79.7708 191.968 79.7812L191.974 79.776ZM192.123 79.745C192.123 79.745 192.087 79.8277 192.041 79.8432L191.984 79.8639L191.896 79.8949C191.788 79.9311 191.483 80.0241 191.369 80.0603C183.608 82.2369 172.638 83.5604 166.629 76.9584C162.63 71.8815 159.317 65.9051 158.682 59.3704C158.506 58.1399 158.94 53.8334 158.971 52.5513C159.457 54.5675 160.609 58.5277 160.785 60.5078C161.627 67.1718 160.604 74.0994 157.643 80.1482C154.305 87.293 146.477 91.2739 138.84 91.7495L135.053 91.9718L138.701 90.9585C145.02 89.3248 152.151 89.6091 157.762 93.1867C158.542 93.7089 159.307 94.2621 160.005 94.898C164.815 99.3079 169.068 104.679 171.011 111.007C171.719 112.956 171.899 117.759 172.142 119.843L170.329 114.109C169.125 110.175 168.84 106.158 168.892 102.094C168.928 100.083 169.099 98.0774 169.352 96.0819C169.61 94.0708 169.972 91.9356 171.052 90.1727C175.144 83.4621 184.326 80.7738 191.669 79.7191L191.855 79.6984L191.948 79.6881H191.994L192.015 79.6829H192.046C192.082 79.6829 192.123 79.7243 192.123 79.7398V79.745Z" fill="#979797"/>
<path d="M124.362 139.643C124.362 139.643 129.731 144.405 134.681 143.366C135.601 143.174 137.621 142.745 138.468 142.477C141.212 141.598 147.521 139.023 149.66 137.079C154.998 132.23 158.899 126.46 157.819 117.046C156.781 107.993 150.844 100.368 143.32 97.0228C142.747 96.7694 141.873 96.1801 141.212 96.1697C141.212 96.1697 131.901 95.8647 127.106 95.9888C122.631 96.1077 122.652 96.6557 122.652 96.6557L124.367 139.638L124.362 139.643Z" fill="#979797"/>
<path d="M125.416 144.503C138.52 144.503 149.143 133.874 149.143 120.763C149.143 107.652 138.52 97.0228 125.416 97.0228C112.312 97.0228 101.688 107.652 101.688 120.763C101.688 133.874 112.312 144.503 125.416 144.503Z" fill="white" stroke="white" stroke-width="2.13745" stroke-miterlimit="10"/>
<path d="M124.92 141.412C136.303 141.412 145.531 132.179 145.531 120.789C145.531 109.399 136.303 100.166 124.92 100.166C113.536 100.166 104.308 109.399 104.308 120.789C104.308 132.179 113.536 141.412 124.92 141.412Z" fill="white" stroke="#979797" stroke-width="1.54888" stroke-miterlimit="10"/>
<path d="M184.264 137.208L204.85 130.152L204.69 127.484L184.171 134.024L184.264 137.208Z" fill="#979797"/>
<path d="M184.264 132.313L204.85 125.256L204.69 122.588L184.171 129.128L184.264 132.313Z" fill="#979797"/>
<path d="M184.445 126.967L204.695 120.52L204.979 119.124L184.192 125.462L184.445 126.967Z" fill="#979797"/>
<path d="M103.818 100.714L86.0843 98.5221L85.9189 86.0213L103.818 87.9186V100.714Z" fill="#979797"/>
<path d="M99.8131 98.3618L88.3938 96.9815L88.0425 88.1719L99.777 89.6402L99.8131 98.3618Z" fill="white"/>
<path d="M187.571 157.738C188.259 157.526 188.796 157.878 188.998 158.54C189.018 158.607 189.044 158.7 189.06 158.788C189.075 158.865 189.091 158.989 189.096 159.067C189.147 159.811 188.744 160.447 187.943 160.695L186.796 161.052L186.424 158.095L187.571 157.738V157.738ZM187.52 160.127L187.659 160.085C188.005 159.977 188.269 159.718 188.243 159.248C188.243 159.181 188.228 159.072 188.212 158.994C188.202 158.938 188.181 158.865 188.171 158.824C188.047 158.426 187.747 158.384 187.494 158.462L187.323 158.514L187.525 160.122L187.52 160.127Z" fill="white"/>
<path d="M191.644 159.553L189.68 160.158L189.308 157.201L191.272 156.596L191.354 157.273L190.202 157.63L190.264 158.131L191.344 157.795L191.421 158.395L190.336 158.731L190.398 159.232L191.556 158.876L191.638 159.553H191.644Z" fill="white"/>
<path d="M192.743 159.212L191.508 156.518L192.397 156.244L193.136 158.281L193.172 158.271L193.358 155.944L194.247 155.67L193.771 158.891L192.738 159.212H192.743Z" fill="white"/>
<path d="M194.552 156.751C194.459 156.001 194.816 155.448 195.544 155.22C196.247 155.003 196.862 155.262 197.074 155.944C197.105 156.037 197.136 156.146 197.146 156.254L197.193 156.663C197.275 157.407 196.939 157.966 196.2 158.193C195.503 158.41 194.888 158.152 194.681 157.475C194.65 157.376 194.619 157.257 194.604 157.154L194.557 156.751H194.552ZM195.425 156.921C195.436 157.014 195.456 157.102 195.477 157.169C195.56 157.443 195.761 157.609 196.04 157.521C196.278 157.449 196.407 157.206 196.355 156.751L196.319 156.466C196.304 156.373 196.283 156.285 196.268 156.223C196.185 155.949 195.983 155.784 195.704 155.872C195.467 155.944 195.338 156.182 195.394 156.637L195.431 156.921H195.425Z" fill="white"/>
<path d="M199.564 157.107L198.365 155.861L198.334 155.872L198.53 157.428L197.776 157.661L197.404 154.703L198.029 154.512L199.212 155.737L199.243 155.727L199.047 154.197L199.801 153.964L200.173 156.921L199.558 157.113L199.564 157.107Z" fill="white"/>
<path d="M202.701 156.135L200.738 156.74L200.366 153.783L202.329 153.178L202.412 153.856L201.26 154.212L201.322 154.714L202.402 154.378L202.479 154.977L201.394 155.313L201.456 155.815L202.613 155.458L202.696 156.135H202.701Z" fill="white"/>
<path d="M110.664 118.855C112.126 130.539 114.947 133.217 125.643 137.462L125.633 137.72L123.845 137.622L122.068 137.41C115.666 136.423 110.715 132.638 109.93 125.923C109.62 123.534 109.796 121.109 110.416 118.788L110.664 118.86V118.855Z" fill="#979797"/>
<path d="M139.186 124.206C137.724 112.522 134.903 109.844 124.207 105.6L124.217 105.341L126.005 105.439L127.783 105.651C134.185 106.639 139.135 110.423 139.92 117.139C140.23 119.527 140.055 121.952 139.434 124.273L139.186 124.201V124.206Z" fill="#979797"/>
<path d="M43.0786 40.7329L40.2677 56.9199H43.9932L43.0218 62.3534H39.2963L38.6246 66.2877H31.9228L32.6152 62.3534H20.333L21.3251 56.7493C24.7147 51.4863 28.9104 45.7167 32.579 40.7329H43.0838H43.0786ZM33.5091 56.9199L35.514 46.0889H35.1574C32.8167 49.2374 29.8766 53.2648 27.722 56.77V56.9199H33.5091Z" fill="#979797"/>
<path d="M48.2508 51.2433C49.4134 44.2174 53.3818 40.3193 59.5048 40.3193C65.6278 40.3193 69.0743 44.1037 69.0743 50.3231C69.0743 51.4656 69.0019 52.5513 68.8314 53.4147L68.4025 55.7773C67.1108 62.8394 63.2354 66.7169 57.1279 66.7169C51.0204 66.7169 47.5791 62.9118 47.5791 56.7855C47.5791 55.6791 47.6359 54.8571 47.8581 53.5078L48.2508 51.2433ZM55.0869 54.7072C54.844 56.2271 54.8079 56.4856 54.8079 56.9561C54.7304 59.6186 55.5571 60.8697 57.3191 60.8697C59.2103 60.8697 60.4297 59.0913 61.0291 55.493L61.5716 52.2153C61.7215 51.4656 61.8506 50.4162 61.8506 49.9871C61.923 47.459 61.0807 46.1458 59.3239 46.1458C57.5671 46.1458 56.2133 48.0587 55.6139 51.5225L55.0921 54.7072H55.0869Z" fill="#979797"/>
<path d="M93.7002 40.7329L90.8893 56.9199H94.6148L93.6433 62.3534H89.9179L89.2461 66.2877H82.5444L83.2368 62.3534H70.9546L71.9467 56.7493C75.3363 51.4863 79.532 45.7167 83.2006 40.7329H93.7053H93.7002ZM84.1307 56.9199L86.1355 46.0889H85.779C83.4383 49.2374 80.4982 53.2648 78.3435 56.77V56.9199H84.1307Z" fill="#979797"/>
</svg>
