<svg width="175" height="215" viewBox="0 0 175 215" fill="none" xmlns="http://www.w3.org/2000/svg">
<path d="M44.0203 94.89C44.0203 94.89 27.9238 85.2085 27.9082 67.887C27.9082 67.887 18.8354 63.0124 18.8354 68.1579C18.8354 73.3033 22.1191 103.556 45.037 108.337L51.0233 105.285L44.0255 94.8952L44.0203 94.89Z" fill="#979797" stroke="#979797" stroke-width="1.8193" stroke-miterlimit="10"/>
<path d="M103.281 215C138.336 215 166.754 211.47 166.754 207.115C166.754 202.761 138.336 199.23 103.281 199.23C68.226 199.23 39.8081 202.761 39.8081 207.115C39.8081 211.47 68.226 215 103.281 215Z" fill="#979797"/>
<path d="M151.431 157.963L45.7995 143.657L44.3418 69.163L151.431 79.8027V157.963Z" stroke="#231F20" stroke-width="2.42146" stroke-miterlimit="10"/>
<path d="M173 150.26L153.054 157.583L151.431 79.8027L172.512 71.6107L173 150.26Z" fill="white" stroke="#979797" stroke-width="1.92179" stroke-miterlimit="10"/>
<path d="M151.312 79.3913L47.1382 67.9131L72.4838 61.4553L170.464 71.267L151.312 79.3913Z" fill="white" stroke="#979797" stroke-width="1.92179" stroke-miterlimit="10"/>
<path d="M151.431 157.963L45.7995 143.657L44.3418 69.163L151.431 79.8027V157.963Z" fill="white" stroke="#979797" stroke-width="2.56239" stroke-miterlimit="10"/>
<path d="M71.4151 92.8277L53.6172 90.6143L53.4512 78.0216L71.4151 79.9329V92.8277Z" fill="#979797"/>
<path d="M52.4189 112.842C53.4252 120.07 53.9336 127.663 54.3278 134.965L53.6535 134.236C60.589 135.189 67.5194 136.236 74.3564 137.756C67.3586 137.449 60.3971 136.657 53.4512 135.777L52.8079 135.699L52.7768 135.048C52.4293 127.741 52.1491 120.143 52.4137 112.842H52.4189Z" fill="#979797"/>
<path d="M140.07 114.243C141.139 120.976 141.149 127.872 140.07 134.606C138.992 127.872 139.002 120.976 140.07 114.243Z" fill="#979797"/>
<path d="M152.769 131.325L172.492 124.513L172.844 150.276L153.21 157.791L152.769 131.325Z" fill="#979797"/>
<path d="M85.3639 66.7205L64.1318 64.7258V56.9556L85.3639 58.7419V66.7205Z" fill="white" stroke="#979797" stroke-width="1.8193" stroke-miterlimit="10"/>
<path d="M88.6216 64.0384L86.0331 67.4235L85.8101 58.1482L88.5334 56.8254L88.6216 64.0384Z" fill="#979797"/>
<path d="M85.8102 58.1483L63.4058 56.2005L68.0018 55.3308L88.4921 56.8775L85.8102 58.1483Z" fill="#979797"/>
<path d="M159.996 71.7148C159.996 71.7148 140.024 74.3396 138.136 86.1772C136.196 98.3481 138.81 106.103 138.81 106.103C138.81 106.103 138.395 97.4523 128.031 87.4948C119.399 79.209 106.56 83.3753 106.56 83.3753C106.56 83.3753 119.409 82.8077 124.68 72.0481C130.23 60.7157 127.284 49.6281 127.284 49.6281C127.284 49.6281 126.589 57.1587 134.385 67.7933C141.466 77.4487 159.996 71.7096 159.996 71.7096V71.7148Z" fill="white"/>
<path d="M159.923 71.7305C159.923 71.7305 159.949 71.793 159.98 71.793C160.011 71.793 159.98 71.793 159.985 71.793C159.803 71.8242 159.466 71.8919 159.274 71.9284C152.406 73.4699 143.608 76.3134 139.931 82.7817C138.94 84.4846 138.706 86.3647 138.483 88.3177C137.939 93.2183 137.944 98.2023 138.794 103.061C138.955 104.02 139.168 105.004 139.433 105.894L138.156 106.139C137.228 98.822 132.658 92.385 127.476 87.3542C124.778 84.8232 121.23 83.3389 117.588 82.8546C113.962 82.3546 110.165 82.714 106.684 83.7764L106.539 82.9796C111.981 82.3911 117.422 80.0996 121.157 76.0166C125.982 70.4181 127.455 62.5229 127.195 55.2943C127.107 53.4611 126.879 51.5811 126.485 49.8521L128.108 49.7167C128.114 55.9609 131.117 61.8771 134.556 66.9496C139.687 74.6365 151.343 73.548 159.259 71.8242L159.617 71.7357L159.793 71.6888L159.881 71.668C159.881 71.668 159.928 71.6524 159.912 71.6628C159.897 71.668 159.892 71.7253 159.918 71.7357L159.923 71.7305ZM160.073 71.6992C160.073 71.6992 160.037 71.7826 159.99 71.7982L159.933 71.819L159.845 71.8503C159.736 71.8867 159.43 71.9805 159.316 72.0169C151.524 74.2094 140.512 75.5427 134.479 68.8922C130.463 63.778 127.138 57.7577 126.5 51.1749C126.324 49.9354 126.76 45.5972 126.791 44.3056C127.278 46.3367 128.435 50.326 128.612 52.3206C129.457 59.0336 128.43 66.0122 125.458 72.1054C122.107 79.3028 114.248 83.3129 106.581 83.792L102.778 84.0159L106.441 82.9952C112.785 81.3495 119.943 81.6359 125.577 85.2398C126.36 85.7658 127.128 86.323 127.828 86.9636C132.658 91.406 136.927 96.817 138.877 103.191C139.588 105.155 139.77 109.993 140.014 112.092L138.193 106.316C136.984 102.353 136.699 98.3064 136.751 94.213C136.787 92.1871 136.958 90.1665 137.212 88.1562C137.472 86.1303 137.835 83.9795 138.919 82.2036C143.027 75.4437 152.245 72.7356 159.617 71.6732L159.803 71.6524L159.897 71.6419H159.944H159.969H160.001C160.037 71.6419 160.078 71.6836 160.078 71.6992H160.073Z" fill="#979797"/>
<path d="M92.0452 132.043C92.0452 132.043 97.4349 136.84 102.404 135.793C103.328 135.6 105.356 135.168 106.207 134.897C108.961 134.012 115.295 131.418 117.443 129.46C122.801 124.575 126.718 118.763 125.634 109.279C124.591 100.16 118.631 92.4788 111.078 89.1093C110.502 88.8541 109.625 88.2604 108.961 88.25C108.961 88.25 99.6136 87.9427 94.7997 88.0677C90.3074 88.1875 90.3281 88.7395 90.3281 88.7395L92.0503 132.038L92.0452 132.043Z" fill="#979797"/>
<path d="M93.1038 136.939C106.259 136.939 116.924 126.232 116.924 113.024C116.924 99.8162 106.259 89.1092 93.1038 89.1092C79.948 89.1092 69.2832 99.8162 69.2832 113.024C69.2832 126.232 79.948 136.939 93.1038 136.939Z" fill="white" stroke="white" stroke-width="2.65207" stroke-miterlimit="10"/>
<path d="M92.6003 133.824C104.028 133.824 113.293 124.523 113.293 113.05C113.293 101.577 104.028 92.2756 92.6003 92.2756C81.1721 92.2756 71.9077 101.577 71.9077 113.05C71.9077 124.523 81.1721 133.824 92.6003 133.824Z" fill="white" stroke="#979797" stroke-width="1.92179" stroke-miterlimit="10"/>
<path d="M93.2955 178.039L83.564 176.717L86.7231 149.156L98.3584 151.167L93.2955 178.039Z" fill="#979797"/>
<path d="M110.73 178.039L120.462 176.717L117.303 153.104L105.667 151.167L110.73 178.039Z" fill="#979797"/>
<path d="M83.2424 183.846C83.2424 183.846 77.5674 185.112 77.5674 179.784C77.5674 179.784 76.6855 176.232 81.1052 176.383C85.5249 176.529 96.0657 178.383 96.0657 178.383C96.0657 178.383 97.6893 178.826 97.6893 182.82C97.6893 186.815 94.4472 186.518 93.4875 186.372C92.5279 186.226 94.8155 187.112 95.1112 189.257C95.4069 191.403 96.0709 201.319 93.5654 203.313H54.7273C54.7273 203.313 51.0442 200.944 51.0442 193.106C51.0442 193.106 50.6033 182.529 60.9936 182.675C60.9936 182.675 69.2468 181.935 70.3517 188.372C70.3517 188.372 70.72 184.008 74.5535 184.008C78.387 184.008 83.2476 183.857 83.2476 183.857L83.2424 183.846Z" fill="white" stroke="#979797" stroke-width="2.56239" stroke-miterlimit="10"/>
<path d="M94.7944 205.673C94.7944 206.928 93.7829 207.943 92.5327 207.943H55.4946C54.2445 207.943 53.2329 206.928 53.2329 205.673C53.2329 204.418 54.2445 203.402 55.4946 203.402H92.5327C93.7829 203.402 94.7944 204.418 94.7944 205.673Z" fill="white" stroke="#979797" stroke-width="2.56239" stroke-miterlimit="10"/>
<path d="M120.374 183.846C120.374 183.846 126.049 185.112 126.049 179.784C126.049 179.784 126.931 176.232 122.511 176.383C118.091 176.534 107.55 178.383 107.55 178.383C107.55 178.383 105.927 178.826 105.927 182.82C105.927 186.815 109.169 186.518 110.129 186.372C111.088 186.226 108.801 187.112 108.505 189.257C108.209 191.403 107.545 201.319 110.051 203.313H148.884C148.884 203.313 152.567 200.944 152.567 193.106C152.567 193.106 153.008 182.529 142.617 182.675C142.617 182.675 134.364 181.935 133.259 188.372C133.259 188.372 132.891 184.008 129.057 184.008C125.224 184.008 120.363 183.857 120.363 183.857L120.374 183.846Z" fill="white" stroke="#979797" stroke-width="2.56239" stroke-miterlimit="10"/>
<path d="M108.821 205.673C108.821 206.928 109.833 207.943 111.083 207.943H148.121C149.371 207.943 150.383 206.928 150.383 205.673C150.383 204.418 149.371 203.402 148.121 203.402H111.083C109.833 203.402 108.821 204.418 108.821 205.673Z" fill="white" stroke="#979797" stroke-width="2.56239" stroke-miterlimit="10"/>
<path d="M152.178 129.585L172.85 122.482L172.689 119.789L152.084 126.382L152.178 129.585Z" fill="#979797"/>
<path d="M152.178 124.653L172.85 117.55L172.689 114.857L152.084 121.45L152.178 124.653Z" fill="#979797"/>
<path d="M152.359 119.268L172.689 112.774L172.979 111.368L152.11 117.753L152.359 119.268Z" fill="#979797"/>
<path d="M10.5151 55.5339C10.1468 57.1275 9.75773 58.7159 9.38942 60.3043C8.77212 62.9603 10.1727 64.33 11.8223 66.2361C16.5065 71.6471 25.4496 71.793 31.052 67.7985C32.5616 66.7205 34.844 64.9706 35.7311 63.3145C36.7737 61.3719 35.8919 57.6952 35.7985 55.5339H10.5151Z" fill="white" stroke="#979797" stroke-width="2.56239" stroke-miterlimit="10"/>
<path d="M8.44499 32.2545C8.44499 32.2545 8.57986 28.8329 7.62538 24.8645C6.67089 20.8961 5.44148 20.0732 5.03686 17.4745C4.59074 14.6518 3.56364 10.6938 4.82418 7.97005C6.18328 5.03279 9.38391 3.18919 12.5482 3.18399C18.5449 3.18399 20.5783 9.68346 20.5783 14.5997C20.5783 18.1567 20.4435 21.0263 20.4435 21.0315C20.568 18.4536 21.5536 15.86 22.4458 13.48C24.1317 8.96476 26.6009 1.2831 32.8206 2.05387C35.5751 2.39759 38.4645 6.04313 38.5164 8.77728C38.5786 12.4332 37.0587 16.7714 35.3832 19.9639C34.2264 22.1668 33.4327 25.177 32.3434 27.4112L31.4459 31.6921L27.2908 37.551C27.2908 37.551 29.8482 32.3795 23.172 30.6036C16.4907 28.8225 8.31011 32.6555 8.31011 32.6555" fill="white"/>
<path d="M8.44499 32.2545C8.44499 32.2545 8.57986 28.8329 7.62538 24.8645C6.67089 20.8961 5.44148 20.0732 5.03686 17.4745C4.59074 14.6518 3.56364 10.6938 4.82418 7.97005C6.18328 5.03279 9.38391 3.18919 12.5482 3.18399C18.5449 3.18399 20.5783 9.68346 20.5783 14.5997C20.5783 18.1567 20.4435 21.0263 20.4435 21.0315C20.568 18.4536 21.5536 15.86 22.4458 13.48C24.1317 8.96476 26.6009 1.2831 32.8206 2.05387C35.5751 2.39759 38.4645 6.04313 38.5164 8.77728C38.5786 12.4332 37.0587 16.7714 35.3832 19.9639C34.2264 22.1668 33.4327 25.177 32.3434 27.4112L31.4459 31.6921L27.2908 37.551C27.2908 37.551 29.8482 32.3795 23.172 30.6036C16.4907 28.8225 8.31011 32.6555 8.31011 32.6555" stroke="#979797" stroke-width="2.56239" stroke-miterlimit="10"/>
<path d="M40.4358 47.0814C40.4358 56.9712 31.861 64.9914 21.2891 64.9914C10.7172 64.9914 2.13721 56.9764 2.13721 47.0814C2.13721 37.1864 10.712 29.1714 21.2839 29.1714C25.6413 29.1714 29.6564 35.9417 32.8726 38.2332C37.4686 41.5037 40.4306 41.2642 40.4306 47.0814H40.4358Z" fill="white" stroke="#979797" stroke-width="2.56239" stroke-miterlimit="10"/>
<path d="M17.6943 47.1231C17.6943 47.1231 26.8968 43.5921 26.7464 38.2592C26.5959 32.9263 27.1977 33.3794 26.2224 32.1764C25.0553 30.739 24.521 29.8432 22.7106 29.3381C20.729 28.786 18.7007 28.4006 16.6361 28.6767C9.13513 29.6662 1.33846 38.3321 2.0647 46.144C2.66125 52.6018 3.85954 56.0546 5.35351 57.5597C6.84748 59.0596 11.4124 62.8145 13.5081 63.4186C15.6038 64.0175 18.3687 65.4445 20.6149 65.3716C22.6846 65.3039 25.1953 64.4133 26.9694 63.3301C30.7977 60.9917 30.4554 53.5652 27.4052 50.8623" fill="white"/>
<path d="M17.6943 47.1231C20.9935 45.4826 26.1394 42.5714 26.2328 38.4467C26.1446 36.8791 26.1394 35.098 26.155 33.52C26.1394 33.2701 26.1187 33.1659 26.0357 33.0357C25.2835 32.1347 24.495 30.9578 23.4471 30.4265C22.6016 30.0255 21.4552 29.8328 20.5007 29.6506C12.2787 28.0361 3.58975 36.6396 3.06583 44.6285C3.0347 46.4669 3.31482 48.3365 3.59494 50.1437C4.00475 52.3831 4.47161 54.7839 5.80478 56.6171C7.04457 57.966 8.5126 59.1273 9.9547 60.2574C11.0181 61.0542 12.0712 61.8302 13.228 62.3979C13.949 62.7208 14.7686 62.9291 15.4845 63.2364C17.5387 64.0228 19.4943 64.9081 21.4759 64.6113C23.4938 64.3509 25.5843 63.6634 27.2703 62.476C30.2945 59.846 30.113 53.7007 27.3999 50.8676C29.947 53.1122 30.5383 57.0337 29.7031 60.2262C29.1273 62.6427 27.1821 64.1217 24.9463 64.9914C23.3486 65.6424 21.6367 66.1632 19.8678 66.0695C17.2845 65.8091 14.9554 64.7102 12.5328 63.9655C9.69533 62.601 7.29875 60.5907 4.95923 58.5284C4.63242 58.2264 4.2693 57.8358 4.00993 57.4712C1.99203 54.3881 1.60298 50.6957 1.13611 47.1543C0.617371 43.6546 1.62373 40.0091 3.43413 37.0666C6.27683 32.4003 10.9662 28.6454 16.4493 27.8174C19.1001 27.5414 21.7145 28.0309 24.1474 29.0985C25.2368 29.6714 25.9578 30.7078 26.653 31.6244C26.9071 31.9577 27.3169 32.4628 27.3896 32.9628C27.4622 34.8533 27.208 36.5563 27.2495 38.4571C26.876 43.0766 21.4915 45.6857 17.6943 47.1179V47.1231Z" fill="#979797"/>
<path d="M41.3695 42.9464C40.415 46.2065 36.2754 47.8626 32.1255 46.6336C27.9756 45.4097 25.3871 41.7694 26.3415 38.504L29.0027 29.4266C29.9572 26.1665 34.0967 24.5104 38.2466 25.7394C42.3966 26.9633 44.9851 30.6036 44.0306 33.869L41.3695 42.9464Z" fill="white" stroke="#979797" stroke-width="2.56239" stroke-miterlimit="10"/>
<path d="M67.3945 90.4529L55.9356 89.0624L55.5776 80.1933L67.3582 81.6672L67.3945 90.4529Z" fill="white"/>
<path d="M155.503 150.266C156.193 150.052 156.732 150.406 156.934 151.073C156.955 151.141 156.981 151.234 156.997 151.323C157.012 151.401 157.028 151.526 157.033 151.604C157.085 152.354 156.68 152.995 155.876 153.245L154.725 153.604L154.351 150.625L155.503 150.266ZM155.451 152.672L155.591 152.63C155.938 152.521 156.203 152.26 156.177 151.786C156.177 151.719 156.161 151.609 156.146 151.531C156.136 151.474 156.115 151.401 156.104 151.359C155.98 150.958 155.679 150.917 155.425 150.995L155.254 151.047L155.456 152.667L155.451 152.672Z" fill="white"/>
<path d="M159.59 152.094L157.619 152.703L157.246 149.724L159.217 149.115L159.3 149.797L158.143 150.156L158.205 150.661L159.289 150.323L159.367 150.927L158.278 151.266L158.34 151.771L159.502 151.411L159.585 152.094H159.59Z" fill="white"/>
<path d="M160.69 151.755L159.45 149.042L160.342 148.766L161.084 150.818L161.121 150.807L161.307 148.464L162.2 148.188L161.722 151.432L160.685 151.755H160.69Z" fill="white"/>
<path d="M162.511 149.271C162.418 148.516 162.776 147.959 163.507 147.729C164.213 147.511 164.83 147.771 165.043 148.459C165.074 148.552 165.105 148.662 165.115 148.771L165.162 149.182C165.245 149.932 164.908 150.495 164.166 150.724C163.466 150.943 162.848 150.682 162.641 150C162.61 149.901 162.579 149.781 162.563 149.677L162.516 149.271H162.511ZM163.388 149.443C163.398 149.537 163.419 149.625 163.44 149.693C163.523 149.969 163.725 150.135 164.005 150.047C164.244 149.974 164.373 149.729 164.322 149.271L164.285 148.985C164.27 148.891 164.249 148.802 164.233 148.74C164.15 148.464 163.948 148.297 163.668 148.386C163.429 148.459 163.3 148.698 163.357 149.156L163.393 149.443H163.388Z" fill="white"/>
<path d="M167.543 149.63L166.339 148.375L166.308 148.386L166.505 149.953L165.748 150.188L165.375 147.209L166.002 147.016L167.19 148.25L167.221 148.24L167.024 146.698L167.781 146.464L168.155 149.443L167.538 149.636L167.543 149.63Z" fill="white"/>
<path d="M170.691 148.656L168.72 149.266L168.347 146.287L170.318 145.678L170.401 146.36L169.244 146.719L169.306 147.224L170.391 146.886L170.468 147.49L169.379 147.828L169.441 148.334L170.603 147.974L170.686 148.656H170.691Z" fill="white"/>
<path d="M78.2937 111.097C79.7618 122.867 82.5941 125.565 93.332 129.84L93.3216 130.101L91.5268 130.002L89.7423 129.788C83.3151 128.794 78.3456 124.981 77.5571 118.216C77.2459 115.81 77.4222 113.368 78.0447 111.029L78.2937 111.102V111.097Z" fill="#979797"/>
<path d="M106.928 116.487C105.46 104.717 102.628 102.02 91.8901 97.744L91.9005 97.4836L93.6954 97.5825L95.4798 97.7961C101.907 98.7908 106.877 102.603 107.665 109.368C107.976 111.774 107.8 114.217 107.177 116.555L106.928 116.482V116.487Z" fill="#979797"/>
</svg>
