<svg width="213" height="264" viewBox="0 0 213 264" fill="none" xmlns="http://www.w3.org/2000/svg">
<path d="M125.428 264C168.636 264 203.663 259.658 203.663 254.301C203.663 248.945 168.636 244.603 125.428 244.603C82.2206 244.603 47.1938 248.945 47.1938 254.301C47.1938 259.658 82.2206 264 125.428 264Z" fill="#070809"/>
<path d="M53.0248 116.259C53.0248 116.259 33.1848 104.35 33.1656 83.0441C33.1656 83.0441 21.9829 77.0482 21.9829 83.3773C21.9829 89.7063 26.0302 126.919 54.2779 132.799L61.6564 129.045L53.0311 116.265L53.0248 116.259Z" fill="#070809" stroke="#231F20" stroke-width="1.81584" stroke-miterlimit="10"/>
<path d="M185.415 193.842L55.2185 176.245L53.4219 84.6136L185.415 97.701V193.842Z" stroke="#231F20" stroke-width="2.41685" stroke-miterlimit="10"/>
<path d="M212 184.367L187.218 193.919L185.415 97.701L211.399 87.6245L212 184.367Z" fill="#F7CE15" stroke="#231F20" stroke-width="1.91814" stroke-miterlimit="10"/>
<path d="M185.269 97.195L56.8687 83.0762L88.1087 75.1328L208.875 87.2017L185.269 97.195Z" fill="#F7CE15" stroke="#231F20" stroke-width="1.91814" stroke-miterlimit="10"/>
<path d="M185.415 193.842L55.2185 176.245L53.4219 84.6136L185.415 97.701V193.842Z" fill="#F7CE15" stroke="#231F20" stroke-width="2.55752" stroke-miterlimit="10"/>
<path d="M86.7906 113.722L64.8535 111L64.6489 95.5101L86.7906 97.8611V113.722Z" fill="#231F20"/>
<path d="M63.3765 138.341C64.6169 147.232 65.2435 156.572 65.7295 165.553L64.8983 164.656C73.4468 165.829 81.9889 167.116 90.4159 168.987C81.7907 168.609 73.2102 167.635 64.6489 166.552L63.8561 166.456L63.8177 165.656C63.3893 156.668 63.0441 147.322 63.3702 138.341H63.3765Z" fill="#231F20"/>
<path d="M171.413 140.064C172.73 148.347 172.743 156.828 171.413 165.111C170.083 156.828 170.096 148.347 171.413 140.064Z" fill="#231F20"/>
<path d="M187.064 161.075L211.374 152.696L211.808 184.386L187.608 193.63L187.064 161.075Z" fill="#231F20"/>
<path d="M103.984 81.6093L77.814 79.1558V69.5981L103.984 71.7953V81.6093Z" fill="white" stroke="#231F20" stroke-width="1.81584" stroke-miterlimit="10"/>
<path d="M107.999 78.3101L104.808 82.474L104.533 71.065L107.89 69.4379L107.999 78.3101Z" fill="#231F20"/>
<path d="M104.534 71.0651L76.9189 68.6692L82.5838 67.5994L107.839 69.502L104.534 71.0651Z" fill="#070809"/>
<path d="M195.971 87.7526C195.971 87.7526 171.355 90.9812 169.028 105.542C166.637 120.513 169.859 130.051 169.859 130.051C169.859 130.051 169.348 119.411 156.573 107.163C145.934 96.9708 130.109 102.096 130.109 102.096C130.109 102.096 145.946 101.397 152.442 88.1626C159.284 74.2232 155.652 60.5849 155.652 60.5849C155.652 60.5849 154.795 69.8479 164.405 82.9289C173.133 94.8056 195.971 87.7462 195.971 87.7462V87.7526Z" fill="white"/>
<path d="M195.85 87.7782C195.843 87.8102 195.895 87.8807 195.946 87.8807C196.003 87.8807 195.952 87.8807 195.965 87.8807C195.946 87.8807 195.901 87.8935 195.882 87.8935L195.767 87.9127L195.543 87.9576C187.097 89.8537 175.933 93.5372 171.458 101.474C170.262 103.556 169.993 105.811 169.725 108.194C169.079 114.196 169.092 120.295 170.121 126.246C170.313 127.418 170.569 128.629 170.882 129.692L168.785 130.09C167.672 121.134 162.155 113.242 155.818 107.047C152.513 103.947 148.165 102.108 143.696 101.519C139.246 100.936 134.578 101.404 130.32 102.723L130.083 101.417C136.726 100.654 143.363 97.8228 147.903 92.8325C152.353 87.7526 154.303 80.9174 155.038 74.3129C155.447 69.8799 155.32 65.2612 154.341 60.9308L157.008 60.7066C157.008 68.3233 160.69 75.498 164.834 81.7117C171.004 91.1157 185.39 89.8281 195.051 87.8294L195.492 87.727L195.709 87.6757L195.818 87.6501C195.818 87.6501 195.882 87.6309 195.85 87.6501C195.818 87.6629 195.805 87.7526 195.843 87.7782H195.85ZM196.099 87.7205C196.099 87.7526 196.048 87.8551 195.984 87.8807C195.946 87.8935 195.837 87.9319 195.799 87.9448C195.664 87.9896 195.287 88.1113 195.147 88.1562C186.291 90.6993 175.447 92.1983 167.238 86.9967C165.102 85.6322 163.484 83.499 162.052 81.4491C159.213 77.3749 156.835 72.9292 155.435 68.1183C154.725 65.6071 154.213 63.1216 154.309 60.4631L154.827 51.8792C155.467 54.5633 157.417 61.2511 157.634 63.8519C158.689 72.1733 157.385 80.8149 153.676 88.3611C150.569 94.9977 144.143 99.6485 137.187 101.564C133.319 102.826 127.948 102.883 123.881 103.114L129.911 101.474C138.856 99.1936 149.284 100.071 156.394 106.439C162.8 112.294 168.561 119.539 170.646 128.149C171.023 129.526 171.573 137.943 171.745 139.481L168.842 130.41C167.321 125.484 166.969 120.506 167.039 115.433C167.091 112.928 167.295 110.436 167.628 107.957C167.96 105.439 168.427 102.755 169.782 100.552C174.891 92.1599 186.336 88.9056 195.498 87.6821L195.728 87.6565L195.843 87.6437H195.901L195.933 87.6373H195.978C196.035 87.6373 196.099 87.7013 196.106 87.7334L196.099 87.7205Z" fill="#231F20"/>
<path d="M112.219 161.959C112.219 161.959 118.862 167.859 124.987 166.572C126.125 166.335 128.625 165.803 129.674 165.47C133.069 164.381 140.876 161.191 143.523 158.782C150.128 152.773 154.955 145.624 153.619 133.959C152.334 122.742 144.987 113.293 135.678 109.148C134.968 108.835 133.887 108.104 133.069 108.091C133.069 108.091 121.547 107.714 115.614 107.867C110.077 108.015 110.103 108.694 110.103 108.694L112.225 161.953L112.219 161.959Z" fill="#231F20"/>
<path d="M113.523 167.981C129.738 167.981 142.883 154.811 142.883 138.565C142.883 122.319 129.738 109.148 113.523 109.148C97.3076 109.148 84.1626 122.319 84.1626 138.565C84.1626 154.811 97.3076 167.981 113.523 167.981Z" fill="white" stroke="#231F20" stroke-width="2.64703" stroke-miterlimit="10"/>
<path d="M112.904 164.15C126.99 164.15 138.409 152.709 138.409 138.597C138.409 124.484 126.99 113.043 112.904 113.043C98.8178 113.043 87.3989 124.484 87.3989 138.597C87.3989 152.709 98.8178 164.15 112.904 164.15Z" fill="white" stroke="#231F20" stroke-width="1.91814" stroke-miterlimit="10"/>
<path d="M113.76 218.537L101.766 216.91L105.659 183.009L120.001 185.482L113.76 218.537Z" fill="#231F20"/>
<path d="M135.249 218.537L147.244 216.91L143.35 187.865L129.009 185.482L135.249 218.537Z" fill="#231F20"/>
<path d="M101.369 225.68C101.369 225.68 94.374 227.236 94.374 220.683C94.374 220.683 93.287 216.314 98.7345 216.5C104.182 216.686 117.174 218.96 117.174 218.96C117.174 218.96 119.175 219.504 119.175 224.418C119.175 229.331 115.179 228.966 113.997 228.786C112.814 228.607 115.633 229.696 115.998 232.335C116.362 234.975 117.181 247.172 114.092 249.625H66.2221C66.2221 249.625 61.6825 246.71 61.6825 237.069C61.6825 237.069 61.1391 224.059 73.9458 224.238C73.9458 224.238 84.1183 223.329 85.4802 231.246C85.4802 231.246 85.9342 225.878 90.6592 225.878C95.3842 225.878 101.375 225.692 101.375 225.692L101.369 225.68Z" fill="#F04E2D" stroke="#231F20" stroke-width="2.55752" stroke-miterlimit="10"/>
<path d="M115.607 252.527C115.607 254.071 114.361 255.32 112.82 255.32H67.1681C65.6272 255.32 64.3804 254.071 64.3804 252.527C64.3804 250.983 65.6272 249.734 67.1681 249.734H112.82C114.361 249.734 115.607 250.983 115.607 252.527Z" fill="white" stroke="#231F20" stroke-width="2.55752" stroke-miterlimit="10"/>
<path d="M147.136 225.68C147.136 225.68 154.131 227.236 154.131 220.683C154.131 220.683 155.218 216.314 149.77 216.5C144.323 216.679 131.33 218.96 131.33 218.96C131.33 218.96 129.329 219.504 129.329 224.418C129.329 229.331 133.325 228.966 134.508 228.786C135.691 228.607 132.871 229.696 132.507 232.335C132.142 234.975 131.324 247.172 134.412 249.625H182.276C182.276 249.625 186.816 246.71 186.816 237.069C186.816 237.069 187.359 224.059 174.552 224.238C174.552 224.238 164.38 223.329 163.018 231.246C163.018 231.246 162.564 225.878 157.839 225.878C153.114 225.878 147.123 225.692 147.123 225.692L147.136 225.68Z" fill="#F04E2D" stroke="#231F20" stroke-width="2.55752" stroke-miterlimit="10"/>
<path d="M132.896 252.527C132.896 254.071 134.143 255.32 135.684 255.32H181.336C182.877 255.32 184.124 254.071 184.124 252.527C184.124 250.983 182.877 249.734 181.336 249.734H135.684C134.143 249.734 132.896 250.983 132.896 252.527Z" fill="white" stroke="#231F20" stroke-width="2.55752" stroke-miterlimit="10"/>
<path d="M186.336 158.936L211.816 150.198L211.617 146.886L186.221 154.996L186.336 158.936Z" fill="#231F20"/>
<path d="M186.336 152.869L211.816 144.132L211.617 140.82L186.221 148.93L186.336 152.869Z" fill="#231F20"/>
<path d="M186.559 146.245L211.617 138.257L211.975 136.528L186.252 144.381L186.559 146.245Z" fill="#231F20"/>
<path d="M11.728 67.8492C11.274 69.8094 10.7945 71.7632 10.3405 73.717C9.57965 76.9841 11.306 78.6689 13.3392 81.0134C19.1128 87.6692 30.1357 87.8486 37.041 82.9352C38.9016 81.6092 41.7148 79.4568 42.8082 77.4197C44.0933 75.0303 43.0064 70.5077 42.8913 67.8492H11.728Z" fill="#F04E2D" stroke="#231F20" stroke-width="2.55752" stroke-miterlimit="10"/>
<path d="M9.17649 39.2147C9.17649 39.2147 9.34273 35.0059 8.16627 30.1246C6.98981 25.2432 5.47448 24.2311 4.97577 21.0345C4.4259 17.5625 3.15993 12.6939 4.71362 9.34363C6.3888 5.73066 10.3338 3.46295 14.234 3.45654C21.6252 3.45654 24.1316 11.4512 24.1316 17.4984C24.1316 21.8737 23.9653 25.4034 23.9653 25.4098C24.1188 22.2388 25.3336 19.0487 26.4333 16.1211C28.5113 10.5672 31.5548 1.11836 39.2209 2.06645C42.616 2.48924 46.1773 6.97342 46.2413 10.3366C46.318 14.8335 44.4446 20.1697 42.3794 24.0966C40.9536 26.8063 39.9754 30.5089 38.6327 33.2571L37.5266 38.5228L32.4051 45.7295C32.4051 45.7295 35.5573 39.3684 27.3285 37.184C19.0933 34.9931 9.01025 39.7079 9.01025 39.7079" fill="#F04E2D"/>
<path d="M9.17649 39.2147C9.17649 39.2147 9.34273 35.0059 8.16627 30.1246C6.98981 25.2432 5.47448 24.2311 4.97577 21.0345C4.4259 17.5625 3.15993 12.6939 4.71362 9.34363C6.3888 5.73066 10.3338 3.46295 14.234 3.45654C21.6252 3.45654 24.1316 11.4512 24.1316 17.4984C24.1316 21.8737 23.9653 25.4034 23.9653 25.4098C24.1188 22.2388 25.3336 19.0487 26.4333 16.1211C28.5113 10.5672 31.5548 1.11836 39.2209 2.06645C42.616 2.48924 46.1773 6.97342 46.2413 10.3366C46.318 14.8335 44.4446 20.1697 42.3794 24.0966C40.9536 26.8063 39.9754 30.5089 38.6327 33.2571L37.5266 38.5228L32.4051 45.7295C32.4051 45.7295 35.5573 39.3684 27.3285 37.184C19.0933 34.9931 9.01025 39.7079 9.01025 39.7079" stroke="#231F20" stroke-width="2.55752" stroke-miterlimit="10"/>
<path d="M48.6067 57.4523C48.6067 69.6172 38.0378 79.4824 25.0072 79.4824C11.9767 79.4824 1.40137 69.6236 1.40137 57.4523C1.40137 45.281 11.9703 35.4222 25.0008 35.4222C30.3716 35.4222 35.3204 43.7499 39.2846 46.5686C44.9495 50.5915 48.6003 50.2968 48.6003 57.4523H48.6067Z" fill="#F04E2D" stroke="#231F20" stroke-width="2.55752" stroke-miterlimit="10"/>
<path d="M20.5765 57.5036C20.5765 57.5036 31.919 53.1604 31.7336 46.6007C31.5482 40.0409 32.2899 40.5983 31.0879 39.1185C29.6493 37.3504 28.9907 36.2486 26.7593 35.6272C24.3168 34.9482 21.8169 34.4742 19.2721 34.8137C10.0267 36.0308 0.416851 46.6903 1.31198 56.2993C2.04727 64.2427 3.52423 68.4898 5.36564 70.3412C7.20706 72.1861 12.8336 76.8048 15.4167 77.5479C17.9998 78.2846 21.4077 80.0398 24.1762 79.9501C26.7273 79.8668 29.8219 78.7714 32.0086 77.439C36.7272 74.5627 36.3052 65.4278 32.5456 62.1031" fill="#F04E2D"/>
<path d="M20.5767 57.5036C24.6432 55.4857 30.9858 51.9048 31.1009 46.8312C30.9922 44.903 30.9858 42.7122 31.005 40.7712C30.9858 40.4637 30.9603 40.3356 30.858 40.1754C29.9372 39.0672 28.959 37.6195 27.6674 36.966C26.6253 36.4728 25.2122 36.2358 24.0358 36.0116C13.9016 34.0257 3.19203 44.6084 2.54625 54.4351C2.50789 56.6964 2.85316 58.9962 3.19842 61.219C3.70353 63.9736 4.27897 66.9268 5.92218 69.1817C7.45029 70.8408 9.25973 72.2693 11.0372 73.6594C12.3479 74.6395 13.6459 75.594 15.0717 76.2923C15.9604 76.6895 16.9706 76.9457 17.853 77.3237C20.3785 78.291 22.7954 79.38 25.2378 79.0148C27.725 78.6945 30.3081 77.8489 32.3797 76.3884C36.1073 73.1534 35.8835 65.5943 32.5395 62.1095C35.6789 64.8704 36.4078 69.6941 35.3784 73.621C34.6686 76.5934 32.271 78.4127 29.5153 79.4825C27.546 80.2832 25.436 80.9238 23.2557 80.8085C20.0716 80.4882 17.2008 79.1365 14.2149 78.2205C10.7175 76.5421 7.76359 74.0694 4.87999 71.5327C4.47718 71.1611 4.02961 70.6807 3.70992 70.2322C1.22274 66.4399 0.743206 61.8981 0.167766 57.542C-0.471613 53.2372 0.768781 48.753 3.00021 45.1337C6.50401 39.3939 12.284 34.7752 19.0422 33.7567C22.3095 33.4171 25.5319 34.0193 28.5306 35.3325C29.8733 36.0372 30.762 37.312 31.6188 38.4394C31.9321 38.8494 32.4372 39.4708 32.5267 40.0858C32.6162 42.4111 32.3029 44.5059 32.3541 46.8441C31.8937 52.5261 25.257 55.7355 20.5767 57.4972V57.5036Z" fill="#231F20"/>
<path d="M49.7576 52.3661C48.5811 56.3762 43.4789 58.4133 38.3638 56.9015C33.2488 55.3961 30.0583 50.9184 31.2348 46.9018L34.5148 35.7362C35.6912 31.7261 40.7935 29.689 45.9085 31.2008C51.0235 32.7062 54.214 37.184 53.0376 41.2005L49.7576 52.3661Z" fill="#F04E2D" stroke="#231F20" stroke-width="2.55752" stroke-miterlimit="10"/>
<path d="M81.8351 110.801L67.7112 109.091L67.27 98.1816L81.7903 99.9945L81.8351 110.801Z" fill="white"/>
<path d="M191.074 184.374C191.924 184.111 192.589 184.547 192.838 185.367C192.864 185.45 192.896 185.565 192.915 185.674C192.934 185.77 192.953 185.924 192.96 186.02C193.024 186.943 192.525 187.731 191.534 188.038L190.115 188.48L189.654 184.816L191.074 184.374ZM191.01 187.333L191.182 187.282C191.611 187.148 191.937 186.827 191.905 186.244C191.905 186.161 191.886 186.027 191.867 185.93C191.854 185.86 191.828 185.77 191.815 185.719C191.662 185.226 191.291 185.175 190.978 185.271L190.767 185.335L191.016 187.327L191.01 187.333Z" fill="white"/>
<path d="M196.112 186.622L193.683 187.372L193.222 183.708L195.652 182.958L195.754 183.797L194.328 184.239L194.405 184.861L195.741 184.444L195.837 185.187L194.495 185.604L194.571 186.225L196.003 185.783L196.106 186.622H196.112Z" fill="white"/>
<path d="M197.467 186.206L195.939 182.868L197.039 182.529L197.953 185.053L197.998 185.04L198.228 182.157L199.328 181.818L198.739 185.809L197.461 186.206H197.467Z" fill="white"/>
<path d="M199.712 183.15C199.597 182.221 200.038 181.536 200.939 181.254C201.809 180.985 202.57 181.305 202.832 182.151C202.87 182.266 202.909 182.401 202.922 182.535L202.979 183.041C203.081 183.964 202.666 184.656 201.751 184.938C200.888 185.207 200.127 184.886 199.872 184.047C199.833 183.925 199.795 183.778 199.776 183.65L199.718 183.15H199.712ZM200.792 183.362C200.805 183.477 200.831 183.586 200.856 183.669C200.959 184.009 201.208 184.214 201.553 184.105C201.847 184.015 202.007 183.714 201.943 183.15L201.898 182.798C201.879 182.683 201.854 182.574 201.835 182.497C201.732 182.157 201.483 181.952 201.138 182.061C200.844 182.151 200.684 182.446 200.754 183.009L200.799 183.362H200.792Z" fill="white"/>
<path d="M205.914 183.592L204.431 182.048L204.393 182.061L204.636 183.989L203.702 184.278L203.242 180.613L204.015 180.376L205.48 181.895L205.518 181.882L205.275 179.986L206.208 179.697L206.669 183.362L205.908 183.599L205.914 183.592Z" fill="white"/>
<path d="M209.795 182.388L207.365 183.137L206.905 179.473L209.334 178.724L209.437 179.563L208.011 180.005L208.088 180.626L209.424 180.21L209.52 180.953L208.177 181.369L208.254 181.991L209.686 181.549L209.788 182.388H209.795Z" fill="white"/>
<path d="M95.269 136.195C97.0785 150.672 100.569 153.99 113.805 159.25L113.792 159.57L111.58 159.448L109.38 159.186C101.458 157.962 95.333 153.273 94.3611 144.951C93.9775 141.992 94.1949 138.988 94.9621 136.111L95.269 136.201V136.195Z" fill="#231F20"/>
<path d="M130.562 142.825C128.753 128.347 125.262 125.029 112.027 119.77L112.04 119.449L114.252 119.571L116.451 119.834C124.373 121.057 130.499 125.746 131.47 134.068C131.854 137.027 131.637 140.032 130.869 142.908L130.562 142.818V142.825Z" fill="#231F20"/>
</svg>
